M48
; DRILL file {KiCad 9.0.3} date 2025-08-26T10:07:48-0400
; FORMAT={-:-/ absolute / metric / decimal}
; #@! TF.CreationDate,2025-08-26T10:07:48-04:00
; #@! TF.GenerationSoftware,Kicad,Pcbnew,9.0.3
; #@! TF.FileFunction,Plated,1,2,PTH
FMAT,2
METRIC
; #@! TA.AperFunction,Plated,PTH,ViaDrill
T1C0.500
; #@! TA.AperFunction,Plated,PTH,ComponentDrill
T2C0.600
; #@! TA.AperFunction,Plated,PTH,ComponentDrill
T3C0.700
; #@! TA.AperFunction,Plated,PTH,ComponentDrill
T4C0.800
; #@! TA.AperFunction,Plated,PTH,ComponentDrill
T5C1.000
; #@! TA.AperFunction,Plated,PTH,ComponentDrill
T6C1.300
%
G90
G05
T1
X147.024Y-69.303
X149.611Y-72.395
X150.724Y-69.403
X150.731Y-76.444
X151.779Y-104.368
X152.909Y-91.088
X153.049Y-83.203
X154.345Y-89.144
X154.541Y-63.363
X154.541Y-73.904
X154.541Y-75.428
X154.699Y-70.838
X154.769Y-68.288
X155.364Y-72.358
X156.789Y-86.128
X157.208Y-75.428
X158.329Y-68.288
X158.329Y-86.608
X159.748Y-86.096
X159.809Y-96.888
X160.249Y-90.731
X162.099Y-93.838
X162.159Y-75.308
X162.415Y-79.619
X162.415Y-81.016
X164.124Y-79.628
X164.174Y-81.003
X164.329Y-89.178
X165.749Y-81.028
X165.774Y-79.653
X166.129Y-69.398
X166.606Y-77.46
X167.449Y-82.803
X168.13Y-93.716
X168.399Y-79.878
X168.511Y-72.38
X168.511Y-73.904
X168.511Y-77.46
X170.77Y-89.498
X172.194Y-67.935
X173.409Y-76.626
X173.469Y-74.138
X173.866Y-66.009
X174.749Y-64.378
X175.249Y-96.764
X175.569Y-90.603
X176.309Y-78.508
X177.02Y-93.589
X177.399Y-77.468
X178.544Y-67.898
X179.369Y-76.968
X179.642Y-63.301
X181.309Y-68.348
X185.649Y-69.978
X186.769Y-62.058
X186.769Y-66.878
X188.196Y-92.7
X190.153Y-96.768
X190.529Y-67.398
X190.529Y-71.868
X191.879Y-93.589
X192.319Y-114.628
X203.069Y-92.338
X204.651Y-95.674
X204.974Y-96.834
T3
X191.732Y-117.178
X193.732Y-117.178
X195.732Y-117.178
X197.732Y-117.178
T4
X148.76Y-108.428
X148.76Y-110.428
X148.76Y-112.428
X148.899Y-98.878
X148.899Y-100.878
X148.899Y-102.878
X152.749Y-117.185
X154.749Y-117.185
X156.749Y-117.185
X162.249Y-117.178
X164.249Y-117.178
X166.249Y-117.178
X171.749Y-117.165
X173.749Y-117.165
X175.749Y-117.165
X181.249Y-117.165
X183.249Y-117.165
X185.249Y-117.165
X203.661Y-67.978
X203.661Y-69.978
X203.661Y-71.978
T5
X142.084Y-69.423
X142.084Y-71.963
X142.084Y-74.503
X144.624Y-69.423
X144.624Y-71.963
X144.624Y-74.503
T6
X155.281Y-112.248
X155.306Y-102.012
X160.285Y-99.548
X165.441Y-102.063
X165.466Y-112.248
X170.331Y-112.191
X170.356Y-101.955
X175.335Y-99.491
X180.491Y-102.006
X180.516Y-112.191
X185.281Y-112.241
X185.306Y-102.005
X190.285Y-99.541
X195.441Y-102.056
X195.466Y-112.241
X200.424Y-112.234
X200.449Y-101.998
X205.427Y-99.534
X210.584Y-102.049
X210.609Y-112.234
T2
G00X201.879Y-80.818
M15
G01X201.279Y-80.818
M16
G05
G00X201.879Y-82.818
M15
G01X201.279Y-82.818
M16
G05
G00X201.879Y-84.818
M15
G01X201.279Y-84.818
M16
G05
M30
