%TF.GenerationSoftware,KiCad,Pcbnew,9.0.3*%
%TF.CreationDate,2025-08-26T10:07:48-04:00*%
%TF.ProjectId,Water_controller_board,57617465-725f-4636-9f6e-74726f6c6c65,rev?*%
%TF.SameCoordinates,Original*%
%TF.FileFunction,Drillmap*%
%TF.FilePolarity,Positive*%
%FSLAX45Y45*%
G04 Gerber Fmt 4.5, Leading zero omitted, Abs format (unit mm)*
G04 Created by KiCad (PCBNEW 9.0.3) date 2025-08-26 10:07:48*
%MOMM*%
%LPD*%
G01*
G04 APERTURE LIST*
%ADD10C,0.100000*%
%ADD11C,0.200000*%
%ADD12C,0.130000*%
%ADD13C,0.210000*%
G04 APERTURE END LIST*
D10*
X21324895Y-12637790D02*
X21324895Y-12687790D01*
X13924895Y-5587790D02*
X14574895Y-5587790D01*
X17774895Y-5587790D02*
X21324895Y-5587790D01*
X21324895Y-5587790D02*
X21324895Y-12637790D01*
X17774895Y-6237790D02*
X14574895Y-6237790D01*
X13874895Y-5587790D02*
X13924895Y-5587790D01*
X17774895Y-5587790D02*
X17774895Y-6237790D01*
X13874895Y-12687790D02*
X21324895Y-12687790D01*
X13874895Y-12687790D02*
X13874895Y-5587790D01*
X14574895Y-6237790D02*
X14574895Y-5587790D01*
D11*
D12*
X20692895Y-8016790D02*
X20822895Y-8146790D01*
X20822895Y-8016790D02*
X20692895Y-8146790D01*
X20692895Y-8416790D02*
X20822895Y-8546790D01*
X20822895Y-8416790D02*
X20692895Y-8546790D01*
D13*
X14329895Y-5937790D02*
G75*
G02*
X14119895Y-5937790I-105000J0D01*
G01*
X14119895Y-5937790D02*
G75*
G02*
X14329895Y-5937790I105000J0D01*
G01*
X14329895Y-12337790D02*
G75*
G02*
X14119895Y-12337790I-105000J0D01*
G01*
X14119895Y-12337790D02*
G75*
G02*
X14329895Y-12337790I105000J0D01*
G01*
X21079895Y-5887790D02*
G75*
G02*
X20869895Y-5887790I-105000J0D01*
G01*
X20869895Y-5887790D02*
G75*
G02*
X21079895Y-5887790I105000J0D01*
G01*
X21079895Y-12337790D02*
G75*
G02*
X20869895Y-12337790I-105000J0D01*
G01*
X20869895Y-12337790D02*
G75*
G02*
X21079895Y-12337790I105000J0D01*
G01*
D11*
X14130672Y-13004274D02*
X14130672Y-12804274D01*
X14130672Y-12804274D02*
X14178291Y-12804274D01*
X14178291Y-12804274D02*
X14206863Y-12813798D01*
X14206863Y-12813798D02*
X14225910Y-12832845D01*
X14225910Y-12832845D02*
X14235434Y-12851893D01*
X14235434Y-12851893D02*
X14244958Y-12889988D01*
X14244958Y-12889988D02*
X14244958Y-12918559D01*
X14244958Y-12918559D02*
X14235434Y-12956655D01*
X14235434Y-12956655D02*
X14225910Y-12975702D01*
X14225910Y-12975702D02*
X14206863Y-12994750D01*
X14206863Y-12994750D02*
X14178291Y-13004274D01*
X14178291Y-13004274D02*
X14130672Y-13004274D01*
X14330672Y-13004274D02*
X14330672Y-12870940D01*
X14330672Y-12909036D02*
X14340196Y-12889988D01*
X14340196Y-12889988D02*
X14349720Y-12880464D01*
X14349720Y-12880464D02*
X14368767Y-12870940D01*
X14368767Y-12870940D02*
X14387815Y-12870940D01*
X14454482Y-13004274D02*
X14454482Y-12870940D01*
X14454482Y-12804274D02*
X14444958Y-12813798D01*
X14444958Y-12813798D02*
X14454482Y-12823321D01*
X14454482Y-12823321D02*
X14464005Y-12813798D01*
X14464005Y-12813798D02*
X14454482Y-12804274D01*
X14454482Y-12804274D02*
X14454482Y-12823321D01*
X14578291Y-13004274D02*
X14559244Y-12994750D01*
X14559244Y-12994750D02*
X14549720Y-12975702D01*
X14549720Y-12975702D02*
X14549720Y-12804274D01*
X14683053Y-13004274D02*
X14664005Y-12994750D01*
X14664005Y-12994750D02*
X14654482Y-12975702D01*
X14654482Y-12975702D02*
X14654482Y-12804274D01*
X14911625Y-13004274D02*
X14911625Y-12804274D01*
X14911625Y-12804274D02*
X14978291Y-12947131D01*
X14978291Y-12947131D02*
X15044958Y-12804274D01*
X15044958Y-12804274D02*
X15044958Y-13004274D01*
X15225910Y-13004274D02*
X15225910Y-12899512D01*
X15225910Y-12899512D02*
X15216386Y-12880464D01*
X15216386Y-12880464D02*
X15197339Y-12870940D01*
X15197339Y-12870940D02*
X15159244Y-12870940D01*
X15159244Y-12870940D02*
X15140196Y-12880464D01*
X15225910Y-12994750D02*
X15206863Y-13004274D01*
X15206863Y-13004274D02*
X15159244Y-13004274D01*
X15159244Y-13004274D02*
X15140196Y-12994750D01*
X15140196Y-12994750D02*
X15130672Y-12975702D01*
X15130672Y-12975702D02*
X15130672Y-12956655D01*
X15130672Y-12956655D02*
X15140196Y-12937607D01*
X15140196Y-12937607D02*
X15159244Y-12928083D01*
X15159244Y-12928083D02*
X15206863Y-12928083D01*
X15206863Y-12928083D02*
X15225910Y-12918559D01*
X15321148Y-12870940D02*
X15321148Y-13070940D01*
X15321148Y-12880464D02*
X15340196Y-12870940D01*
X15340196Y-12870940D02*
X15378291Y-12870940D01*
X15378291Y-12870940D02*
X15397339Y-12880464D01*
X15397339Y-12880464D02*
X15406863Y-12889988D01*
X15406863Y-12889988D02*
X15416386Y-12909036D01*
X15416386Y-12909036D02*
X15416386Y-12966178D01*
X15416386Y-12966178D02*
X15406863Y-12985226D01*
X15406863Y-12985226D02*
X15397339Y-12994750D01*
X15397339Y-12994750D02*
X15378291Y-13004274D01*
X15378291Y-13004274D02*
X15340196Y-13004274D01*
X15340196Y-13004274D02*
X15321148Y-12994750D01*
X15502101Y-12985226D02*
X15511625Y-12994750D01*
X15511625Y-12994750D02*
X15502101Y-13004274D01*
X15502101Y-13004274D02*
X15492577Y-12994750D01*
X15492577Y-12994750D02*
X15502101Y-12985226D01*
X15502101Y-12985226D02*
X15502101Y-13004274D01*
X15502101Y-12880464D02*
X15511625Y-12889988D01*
X15511625Y-12889988D02*
X15502101Y-12899512D01*
X15502101Y-12899512D02*
X15492577Y-12889988D01*
X15492577Y-12889988D02*
X15502101Y-12880464D01*
X15502101Y-12880464D02*
X15502101Y-12899512D01*
D12*
X13739895Y-13267790D02*
X13869895Y-13397790D01*
X13869895Y-13267790D02*
X13739895Y-13397790D01*
D11*
X14235434Y-13424274D02*
X14121148Y-13424274D01*
X14178291Y-13424274D02*
X14178291Y-13224274D01*
X14178291Y-13224274D02*
X14159244Y-13252845D01*
X14159244Y-13252845D02*
X14140196Y-13271893D01*
X14140196Y-13271893D02*
X14121148Y-13281417D01*
X14321148Y-13405226D02*
X14330672Y-13414750D01*
X14330672Y-13414750D02*
X14321148Y-13424274D01*
X14321148Y-13424274D02*
X14311625Y-13414750D01*
X14311625Y-13414750D02*
X14321148Y-13405226D01*
X14321148Y-13405226D02*
X14321148Y-13424274D01*
X14397339Y-13224274D02*
X14521148Y-13224274D01*
X14521148Y-13224274D02*
X14454482Y-13300464D01*
X14454482Y-13300464D02*
X14483053Y-13300464D01*
X14483053Y-13300464D02*
X14502101Y-13309988D01*
X14502101Y-13309988D02*
X14511625Y-13319512D01*
X14511625Y-13319512D02*
X14521148Y-13338559D01*
X14521148Y-13338559D02*
X14521148Y-13386178D01*
X14521148Y-13386178D02*
X14511625Y-13405226D01*
X14511625Y-13405226D02*
X14502101Y-13414750D01*
X14502101Y-13414750D02*
X14483053Y-13424274D01*
X14483053Y-13424274D02*
X14425910Y-13424274D01*
X14425910Y-13424274D02*
X14406863Y-13414750D01*
X14406863Y-13414750D02*
X14397339Y-13405226D01*
X14644958Y-13224274D02*
X14664006Y-13224274D01*
X14664006Y-13224274D02*
X14683053Y-13233798D01*
X14683053Y-13233798D02*
X14692577Y-13243321D01*
X14692577Y-13243321D02*
X14702101Y-13262369D01*
X14702101Y-13262369D02*
X14711625Y-13300464D01*
X14711625Y-13300464D02*
X14711625Y-13348083D01*
X14711625Y-13348083D02*
X14702101Y-13386178D01*
X14702101Y-13386178D02*
X14692577Y-13405226D01*
X14692577Y-13405226D02*
X14683053Y-13414750D01*
X14683053Y-13414750D02*
X14664006Y-13424274D01*
X14664006Y-13424274D02*
X14644958Y-13424274D01*
X14644958Y-13424274D02*
X14625910Y-13414750D01*
X14625910Y-13414750D02*
X14616386Y-13405226D01*
X14616386Y-13405226D02*
X14606863Y-13386178D01*
X14606863Y-13386178D02*
X14597339Y-13348083D01*
X14597339Y-13348083D02*
X14597339Y-13300464D01*
X14597339Y-13300464D02*
X14606863Y-13262369D01*
X14606863Y-13262369D02*
X14616386Y-13243321D01*
X14616386Y-13243321D02*
X14625910Y-13233798D01*
X14625910Y-13233798D02*
X14644958Y-13224274D01*
X14835434Y-13224274D02*
X14854482Y-13224274D01*
X14854482Y-13224274D02*
X14873529Y-13233798D01*
X14873529Y-13233798D02*
X14883053Y-13243321D01*
X14883053Y-13243321D02*
X14892577Y-13262369D01*
X14892577Y-13262369D02*
X14902101Y-13300464D01*
X14902101Y-13300464D02*
X14902101Y-13348083D01*
X14902101Y-13348083D02*
X14892577Y-13386178D01*
X14892577Y-13386178D02*
X14883053Y-13405226D01*
X14883053Y-13405226D02*
X14873529Y-13414750D01*
X14873529Y-13414750D02*
X14854482Y-13424274D01*
X14854482Y-13424274D02*
X14835434Y-13424274D01*
X14835434Y-13424274D02*
X14816386Y-13414750D01*
X14816386Y-13414750D02*
X14806863Y-13405226D01*
X14806863Y-13405226D02*
X14797339Y-13386178D01*
X14797339Y-13386178D02*
X14787815Y-13348083D01*
X14787815Y-13348083D02*
X14787815Y-13300464D01*
X14787815Y-13300464D02*
X14797339Y-13262369D01*
X14797339Y-13262369D02*
X14806863Y-13243321D01*
X14806863Y-13243321D02*
X14816386Y-13233798D01*
X14816386Y-13233798D02*
X14835434Y-13224274D01*
X14987815Y-13424274D02*
X14987815Y-13290940D01*
X14987815Y-13309988D02*
X14997339Y-13300464D01*
X14997339Y-13300464D02*
X15016386Y-13290940D01*
X15016386Y-13290940D02*
X15044958Y-13290940D01*
X15044958Y-13290940D02*
X15064006Y-13300464D01*
X15064006Y-13300464D02*
X15073529Y-13319512D01*
X15073529Y-13319512D02*
X15073529Y-13424274D01*
X15073529Y-13319512D02*
X15083053Y-13300464D01*
X15083053Y-13300464D02*
X15102101Y-13290940D01*
X15102101Y-13290940D02*
X15130672Y-13290940D01*
X15130672Y-13290940D02*
X15149720Y-13300464D01*
X15149720Y-13300464D02*
X15159244Y-13319512D01*
X15159244Y-13319512D02*
X15159244Y-13424274D01*
X15254482Y-13424274D02*
X15254482Y-13290940D01*
X15254482Y-13309988D02*
X15264006Y-13300464D01*
X15264006Y-13300464D02*
X15283053Y-13290940D01*
X15283053Y-13290940D02*
X15311625Y-13290940D01*
X15311625Y-13290940D02*
X15330672Y-13300464D01*
X15330672Y-13300464D02*
X15340196Y-13319512D01*
X15340196Y-13319512D02*
X15340196Y-13424274D01*
X15340196Y-13319512D02*
X15349720Y-13300464D01*
X15349720Y-13300464D02*
X15368767Y-13290940D01*
X15368767Y-13290940D02*
X15397339Y-13290940D01*
X15397339Y-13290940D02*
X15416387Y-13300464D01*
X15416387Y-13300464D02*
X15425910Y-13319512D01*
X15425910Y-13319512D02*
X15425910Y-13424274D01*
X15816387Y-13214750D02*
X15644958Y-13471893D01*
X16073529Y-13224274D02*
X16092577Y-13224274D01*
X16092577Y-13224274D02*
X16111625Y-13233798D01*
X16111625Y-13233798D02*
X16121149Y-13243321D01*
X16121149Y-13243321D02*
X16130672Y-13262369D01*
X16130672Y-13262369D02*
X16140196Y-13300464D01*
X16140196Y-13300464D02*
X16140196Y-13348083D01*
X16140196Y-13348083D02*
X16130672Y-13386178D01*
X16130672Y-13386178D02*
X16121149Y-13405226D01*
X16121149Y-13405226D02*
X16111625Y-13414750D01*
X16111625Y-13414750D02*
X16092577Y-13424274D01*
X16092577Y-13424274D02*
X16073529Y-13424274D01*
X16073529Y-13424274D02*
X16054482Y-13414750D01*
X16054482Y-13414750D02*
X16044958Y-13405226D01*
X16044958Y-13405226D02*
X16035434Y-13386178D01*
X16035434Y-13386178D02*
X16025910Y-13348083D01*
X16025910Y-13348083D02*
X16025910Y-13300464D01*
X16025910Y-13300464D02*
X16035434Y-13262369D01*
X16035434Y-13262369D02*
X16044958Y-13243321D01*
X16044958Y-13243321D02*
X16054482Y-13233798D01*
X16054482Y-13233798D02*
X16073529Y-13224274D01*
X16225910Y-13405226D02*
X16235434Y-13414750D01*
X16235434Y-13414750D02*
X16225910Y-13424274D01*
X16225910Y-13424274D02*
X16216387Y-13414750D01*
X16216387Y-13414750D02*
X16225910Y-13405226D01*
X16225910Y-13405226D02*
X16225910Y-13424274D01*
X16359244Y-13224274D02*
X16378291Y-13224274D01*
X16378291Y-13224274D02*
X16397339Y-13233798D01*
X16397339Y-13233798D02*
X16406863Y-13243321D01*
X16406863Y-13243321D02*
X16416387Y-13262369D01*
X16416387Y-13262369D02*
X16425910Y-13300464D01*
X16425910Y-13300464D02*
X16425910Y-13348083D01*
X16425910Y-13348083D02*
X16416387Y-13386178D01*
X16416387Y-13386178D02*
X16406863Y-13405226D01*
X16406863Y-13405226D02*
X16397339Y-13414750D01*
X16397339Y-13414750D02*
X16378291Y-13424274D01*
X16378291Y-13424274D02*
X16359244Y-13424274D01*
X16359244Y-13424274D02*
X16340196Y-13414750D01*
X16340196Y-13414750D02*
X16330672Y-13405226D01*
X16330672Y-13405226D02*
X16321149Y-13386178D01*
X16321149Y-13386178D02*
X16311625Y-13348083D01*
X16311625Y-13348083D02*
X16311625Y-13300464D01*
X16311625Y-13300464D02*
X16321149Y-13262369D01*
X16321149Y-13262369D02*
X16330672Y-13243321D01*
X16330672Y-13243321D02*
X16340196Y-13233798D01*
X16340196Y-13233798D02*
X16359244Y-13224274D01*
X16606863Y-13224274D02*
X16511625Y-13224274D01*
X16511625Y-13224274D02*
X16502101Y-13319512D01*
X16502101Y-13319512D02*
X16511625Y-13309988D01*
X16511625Y-13309988D02*
X16530672Y-13300464D01*
X16530672Y-13300464D02*
X16578291Y-13300464D01*
X16578291Y-13300464D02*
X16597339Y-13309988D01*
X16597339Y-13309988D02*
X16606863Y-13319512D01*
X16606863Y-13319512D02*
X16616387Y-13338559D01*
X16616387Y-13338559D02*
X16616387Y-13386178D01*
X16616387Y-13386178D02*
X16606863Y-13405226D01*
X16606863Y-13405226D02*
X16597339Y-13414750D01*
X16597339Y-13414750D02*
X16578291Y-13424274D01*
X16578291Y-13424274D02*
X16530672Y-13424274D01*
X16530672Y-13424274D02*
X16511625Y-13414750D01*
X16511625Y-13414750D02*
X16502101Y-13405226D01*
X16806863Y-13424274D02*
X16692577Y-13424274D01*
X16749720Y-13424274D02*
X16749720Y-13224274D01*
X16749720Y-13224274D02*
X16730672Y-13252845D01*
X16730672Y-13252845D02*
X16711625Y-13271893D01*
X16711625Y-13271893D02*
X16692577Y-13281417D01*
X16883053Y-13243321D02*
X16892577Y-13233798D01*
X16892577Y-13233798D02*
X16911625Y-13224274D01*
X16911625Y-13224274D02*
X16959244Y-13224274D01*
X16959244Y-13224274D02*
X16978292Y-13233798D01*
X16978292Y-13233798D02*
X16987815Y-13243321D01*
X16987815Y-13243321D02*
X16997339Y-13262369D01*
X16997339Y-13262369D02*
X16997339Y-13281417D01*
X16997339Y-13281417D02*
X16987815Y-13309988D01*
X16987815Y-13309988D02*
X16873530Y-13424274D01*
X16873530Y-13424274D02*
X16997339Y-13424274D01*
X17073530Y-13224274D02*
X17073530Y-13262369D01*
X17149720Y-13224274D02*
X17149720Y-13262369D01*
X17444958Y-13500464D02*
X17435434Y-13490940D01*
X17435434Y-13490940D02*
X17416387Y-13462369D01*
X17416387Y-13462369D02*
X17406863Y-13443321D01*
X17406863Y-13443321D02*
X17397339Y-13414750D01*
X17397339Y-13414750D02*
X17387815Y-13367131D01*
X17387815Y-13367131D02*
X17387815Y-13329036D01*
X17387815Y-13329036D02*
X17397339Y-13281417D01*
X17397339Y-13281417D02*
X17406863Y-13252845D01*
X17406863Y-13252845D02*
X17416387Y-13233798D01*
X17416387Y-13233798D02*
X17435434Y-13205226D01*
X17435434Y-13205226D02*
X17444958Y-13195702D01*
X17511625Y-13243321D02*
X17521149Y-13233798D01*
X17521149Y-13233798D02*
X17540196Y-13224274D01*
X17540196Y-13224274D02*
X17587815Y-13224274D01*
X17587815Y-13224274D02*
X17606863Y-13233798D01*
X17606863Y-13233798D02*
X17616387Y-13243321D01*
X17616387Y-13243321D02*
X17625911Y-13262369D01*
X17625911Y-13262369D02*
X17625911Y-13281417D01*
X17625911Y-13281417D02*
X17616387Y-13309988D01*
X17616387Y-13309988D02*
X17502101Y-13424274D01*
X17502101Y-13424274D02*
X17625911Y-13424274D01*
X17864006Y-13424274D02*
X17864006Y-13224274D01*
X17949720Y-13424274D02*
X17949720Y-13319512D01*
X17949720Y-13319512D02*
X17940196Y-13300464D01*
X17940196Y-13300464D02*
X17921149Y-13290940D01*
X17921149Y-13290940D02*
X17892577Y-13290940D01*
X17892577Y-13290940D02*
X17873530Y-13300464D01*
X17873530Y-13300464D02*
X17864006Y-13309988D01*
X18073530Y-13424274D02*
X18054482Y-13414750D01*
X18054482Y-13414750D02*
X18044958Y-13405226D01*
X18044958Y-13405226D02*
X18035435Y-13386178D01*
X18035435Y-13386178D02*
X18035435Y-13329036D01*
X18035435Y-13329036D02*
X18044958Y-13309988D01*
X18044958Y-13309988D02*
X18054482Y-13300464D01*
X18054482Y-13300464D02*
X18073530Y-13290940D01*
X18073530Y-13290940D02*
X18102101Y-13290940D01*
X18102101Y-13290940D02*
X18121149Y-13300464D01*
X18121149Y-13300464D02*
X18130673Y-13309988D01*
X18130673Y-13309988D02*
X18140196Y-13329036D01*
X18140196Y-13329036D02*
X18140196Y-13386178D01*
X18140196Y-13386178D02*
X18130673Y-13405226D01*
X18130673Y-13405226D02*
X18121149Y-13414750D01*
X18121149Y-13414750D02*
X18102101Y-13424274D01*
X18102101Y-13424274D02*
X18073530Y-13424274D01*
X18254482Y-13424274D02*
X18235435Y-13414750D01*
X18235435Y-13414750D02*
X18225911Y-13395702D01*
X18225911Y-13395702D02*
X18225911Y-13224274D01*
X18406863Y-13414750D02*
X18387816Y-13424274D01*
X18387816Y-13424274D02*
X18349720Y-13424274D01*
X18349720Y-13424274D02*
X18330673Y-13414750D01*
X18330673Y-13414750D02*
X18321149Y-13395702D01*
X18321149Y-13395702D02*
X18321149Y-13319512D01*
X18321149Y-13319512D02*
X18330673Y-13300464D01*
X18330673Y-13300464D02*
X18349720Y-13290940D01*
X18349720Y-13290940D02*
X18387816Y-13290940D01*
X18387816Y-13290940D02*
X18406863Y-13300464D01*
X18406863Y-13300464D02*
X18416387Y-13319512D01*
X18416387Y-13319512D02*
X18416387Y-13338559D01*
X18416387Y-13338559D02*
X18321149Y-13357607D01*
X18492577Y-13414750D02*
X18511625Y-13424274D01*
X18511625Y-13424274D02*
X18549720Y-13424274D01*
X18549720Y-13424274D02*
X18568768Y-13414750D01*
X18568768Y-13414750D02*
X18578292Y-13395702D01*
X18578292Y-13395702D02*
X18578292Y-13386178D01*
X18578292Y-13386178D02*
X18568768Y-13367131D01*
X18568768Y-13367131D02*
X18549720Y-13357607D01*
X18549720Y-13357607D02*
X18521149Y-13357607D01*
X18521149Y-13357607D02*
X18502101Y-13348083D01*
X18502101Y-13348083D02*
X18492577Y-13329036D01*
X18492577Y-13329036D02*
X18492577Y-13319512D01*
X18492577Y-13319512D02*
X18502101Y-13300464D01*
X18502101Y-13300464D02*
X18521149Y-13290940D01*
X18521149Y-13290940D02*
X18549720Y-13290940D01*
X18549720Y-13290940D02*
X18568768Y-13300464D01*
X18644958Y-13500464D02*
X18654482Y-13490940D01*
X18654482Y-13490940D02*
X18673530Y-13462369D01*
X18673530Y-13462369D02*
X18683054Y-13443321D01*
X18683054Y-13443321D02*
X18692577Y-13414750D01*
X18692577Y-13414750D02*
X18702101Y-13367131D01*
X18702101Y-13367131D02*
X18702101Y-13329036D01*
X18702101Y-13329036D02*
X18692577Y-13281417D01*
X18692577Y-13281417D02*
X18683054Y-13252845D01*
X18683054Y-13252845D02*
X18673530Y-13233798D01*
X18673530Y-13233798D02*
X18654482Y-13205226D01*
X18654482Y-13205226D02*
X18644958Y-13195702D01*
X19006863Y-13500464D02*
X18997339Y-13490940D01*
X18997339Y-13490940D02*
X18978292Y-13462369D01*
X18978292Y-13462369D02*
X18968768Y-13443321D01*
X18968768Y-13443321D02*
X18959244Y-13414750D01*
X18959244Y-13414750D02*
X18949720Y-13367131D01*
X18949720Y-13367131D02*
X18949720Y-13329036D01*
X18949720Y-13329036D02*
X18959244Y-13281417D01*
X18959244Y-13281417D02*
X18968768Y-13252845D01*
X18968768Y-13252845D02*
X18978292Y-13233798D01*
X18978292Y-13233798D02*
X18997339Y-13205226D01*
X18997339Y-13205226D02*
X19006863Y-13195702D01*
X19083054Y-13290940D02*
X19083054Y-13424274D01*
X19083054Y-13309988D02*
X19092577Y-13300464D01*
X19092577Y-13300464D02*
X19111625Y-13290940D01*
X19111625Y-13290940D02*
X19140197Y-13290940D01*
X19140197Y-13290940D02*
X19159244Y-13300464D01*
X19159244Y-13300464D02*
X19168768Y-13319512D01*
X19168768Y-13319512D02*
X19168768Y-13424274D01*
X19292577Y-13424274D02*
X19273530Y-13414750D01*
X19273530Y-13414750D02*
X19264006Y-13405226D01*
X19264006Y-13405226D02*
X19254482Y-13386178D01*
X19254482Y-13386178D02*
X19254482Y-13329036D01*
X19254482Y-13329036D02*
X19264006Y-13309988D01*
X19264006Y-13309988D02*
X19273530Y-13300464D01*
X19273530Y-13300464D02*
X19292577Y-13290940D01*
X19292577Y-13290940D02*
X19321149Y-13290940D01*
X19321149Y-13290940D02*
X19340197Y-13300464D01*
X19340197Y-13300464D02*
X19349720Y-13309988D01*
X19349720Y-13309988D02*
X19359244Y-13329036D01*
X19359244Y-13329036D02*
X19359244Y-13386178D01*
X19359244Y-13386178D02*
X19349720Y-13405226D01*
X19349720Y-13405226D02*
X19340197Y-13414750D01*
X19340197Y-13414750D02*
X19321149Y-13424274D01*
X19321149Y-13424274D02*
X19292577Y-13424274D01*
X19416387Y-13290940D02*
X19492577Y-13290940D01*
X19444958Y-13224274D02*
X19444958Y-13395702D01*
X19444958Y-13395702D02*
X19454482Y-13414750D01*
X19454482Y-13414750D02*
X19473530Y-13424274D01*
X19473530Y-13424274D02*
X19492577Y-13424274D01*
X19711625Y-13290940D02*
X19711625Y-13490940D01*
X19711625Y-13300464D02*
X19730673Y-13290940D01*
X19730673Y-13290940D02*
X19768768Y-13290940D01*
X19768768Y-13290940D02*
X19787816Y-13300464D01*
X19787816Y-13300464D02*
X19797339Y-13309988D01*
X19797339Y-13309988D02*
X19806863Y-13329036D01*
X19806863Y-13329036D02*
X19806863Y-13386178D01*
X19806863Y-13386178D02*
X19797339Y-13405226D01*
X19797339Y-13405226D02*
X19787816Y-13414750D01*
X19787816Y-13414750D02*
X19768768Y-13424274D01*
X19768768Y-13424274D02*
X19730673Y-13424274D01*
X19730673Y-13424274D02*
X19711625Y-13414750D01*
X19921149Y-13424274D02*
X19902101Y-13414750D01*
X19902101Y-13414750D02*
X19892578Y-13395702D01*
X19892578Y-13395702D02*
X19892578Y-13224274D01*
X20083054Y-13424274D02*
X20083054Y-13319512D01*
X20083054Y-13319512D02*
X20073530Y-13300464D01*
X20073530Y-13300464D02*
X20054482Y-13290940D01*
X20054482Y-13290940D02*
X20016387Y-13290940D01*
X20016387Y-13290940D02*
X19997339Y-13300464D01*
X20083054Y-13414750D02*
X20064006Y-13424274D01*
X20064006Y-13424274D02*
X20016387Y-13424274D01*
X20016387Y-13424274D02*
X19997339Y-13414750D01*
X19997339Y-13414750D02*
X19987816Y-13395702D01*
X19987816Y-13395702D02*
X19987816Y-13376655D01*
X19987816Y-13376655D02*
X19997339Y-13357607D01*
X19997339Y-13357607D02*
X20016387Y-13348083D01*
X20016387Y-13348083D02*
X20064006Y-13348083D01*
X20064006Y-13348083D02*
X20083054Y-13338559D01*
X20149720Y-13290940D02*
X20225911Y-13290940D01*
X20178292Y-13224274D02*
X20178292Y-13395702D01*
X20178292Y-13395702D02*
X20187816Y-13414750D01*
X20187816Y-13414750D02*
X20206863Y-13424274D01*
X20206863Y-13424274D02*
X20225911Y-13424274D01*
X20368768Y-13414750D02*
X20349720Y-13424274D01*
X20349720Y-13424274D02*
X20311625Y-13424274D01*
X20311625Y-13424274D02*
X20292578Y-13414750D01*
X20292578Y-13414750D02*
X20283054Y-13395702D01*
X20283054Y-13395702D02*
X20283054Y-13319512D01*
X20283054Y-13319512D02*
X20292578Y-13300464D01*
X20292578Y-13300464D02*
X20311625Y-13290940D01*
X20311625Y-13290940D02*
X20349720Y-13290940D01*
X20349720Y-13290940D02*
X20368768Y-13300464D01*
X20368768Y-13300464D02*
X20378292Y-13319512D01*
X20378292Y-13319512D02*
X20378292Y-13338559D01*
X20378292Y-13338559D02*
X20283054Y-13357607D01*
X20549720Y-13424274D02*
X20549720Y-13224274D01*
X20549720Y-13414750D02*
X20530673Y-13424274D01*
X20530673Y-13424274D02*
X20492578Y-13424274D01*
X20492578Y-13424274D02*
X20473530Y-13414750D01*
X20473530Y-13414750D02*
X20464006Y-13405226D01*
X20464006Y-13405226D02*
X20454482Y-13386178D01*
X20454482Y-13386178D02*
X20454482Y-13329036D01*
X20454482Y-13329036D02*
X20464006Y-13309988D01*
X20464006Y-13309988D02*
X20473530Y-13300464D01*
X20473530Y-13300464D02*
X20492578Y-13290940D01*
X20492578Y-13290940D02*
X20530673Y-13290940D01*
X20530673Y-13290940D02*
X20549720Y-13300464D01*
X20625911Y-13500464D02*
X20635435Y-13490940D01*
X20635435Y-13490940D02*
X20654482Y-13462369D01*
X20654482Y-13462369D02*
X20664006Y-13443321D01*
X20664006Y-13443321D02*
X20673530Y-13414750D01*
X20673530Y-13414750D02*
X20683054Y-13367131D01*
X20683054Y-13367131D02*
X20683054Y-13329036D01*
X20683054Y-13329036D02*
X20673530Y-13281417D01*
X20673530Y-13281417D02*
X20664006Y-13252845D01*
X20664006Y-13252845D02*
X20654482Y-13233798D01*
X20654482Y-13233798D02*
X20635435Y-13205226D01*
X20635435Y-13205226D02*
X20625911Y-13195702D01*
X13869895Y-13596790D02*
G75*
G02*
X13669895Y-13596790I-100000J0D01*
G01*
X13669895Y-13596790D02*
G75*
G02*
X13869895Y-13596790I100000J0D01*
G01*
X14121148Y-13507321D02*
X14130672Y-13497798D01*
X14130672Y-13497798D02*
X14149720Y-13488274D01*
X14149720Y-13488274D02*
X14197339Y-13488274D01*
X14197339Y-13488274D02*
X14216386Y-13497798D01*
X14216386Y-13497798D02*
X14225910Y-13507321D01*
X14225910Y-13507321D02*
X14235434Y-13526369D01*
X14235434Y-13526369D02*
X14235434Y-13545417D01*
X14235434Y-13545417D02*
X14225910Y-13573988D01*
X14225910Y-13573988D02*
X14111625Y-13688274D01*
X14111625Y-13688274D02*
X14235434Y-13688274D01*
X14321148Y-13669226D02*
X14330672Y-13678750D01*
X14330672Y-13678750D02*
X14321148Y-13688274D01*
X14321148Y-13688274D02*
X14311625Y-13678750D01*
X14311625Y-13678750D02*
X14321148Y-13669226D01*
X14321148Y-13669226D02*
X14321148Y-13688274D01*
X14521148Y-13688274D02*
X14406863Y-13688274D01*
X14464005Y-13688274D02*
X14464005Y-13488274D01*
X14464005Y-13488274D02*
X14444958Y-13516845D01*
X14444958Y-13516845D02*
X14425910Y-13535893D01*
X14425910Y-13535893D02*
X14406863Y-13545417D01*
X14644958Y-13488274D02*
X14664006Y-13488274D01*
X14664006Y-13488274D02*
X14683053Y-13497798D01*
X14683053Y-13497798D02*
X14692577Y-13507321D01*
X14692577Y-13507321D02*
X14702101Y-13526369D01*
X14702101Y-13526369D02*
X14711625Y-13564464D01*
X14711625Y-13564464D02*
X14711625Y-13612083D01*
X14711625Y-13612083D02*
X14702101Y-13650178D01*
X14702101Y-13650178D02*
X14692577Y-13669226D01*
X14692577Y-13669226D02*
X14683053Y-13678750D01*
X14683053Y-13678750D02*
X14664006Y-13688274D01*
X14664006Y-13688274D02*
X14644958Y-13688274D01*
X14644958Y-13688274D02*
X14625910Y-13678750D01*
X14625910Y-13678750D02*
X14616386Y-13669226D01*
X14616386Y-13669226D02*
X14606863Y-13650178D01*
X14606863Y-13650178D02*
X14597339Y-13612083D01*
X14597339Y-13612083D02*
X14597339Y-13564464D01*
X14597339Y-13564464D02*
X14606863Y-13526369D01*
X14606863Y-13526369D02*
X14616386Y-13507321D01*
X14616386Y-13507321D02*
X14625910Y-13497798D01*
X14625910Y-13497798D02*
X14644958Y-13488274D01*
X14835434Y-13488274D02*
X14854482Y-13488274D01*
X14854482Y-13488274D02*
X14873529Y-13497798D01*
X14873529Y-13497798D02*
X14883053Y-13507321D01*
X14883053Y-13507321D02*
X14892577Y-13526369D01*
X14892577Y-13526369D02*
X14902101Y-13564464D01*
X14902101Y-13564464D02*
X14902101Y-13612083D01*
X14902101Y-13612083D02*
X14892577Y-13650178D01*
X14892577Y-13650178D02*
X14883053Y-13669226D01*
X14883053Y-13669226D02*
X14873529Y-13678750D01*
X14873529Y-13678750D02*
X14854482Y-13688274D01*
X14854482Y-13688274D02*
X14835434Y-13688274D01*
X14835434Y-13688274D02*
X14816386Y-13678750D01*
X14816386Y-13678750D02*
X14806863Y-13669226D01*
X14806863Y-13669226D02*
X14797339Y-13650178D01*
X14797339Y-13650178D02*
X14787815Y-13612083D01*
X14787815Y-13612083D02*
X14787815Y-13564464D01*
X14787815Y-13564464D02*
X14797339Y-13526369D01*
X14797339Y-13526369D02*
X14806863Y-13507321D01*
X14806863Y-13507321D02*
X14816386Y-13497798D01*
X14816386Y-13497798D02*
X14835434Y-13488274D01*
X14987815Y-13688274D02*
X14987815Y-13554940D01*
X14987815Y-13573988D02*
X14997339Y-13564464D01*
X14997339Y-13564464D02*
X15016386Y-13554940D01*
X15016386Y-13554940D02*
X15044958Y-13554940D01*
X15044958Y-13554940D02*
X15064006Y-13564464D01*
X15064006Y-13564464D02*
X15073529Y-13583512D01*
X15073529Y-13583512D02*
X15073529Y-13688274D01*
X15073529Y-13583512D02*
X15083053Y-13564464D01*
X15083053Y-13564464D02*
X15102101Y-13554940D01*
X15102101Y-13554940D02*
X15130672Y-13554940D01*
X15130672Y-13554940D02*
X15149720Y-13564464D01*
X15149720Y-13564464D02*
X15159244Y-13583512D01*
X15159244Y-13583512D02*
X15159244Y-13688274D01*
X15254482Y-13688274D02*
X15254482Y-13554940D01*
X15254482Y-13573988D02*
X15264006Y-13564464D01*
X15264006Y-13564464D02*
X15283053Y-13554940D01*
X15283053Y-13554940D02*
X15311625Y-13554940D01*
X15311625Y-13554940D02*
X15330672Y-13564464D01*
X15330672Y-13564464D02*
X15340196Y-13583512D01*
X15340196Y-13583512D02*
X15340196Y-13688274D01*
X15340196Y-13583512D02*
X15349720Y-13564464D01*
X15349720Y-13564464D02*
X15368767Y-13554940D01*
X15368767Y-13554940D02*
X15397339Y-13554940D01*
X15397339Y-13554940D02*
X15416387Y-13564464D01*
X15416387Y-13564464D02*
X15425910Y-13583512D01*
X15425910Y-13583512D02*
X15425910Y-13688274D01*
X15816387Y-13478750D02*
X15644958Y-13735893D01*
X16073529Y-13488274D02*
X16092577Y-13488274D01*
X16092577Y-13488274D02*
X16111625Y-13497798D01*
X16111625Y-13497798D02*
X16121149Y-13507321D01*
X16121149Y-13507321D02*
X16130672Y-13526369D01*
X16130672Y-13526369D02*
X16140196Y-13564464D01*
X16140196Y-13564464D02*
X16140196Y-13612083D01*
X16140196Y-13612083D02*
X16130672Y-13650178D01*
X16130672Y-13650178D02*
X16121149Y-13669226D01*
X16121149Y-13669226D02*
X16111625Y-13678750D01*
X16111625Y-13678750D02*
X16092577Y-13688274D01*
X16092577Y-13688274D02*
X16073529Y-13688274D01*
X16073529Y-13688274D02*
X16054482Y-13678750D01*
X16054482Y-13678750D02*
X16044958Y-13669226D01*
X16044958Y-13669226D02*
X16035434Y-13650178D01*
X16035434Y-13650178D02*
X16025910Y-13612083D01*
X16025910Y-13612083D02*
X16025910Y-13564464D01*
X16025910Y-13564464D02*
X16035434Y-13526369D01*
X16035434Y-13526369D02*
X16044958Y-13507321D01*
X16044958Y-13507321D02*
X16054482Y-13497798D01*
X16054482Y-13497798D02*
X16073529Y-13488274D01*
X16225910Y-13669226D02*
X16235434Y-13678750D01*
X16235434Y-13678750D02*
X16225910Y-13688274D01*
X16225910Y-13688274D02*
X16216387Y-13678750D01*
X16216387Y-13678750D02*
X16225910Y-13669226D01*
X16225910Y-13669226D02*
X16225910Y-13688274D01*
X16359244Y-13488274D02*
X16378291Y-13488274D01*
X16378291Y-13488274D02*
X16397339Y-13497798D01*
X16397339Y-13497798D02*
X16406863Y-13507321D01*
X16406863Y-13507321D02*
X16416387Y-13526369D01*
X16416387Y-13526369D02*
X16425910Y-13564464D01*
X16425910Y-13564464D02*
X16425910Y-13612083D01*
X16425910Y-13612083D02*
X16416387Y-13650178D01*
X16416387Y-13650178D02*
X16406863Y-13669226D01*
X16406863Y-13669226D02*
X16397339Y-13678750D01*
X16397339Y-13678750D02*
X16378291Y-13688274D01*
X16378291Y-13688274D02*
X16359244Y-13688274D01*
X16359244Y-13688274D02*
X16340196Y-13678750D01*
X16340196Y-13678750D02*
X16330672Y-13669226D01*
X16330672Y-13669226D02*
X16321149Y-13650178D01*
X16321149Y-13650178D02*
X16311625Y-13612083D01*
X16311625Y-13612083D02*
X16311625Y-13564464D01*
X16311625Y-13564464D02*
X16321149Y-13526369D01*
X16321149Y-13526369D02*
X16330672Y-13507321D01*
X16330672Y-13507321D02*
X16340196Y-13497798D01*
X16340196Y-13497798D02*
X16359244Y-13488274D01*
X16540196Y-13573988D02*
X16521149Y-13564464D01*
X16521149Y-13564464D02*
X16511625Y-13554940D01*
X16511625Y-13554940D02*
X16502101Y-13535893D01*
X16502101Y-13535893D02*
X16502101Y-13526369D01*
X16502101Y-13526369D02*
X16511625Y-13507321D01*
X16511625Y-13507321D02*
X16521149Y-13497798D01*
X16521149Y-13497798D02*
X16540196Y-13488274D01*
X16540196Y-13488274D02*
X16578291Y-13488274D01*
X16578291Y-13488274D02*
X16597339Y-13497798D01*
X16597339Y-13497798D02*
X16606863Y-13507321D01*
X16606863Y-13507321D02*
X16616387Y-13526369D01*
X16616387Y-13526369D02*
X16616387Y-13535893D01*
X16616387Y-13535893D02*
X16606863Y-13554940D01*
X16606863Y-13554940D02*
X16597339Y-13564464D01*
X16597339Y-13564464D02*
X16578291Y-13573988D01*
X16578291Y-13573988D02*
X16540196Y-13573988D01*
X16540196Y-13573988D02*
X16521149Y-13583512D01*
X16521149Y-13583512D02*
X16511625Y-13593036D01*
X16511625Y-13593036D02*
X16502101Y-13612083D01*
X16502101Y-13612083D02*
X16502101Y-13650178D01*
X16502101Y-13650178D02*
X16511625Y-13669226D01*
X16511625Y-13669226D02*
X16521149Y-13678750D01*
X16521149Y-13678750D02*
X16540196Y-13688274D01*
X16540196Y-13688274D02*
X16578291Y-13688274D01*
X16578291Y-13688274D02*
X16597339Y-13678750D01*
X16597339Y-13678750D02*
X16606863Y-13669226D01*
X16606863Y-13669226D02*
X16616387Y-13650178D01*
X16616387Y-13650178D02*
X16616387Y-13612083D01*
X16616387Y-13612083D02*
X16606863Y-13593036D01*
X16606863Y-13593036D02*
X16597339Y-13583512D01*
X16597339Y-13583512D02*
X16578291Y-13573988D01*
X16692577Y-13507321D02*
X16702101Y-13497798D01*
X16702101Y-13497798D02*
X16721149Y-13488274D01*
X16721149Y-13488274D02*
X16768768Y-13488274D01*
X16768768Y-13488274D02*
X16787815Y-13497798D01*
X16787815Y-13497798D02*
X16797339Y-13507321D01*
X16797339Y-13507321D02*
X16806863Y-13526369D01*
X16806863Y-13526369D02*
X16806863Y-13545417D01*
X16806863Y-13545417D02*
X16797339Y-13573988D01*
X16797339Y-13573988D02*
X16683053Y-13688274D01*
X16683053Y-13688274D02*
X16806863Y-13688274D01*
X16873530Y-13488274D02*
X17006863Y-13488274D01*
X17006863Y-13488274D02*
X16921149Y-13688274D01*
X17073530Y-13488274D02*
X17073530Y-13526369D01*
X17149720Y-13488274D02*
X17149720Y-13526369D01*
X17444958Y-13764464D02*
X17435434Y-13754940D01*
X17435434Y-13754940D02*
X17416387Y-13726369D01*
X17416387Y-13726369D02*
X17406863Y-13707321D01*
X17406863Y-13707321D02*
X17397339Y-13678750D01*
X17397339Y-13678750D02*
X17387815Y-13631131D01*
X17387815Y-13631131D02*
X17387815Y-13593036D01*
X17387815Y-13593036D02*
X17397339Y-13545417D01*
X17397339Y-13545417D02*
X17406863Y-13516845D01*
X17406863Y-13516845D02*
X17416387Y-13497798D01*
X17416387Y-13497798D02*
X17435434Y-13469226D01*
X17435434Y-13469226D02*
X17444958Y-13459702D01*
X17606863Y-13554940D02*
X17606863Y-13688274D01*
X17559244Y-13478750D02*
X17511625Y-13621607D01*
X17511625Y-13621607D02*
X17635434Y-13621607D01*
X17864006Y-13688274D02*
X17864006Y-13488274D01*
X17949720Y-13688274D02*
X17949720Y-13583512D01*
X17949720Y-13583512D02*
X17940196Y-13564464D01*
X17940196Y-13564464D02*
X17921149Y-13554940D01*
X17921149Y-13554940D02*
X17892577Y-13554940D01*
X17892577Y-13554940D02*
X17873530Y-13564464D01*
X17873530Y-13564464D02*
X17864006Y-13573988D01*
X18073530Y-13688274D02*
X18054482Y-13678750D01*
X18054482Y-13678750D02*
X18044958Y-13669226D01*
X18044958Y-13669226D02*
X18035435Y-13650178D01*
X18035435Y-13650178D02*
X18035435Y-13593036D01*
X18035435Y-13593036D02*
X18044958Y-13573988D01*
X18044958Y-13573988D02*
X18054482Y-13564464D01*
X18054482Y-13564464D02*
X18073530Y-13554940D01*
X18073530Y-13554940D02*
X18102101Y-13554940D01*
X18102101Y-13554940D02*
X18121149Y-13564464D01*
X18121149Y-13564464D02*
X18130673Y-13573988D01*
X18130673Y-13573988D02*
X18140196Y-13593036D01*
X18140196Y-13593036D02*
X18140196Y-13650178D01*
X18140196Y-13650178D02*
X18130673Y-13669226D01*
X18130673Y-13669226D02*
X18121149Y-13678750D01*
X18121149Y-13678750D02*
X18102101Y-13688274D01*
X18102101Y-13688274D02*
X18073530Y-13688274D01*
X18254482Y-13688274D02*
X18235435Y-13678750D01*
X18235435Y-13678750D02*
X18225911Y-13659702D01*
X18225911Y-13659702D02*
X18225911Y-13488274D01*
X18406863Y-13678750D02*
X18387816Y-13688274D01*
X18387816Y-13688274D02*
X18349720Y-13688274D01*
X18349720Y-13688274D02*
X18330673Y-13678750D01*
X18330673Y-13678750D02*
X18321149Y-13659702D01*
X18321149Y-13659702D02*
X18321149Y-13583512D01*
X18321149Y-13583512D02*
X18330673Y-13564464D01*
X18330673Y-13564464D02*
X18349720Y-13554940D01*
X18349720Y-13554940D02*
X18387816Y-13554940D01*
X18387816Y-13554940D02*
X18406863Y-13564464D01*
X18406863Y-13564464D02*
X18416387Y-13583512D01*
X18416387Y-13583512D02*
X18416387Y-13602559D01*
X18416387Y-13602559D02*
X18321149Y-13621607D01*
X18492577Y-13678750D02*
X18511625Y-13688274D01*
X18511625Y-13688274D02*
X18549720Y-13688274D01*
X18549720Y-13688274D02*
X18568768Y-13678750D01*
X18568768Y-13678750D02*
X18578292Y-13659702D01*
X18578292Y-13659702D02*
X18578292Y-13650178D01*
X18578292Y-13650178D02*
X18568768Y-13631131D01*
X18568768Y-13631131D02*
X18549720Y-13621607D01*
X18549720Y-13621607D02*
X18521149Y-13621607D01*
X18521149Y-13621607D02*
X18502101Y-13612083D01*
X18502101Y-13612083D02*
X18492577Y-13593036D01*
X18492577Y-13593036D02*
X18492577Y-13583512D01*
X18492577Y-13583512D02*
X18502101Y-13564464D01*
X18502101Y-13564464D02*
X18521149Y-13554940D01*
X18521149Y-13554940D02*
X18549720Y-13554940D01*
X18549720Y-13554940D02*
X18568768Y-13564464D01*
X18644958Y-13764464D02*
X18654482Y-13754940D01*
X18654482Y-13754940D02*
X18673530Y-13726369D01*
X18673530Y-13726369D02*
X18683054Y-13707321D01*
X18683054Y-13707321D02*
X18692577Y-13678750D01*
X18692577Y-13678750D02*
X18702101Y-13631131D01*
X18702101Y-13631131D02*
X18702101Y-13593036D01*
X18702101Y-13593036D02*
X18692577Y-13545417D01*
X18692577Y-13545417D02*
X18683054Y-13516845D01*
X18683054Y-13516845D02*
X18673530Y-13497798D01*
X18673530Y-13497798D02*
X18654482Y-13469226D01*
X18654482Y-13469226D02*
X18644958Y-13459702D01*
X19006863Y-13764464D02*
X18997339Y-13754940D01*
X18997339Y-13754940D02*
X18978292Y-13726369D01*
X18978292Y-13726369D02*
X18968768Y-13707321D01*
X18968768Y-13707321D02*
X18959244Y-13678750D01*
X18959244Y-13678750D02*
X18949720Y-13631131D01*
X18949720Y-13631131D02*
X18949720Y-13593036D01*
X18949720Y-13593036D02*
X18959244Y-13545417D01*
X18959244Y-13545417D02*
X18968768Y-13516845D01*
X18968768Y-13516845D02*
X18978292Y-13497798D01*
X18978292Y-13497798D02*
X18997339Y-13469226D01*
X18997339Y-13469226D02*
X19006863Y-13459702D01*
X19083054Y-13554940D02*
X19083054Y-13688274D01*
X19083054Y-13573988D02*
X19092577Y-13564464D01*
X19092577Y-13564464D02*
X19111625Y-13554940D01*
X19111625Y-13554940D02*
X19140197Y-13554940D01*
X19140197Y-13554940D02*
X19159244Y-13564464D01*
X19159244Y-13564464D02*
X19168768Y-13583512D01*
X19168768Y-13583512D02*
X19168768Y-13688274D01*
X19292577Y-13688274D02*
X19273530Y-13678750D01*
X19273530Y-13678750D02*
X19264006Y-13669226D01*
X19264006Y-13669226D02*
X19254482Y-13650178D01*
X19254482Y-13650178D02*
X19254482Y-13593036D01*
X19254482Y-13593036D02*
X19264006Y-13573988D01*
X19264006Y-13573988D02*
X19273530Y-13564464D01*
X19273530Y-13564464D02*
X19292577Y-13554940D01*
X19292577Y-13554940D02*
X19321149Y-13554940D01*
X19321149Y-13554940D02*
X19340197Y-13564464D01*
X19340197Y-13564464D02*
X19349720Y-13573988D01*
X19349720Y-13573988D02*
X19359244Y-13593036D01*
X19359244Y-13593036D02*
X19359244Y-13650178D01*
X19359244Y-13650178D02*
X19349720Y-13669226D01*
X19349720Y-13669226D02*
X19340197Y-13678750D01*
X19340197Y-13678750D02*
X19321149Y-13688274D01*
X19321149Y-13688274D02*
X19292577Y-13688274D01*
X19416387Y-13554940D02*
X19492577Y-13554940D01*
X19444958Y-13488274D02*
X19444958Y-13659702D01*
X19444958Y-13659702D02*
X19454482Y-13678750D01*
X19454482Y-13678750D02*
X19473530Y-13688274D01*
X19473530Y-13688274D02*
X19492577Y-13688274D01*
X19711625Y-13554940D02*
X19711625Y-13754940D01*
X19711625Y-13564464D02*
X19730673Y-13554940D01*
X19730673Y-13554940D02*
X19768768Y-13554940D01*
X19768768Y-13554940D02*
X19787816Y-13564464D01*
X19787816Y-13564464D02*
X19797339Y-13573988D01*
X19797339Y-13573988D02*
X19806863Y-13593036D01*
X19806863Y-13593036D02*
X19806863Y-13650178D01*
X19806863Y-13650178D02*
X19797339Y-13669226D01*
X19797339Y-13669226D02*
X19787816Y-13678750D01*
X19787816Y-13678750D02*
X19768768Y-13688274D01*
X19768768Y-13688274D02*
X19730673Y-13688274D01*
X19730673Y-13688274D02*
X19711625Y-13678750D01*
X19921149Y-13688274D02*
X19902101Y-13678750D01*
X19902101Y-13678750D02*
X19892578Y-13659702D01*
X19892578Y-13659702D02*
X19892578Y-13488274D01*
X20083054Y-13688274D02*
X20083054Y-13583512D01*
X20083054Y-13583512D02*
X20073530Y-13564464D01*
X20073530Y-13564464D02*
X20054482Y-13554940D01*
X20054482Y-13554940D02*
X20016387Y-13554940D01*
X20016387Y-13554940D02*
X19997339Y-13564464D01*
X20083054Y-13678750D02*
X20064006Y-13688274D01*
X20064006Y-13688274D02*
X20016387Y-13688274D01*
X20016387Y-13688274D02*
X19997339Y-13678750D01*
X19997339Y-13678750D02*
X19987816Y-13659702D01*
X19987816Y-13659702D02*
X19987816Y-13640655D01*
X19987816Y-13640655D02*
X19997339Y-13621607D01*
X19997339Y-13621607D02*
X20016387Y-13612083D01*
X20016387Y-13612083D02*
X20064006Y-13612083D01*
X20064006Y-13612083D02*
X20083054Y-13602559D01*
X20149720Y-13554940D02*
X20225911Y-13554940D01*
X20178292Y-13488274D02*
X20178292Y-13659702D01*
X20178292Y-13659702D02*
X20187816Y-13678750D01*
X20187816Y-13678750D02*
X20206863Y-13688274D01*
X20206863Y-13688274D02*
X20225911Y-13688274D01*
X20368768Y-13678750D02*
X20349720Y-13688274D01*
X20349720Y-13688274D02*
X20311625Y-13688274D01*
X20311625Y-13688274D02*
X20292578Y-13678750D01*
X20292578Y-13678750D02*
X20283054Y-13659702D01*
X20283054Y-13659702D02*
X20283054Y-13583512D01*
X20283054Y-13583512D02*
X20292578Y-13564464D01*
X20292578Y-13564464D02*
X20311625Y-13554940D01*
X20311625Y-13554940D02*
X20349720Y-13554940D01*
X20349720Y-13554940D02*
X20368768Y-13564464D01*
X20368768Y-13564464D02*
X20378292Y-13583512D01*
X20378292Y-13583512D02*
X20378292Y-13602559D01*
X20378292Y-13602559D02*
X20283054Y-13621607D01*
X20549720Y-13688274D02*
X20549720Y-13488274D01*
X20549720Y-13678750D02*
X20530673Y-13688274D01*
X20530673Y-13688274D02*
X20492578Y-13688274D01*
X20492578Y-13688274D02*
X20473530Y-13678750D01*
X20473530Y-13678750D02*
X20464006Y-13669226D01*
X20464006Y-13669226D02*
X20454482Y-13650178D01*
X20454482Y-13650178D02*
X20454482Y-13593036D01*
X20454482Y-13593036D02*
X20464006Y-13573988D01*
X20464006Y-13573988D02*
X20473530Y-13564464D01*
X20473530Y-13564464D02*
X20492578Y-13554940D01*
X20492578Y-13554940D02*
X20530673Y-13554940D01*
X20530673Y-13554940D02*
X20549720Y-13564464D01*
X20625911Y-13764464D02*
X20635435Y-13754940D01*
X20635435Y-13754940D02*
X20654482Y-13726369D01*
X20654482Y-13726369D02*
X20664006Y-13707321D01*
X20664006Y-13707321D02*
X20673530Y-13678750D01*
X20673530Y-13678750D02*
X20683054Y-13631131D01*
X20683054Y-13631131D02*
X20683054Y-13593036D01*
X20683054Y-13593036D02*
X20673530Y-13545417D01*
X20673530Y-13545417D02*
X20664006Y-13516845D01*
X20664006Y-13516845D02*
X20654482Y-13497798D01*
X20654482Y-13497798D02*
X20635435Y-13469226D01*
X20635435Y-13469226D02*
X20625911Y-13459702D01*
M02*
