G04 #@! TF.GenerationSoftware,KiCad,Pcbnew,9.0.3*
G04 #@! TF.CreationDate,2025-08-26T10:07:48-04:00*
G04 #@! TF.ProjectId,Water_controller_board,57617465-725f-4636-9f6e-74726f6c6c65,rev?*
G04 #@! TF.SameCoordinates,Original*
G04 #@! TF.FileFunction,Soldermask,Bot*
G04 #@! TF.FilePolarity,Negative*
%FSLAX46Y46*%
G04 Gerber Fmt 4.6, Leading zero omitted, Abs format (unit mm)*
G04 Created by KiCad (PCBNEW 9.0.3) date 2025-08-26 10:07:48*
%MOMM*%
%LPD*%
G01*
G04 APERTURE LIST*
G04 Aperture macros list*
%AMRoundRect*
0 Rectangle with rounded corners*
0 $1 Rounding radius*
0 $2 $3 $4 $5 $6 $7 $8 $9 X,Y pos of 4 corners*
0 Add a 4 corners polygon primitive as box body*
4,1,4,$2,$3,$4,$5,$6,$7,$8,$9,$2,$3,0*
0 Add four circle primitives for the rounded corners*
1,1,$1+$1,$2,$3*
1,1,$1+$1,$4,$5*
1,1,$1+$1,$6,$7*
1,1,$1+$1,$8,$9*
0 Add four rect primitives between the rounded corners*
20,1,$1+$1,$2,$3,$4,$5,0*
20,1,$1+$1,$4,$5,$6,$7,0*
20,1,$1+$1,$6,$7,$8,$9,0*
20,1,$1+$1,$8,$9,$2,$3,0*%
G04 Aperture macros list end*
%ADD10C,2.100000*%
%ADD11C,2.000000*%
%ADD12R,1.700000X1.700000*%
%ADD13O,1.700000X1.700000*%
%ADD14RoundRect,0.102000X-0.654000X0.654000X-0.654000X-0.654000X0.654000X-0.654000X0.654000X0.654000X0*%
%ADD15C,1.512000*%
%ADD16C,1.500000*%
%ADD17O,1.800000X1.200000*%
%ADD18RoundRect,0.102000X-0.654000X-0.654000X0.654000X-0.654000X0.654000X0.654000X-0.654000X0.654000X0*%
%ADD19RoundRect,0.102000X-0.604000X-0.604000X0.604000X-0.604000X0.604000X0.604000X-0.604000X0.604000X0*%
%ADD20C,1.412000*%
%ADD21RoundRect,0.102000X0.654000X-0.654000X0.654000X0.654000X-0.654000X0.654000X-0.654000X-0.654000X0*%
G04 APERTURE END LIST*
D10*
G04 #@! TO.C,REF\u002A\u002A*
X209748954Y-58877900D03*
G04 #@! TD*
G04 #@! TO.C,REF\u002A\u002A*
X142248954Y-59377900D03*
G04 #@! TD*
D11*
G04 #@! TO.C,Rly2*
X170356254Y-101955200D03*
X180490854Y-102006000D03*
X175334654Y-99491400D03*
X170330854Y-112191400D03*
X180516254Y-112191400D03*
G04 #@! TD*
D12*
G04 #@! TO.C,Conn1*
X142083954Y-69422900D03*
D13*
X144623954Y-69422900D03*
X142083954Y-71962900D03*
X144623954Y-71962900D03*
X142083954Y-74502900D03*
X144623954Y-74502900D03*
G04 #@! TD*
D14*
G04 #@! TO.C,Conn4*
X148759656Y-108427900D03*
D15*
X148759656Y-110427900D03*
X148759656Y-112427900D03*
G04 #@! TD*
D16*
G04 #@! TO.C,J1*
X207578954Y-84817900D03*
X207578954Y-80817900D03*
D17*
X201578954Y-80817900D03*
X201578954Y-84817900D03*
X201578954Y-82817900D03*
G04 #@! TD*
D18*
G04 #@! TO.C,Conn7*
X171748954Y-117165400D03*
D15*
X173748954Y-117165400D03*
X175748954Y-117165400D03*
G04 #@! TD*
D18*
G04 #@! TO.C,Conn2*
X152748954Y-117185400D03*
D15*
X154748954Y-117185400D03*
X156748954Y-117185400D03*
G04 #@! TD*
D10*
G04 #@! TO.C,REF\u002A\u002A*
X142248954Y-123377900D03*
G04 #@! TD*
D19*
G04 #@! TO.C,Conn5*
X191732164Y-117177900D03*
D20*
X193732164Y-117177900D03*
X195732164Y-117177900D03*
X197732164Y-117177900D03*
G04 #@! TD*
D18*
G04 #@! TO.C,Conn8*
X181248954Y-117165400D03*
D15*
X183248954Y-117165400D03*
X185248954Y-117165400D03*
G04 #@! TD*
D10*
G04 #@! TO.C,REF\u002A\u002A*
X209748954Y-123377900D03*
G04 #@! TD*
D14*
G04 #@! TO.C,Conn3*
X148898954Y-98877900D03*
D15*
X148898954Y-100877900D03*
X148898954Y-102877900D03*
G04 #@! TD*
D11*
G04 #@! TO.C,Rly3*
X185306254Y-102005200D03*
X195440854Y-102056000D03*
X190284654Y-99541400D03*
X185280854Y-112241400D03*
X195466254Y-112241400D03*
G04 #@! TD*
D21*
G04 #@! TO.C,Conn9*
X203661454Y-71977900D03*
D15*
X203661454Y-69977900D03*
X203661454Y-67977900D03*
G04 #@! TD*
D18*
G04 #@! TO.C,Conn6*
X162248954Y-117177900D03*
D15*
X164248954Y-117177900D03*
X166248954Y-117177900D03*
G04 #@! TD*
D11*
G04 #@! TO.C,Rly1*
X155306254Y-102012276D03*
X165440854Y-102063076D03*
X160284654Y-99548476D03*
X155280854Y-112248476D03*
X165466254Y-112248476D03*
G04 #@! TD*
G04 #@! TO.C,Rly4*
X200448954Y-101997900D03*
X210583554Y-102048700D03*
X205427354Y-99534100D03*
X200423554Y-112234100D03*
X210608954Y-112234100D03*
G04 #@! TD*
M02*
