G04 #@! TF.GenerationSoftware,KiCad,Pcbnew,9.0.3*
G04 #@! TF.CreationDate,2025-08-26T10:07:48-04:00*
G04 #@! TF.ProjectId,Water_controller_board,57617465-725f-4636-9f6e-74726f6c6c65,rev?*
G04 #@! TF.SameCoordinates,Original*
G04 #@! TF.FileFunction,Copper,L2,Bot*
G04 #@! TF.FilePolarity,Positive*
%FSLAX46Y46*%
G04 Gerber Fmt 4.6, Leading zero omitted, Abs format (unit mm)*
G04 Created by KiCad (PCBNEW 9.0.3) date 2025-08-26 10:07:48*
%MOMM*%
%LPD*%
G01*
G04 APERTURE LIST*
G04 #@! TA.AperFunction,ComponentPad*
%ADD10C,2.000000*%
G04 #@! TD*
G04 #@! TA.AperFunction,ComponentPad*
%ADD11R,1.700000X1.700000*%
G04 #@! TD*
G04 #@! TA.AperFunction,ComponentPad*
%ADD12O,1.700000X1.700000*%
G04 #@! TD*
G04 #@! TA.AperFunction,ComponentPad*
%ADD13R,1.308000X1.308000*%
G04 #@! TD*
G04 #@! TA.AperFunction,ComponentPad*
%ADD14C,1.308000*%
G04 #@! TD*
G04 #@! TA.AperFunction,ComponentPad*
%ADD15O,1.800000X1.200000*%
G04 #@! TD*
G04 #@! TA.AperFunction,ComponentPad*
%ADD16R,1.208000X1.208000*%
G04 #@! TD*
G04 #@! TA.AperFunction,ComponentPad*
%ADD17C,1.208000*%
G04 #@! TD*
G04 #@! TA.AperFunction,ViaPad*
%ADD18C,1.000000*%
G04 #@! TD*
G04 #@! TA.AperFunction,Conductor*
%ADD19C,0.250000*%
G04 #@! TD*
G04 #@! TA.AperFunction,Conductor*
%ADD20C,1.000000*%
G04 #@! TD*
G04 #@! TA.AperFunction,Conductor*
%ADD21C,0.800000*%
G04 #@! TD*
G04 #@! TA.AperFunction,Conductor*
%ADD22C,0.400000*%
G04 #@! TD*
G04 #@! TA.AperFunction,Conductor*
%ADD23C,0.500000*%
G04 #@! TD*
G04 #@! TA.AperFunction,Conductor*
%ADD24C,0.254000*%
G04 #@! TD*
G04 APERTURE END LIST*
D10*
G04 #@! TO.P,Rly2,1,+*
G04 #@! TO.N,/Vdc*
X170356254Y-101955200D03*
G04 #@! TO.P,Rly2,2,-*
G04 #@! TO.N,Net-(D6-A)*
X180490854Y-102006000D03*
G04 #@! TO.P,Rly2,3,C*
G04 #@! TO.N,/Vdc*
X175334654Y-99491400D03*
G04 #@! TO.P,Rly2,4,NO*
G04 #@! TO.N,Net-(Rly2-NO)*
X170330854Y-112191400D03*
G04 #@! TO.P,Rly2,5,NC*
G04 #@! TO.N,Net-(Rly2-NC)*
X180516254Y-112191400D03*
G04 #@! TD*
D11*
G04 #@! TO.P,Conn1,1,1*
G04 #@! TO.N,/EN*
X142083954Y-69422900D03*
D12*
G04 #@! TO.P,Conn1,2,2*
G04 #@! TO.N,unconnected-(Conn1-Pad2)*
X144623954Y-69422900D03*
G04 #@! TO.P,Conn1,3,3*
G04 #@! TO.N,/Tx*
X142083954Y-71962900D03*
G04 #@! TO.P,Conn1,4,4*
G04 #@! TO.N,GND*
X144623954Y-71962900D03*
G04 #@! TO.P,Conn1,5,5*
G04 #@! TO.N,/Rx*
X142083954Y-74502900D03*
G04 #@! TO.P,Conn1,6,6*
G04 #@! TO.N,/AUX1*
X144623954Y-74502900D03*
G04 #@! TD*
D13*
G04 #@! TO.P,Conn4,1,1*
G04 #@! TO.N,GND*
X148759656Y-108427900D03*
D14*
G04 #@! TO.P,Conn4,2,2*
G04 #@! TO.N,/Sensor2*
X148759656Y-110427900D03*
G04 #@! TO.P,Conn4,3,3*
G04 #@! TO.N,/+3V3*
X148759656Y-112427900D03*
G04 #@! TD*
D15*
G04 #@! TO.P,J1,2*
G04 #@! TO.N,GND*
X201578954Y-80817900D03*
G04 #@! TO.P,J1,3*
X201578954Y-84817900D03*
G04 #@! TO.P,J1,4*
G04 #@! TO.N,/+12V*
X201578954Y-82817900D03*
G04 #@! TD*
D13*
G04 #@! TO.P,Conn7,1,1*
G04 #@! TO.N,Net-(Rly3-NC)*
X171748954Y-117165400D03*
D14*
G04 #@! TO.P,Conn7,2,2*
G04 #@! TO.N,Net-(Rly3-C)*
X173748954Y-117165400D03*
G04 #@! TO.P,Conn7,3,3*
G04 #@! TO.N,Net-(Rly3-NO)*
X175748954Y-117165400D03*
G04 #@! TD*
D13*
G04 #@! TO.P,Conn2,1,1*
G04 #@! TO.N,GND*
X152748954Y-117185400D03*
D14*
G04 #@! TO.P,Conn2,2,2*
G04 #@! TO.N,Net-(Rly1-NC)*
X154748954Y-117185400D03*
G04 #@! TO.P,Conn2,3,3*
G04 #@! TO.N,Net-(Rly1-NO)*
X156748954Y-117185400D03*
G04 #@! TD*
D16*
G04 #@! TO.P,Conn5,1,1*
G04 #@! TO.N,/Vdc*
X191732164Y-117177900D03*
D17*
G04 #@! TO.P,Conn5,2,2*
G04 #@! TO.N,/WTR*
X193732164Y-117177900D03*
G04 #@! TO.P,Conn5,3,3*
G04 #@! TO.N,GND*
X195732164Y-117177900D03*
G04 #@! TO.P,Conn5,4,4*
X197732164Y-117177900D03*
G04 #@! TD*
D13*
G04 #@! TO.P,Conn8,1,1*
G04 #@! TO.N,Net-(Rly4-NC)*
X181248954Y-117165400D03*
D14*
G04 #@! TO.P,Conn8,2,2*
G04 #@! TO.N,Net-(Rly4-C)*
X183248954Y-117165400D03*
G04 #@! TO.P,Conn8,3,3*
G04 #@! TO.N,Net-(Rly4-NO)*
X185248954Y-117165400D03*
G04 #@! TD*
D13*
G04 #@! TO.P,Conn3,1,1*
G04 #@! TO.N,GND*
X148898954Y-98877900D03*
D14*
G04 #@! TO.P,Conn3,2,2*
G04 #@! TO.N,/Sensor1*
X148898954Y-100877900D03*
G04 #@! TO.P,Conn3,3,3*
G04 #@! TO.N,/+3V3*
X148898954Y-102877900D03*
G04 #@! TD*
D10*
G04 #@! TO.P,Rly3,1,+*
G04 #@! TO.N,/Vdc*
X185306254Y-102005200D03*
G04 #@! TO.P,Rly3,2,-*
G04 #@! TO.N,Net-(D8-A)*
X195440854Y-102056000D03*
G04 #@! TO.P,Rly3,3,C*
G04 #@! TO.N,Net-(Rly3-C)*
X190284654Y-99541400D03*
G04 #@! TO.P,Rly3,4,NO*
G04 #@! TO.N,Net-(Rly3-NO)*
X185280854Y-112241400D03*
G04 #@! TO.P,Rly3,5,NC*
G04 #@! TO.N,Net-(Rly3-NC)*
X195466254Y-112241400D03*
G04 #@! TD*
D13*
G04 #@! TO.P,Conn9,1,1*
G04 #@! TO.N,GND*
X203661454Y-71977900D03*
D14*
G04 #@! TO.P,Conn9,2,2*
G04 #@! TO.N,/Temp*
X203661454Y-69977900D03*
G04 #@! TO.P,Conn9,3,3*
G04 #@! TO.N,/+3V3*
X203661454Y-67977900D03*
G04 #@! TD*
D13*
G04 #@! TO.P,Conn6,1,1*
G04 #@! TO.N,GND*
X162248954Y-117177900D03*
D14*
G04 #@! TO.P,Conn6,2,2*
G04 #@! TO.N,Net-(Rly2-NC)*
X164248954Y-117177900D03*
G04 #@! TO.P,Conn6,3,3*
G04 #@! TO.N,Net-(Rly2-NO)*
X166248954Y-117177900D03*
G04 #@! TD*
D10*
G04 #@! TO.P,Rly1,1,+*
G04 #@! TO.N,/Vdc*
X155306254Y-102012276D03*
G04 #@! TO.P,Rly1,2,-*
G04 #@! TO.N,Net-(D1-A)*
X165440854Y-102063076D03*
G04 #@! TO.P,Rly1,3,C*
G04 #@! TO.N,/Vdc*
X160284654Y-99548476D03*
G04 #@! TO.P,Rly1,4,NO*
G04 #@! TO.N,Net-(Rly1-NO)*
X155280854Y-112248476D03*
G04 #@! TO.P,Rly1,5,NC*
G04 #@! TO.N,Net-(Rly1-NC)*
X165466254Y-112248476D03*
G04 #@! TD*
G04 #@! TO.P,Rly4,1,+*
G04 #@! TO.N,/Vdc*
X200448954Y-101997900D03*
G04 #@! TO.P,Rly4,2,-*
G04 #@! TO.N,Net-(D10-A)*
X210583554Y-102048700D03*
G04 #@! TO.P,Rly4,3,C*
G04 #@! TO.N,Net-(Rly4-C)*
X205427354Y-99534100D03*
G04 #@! TO.P,Rly4,4,NO*
G04 #@! TO.N,Net-(Rly4-NO)*
X200423554Y-112234100D03*
G04 #@! TO.P,Rly4,5,NC*
G04 #@! TO.N,Net-(Rly4-NC)*
X210608954Y-112234100D03*
G04 #@! TD*
D18*
G04 #@! TO.N,GND*
X164123954Y-79627900D03*
X162414954Y-81015900D03*
X165773954Y-79652900D03*
X162414954Y-79618900D03*
X165748954Y-81027900D03*
X164173954Y-81002900D03*
G04 #@! TO.N,Net-(U3-SW)*
X159747954Y-86095900D03*
X168398954Y-79877900D03*
X156788954Y-86127900D03*
X167448954Y-82802900D03*
X158328954Y-86607900D03*
G04 #@! TO.N,/EN*
X150730954Y-76443900D03*
X147023954Y-69302900D03*
X150723954Y-69402900D03*
G04 #@! TO.N,/+3V3*
X168129954Y-93715900D03*
X191878954Y-93588900D03*
X190528954Y-71867900D03*
X154540954Y-63362900D03*
X204650837Y-95673782D03*
X170769954Y-89497900D03*
X162098954Y-93837900D03*
X173866318Y-66008536D03*
X177019954Y-93588900D03*
X190528954Y-67397900D03*
G04 #@! TO.N,/RST*
X152908954Y-91087900D03*
X154344954Y-89143900D03*
X164328954Y-89177900D03*
X172193954Y-67934900D03*
G04 #@! TO.N,/Tx*
X168510954Y-73903900D03*
G04 #@! TO.N,/Rx*
X168510954Y-72379900D03*
G04 #@! TO.N,/Sensor1*
X149611275Y-72394536D03*
G04 #@! TO.N,/Sensor2*
X154540954Y-75427900D03*
X155363954Y-72357900D03*
X151778954Y-104367900D03*
X166128954Y-69397900D03*
G04 #@! TO.N,/WTR*
X174748954Y-64377900D03*
X179642318Y-63301264D03*
G04 #@! TO.N,Net-(D1-A)*
X159808954Y-96887900D03*
G04 #@! TO.N,Net-(D2-PadC)*
X186768954Y-62057900D03*
X186768954Y-66877900D03*
G04 #@! TO.N,/Vdc*
X178543954Y-67897900D03*
X192318954Y-114627900D03*
X179368954Y-76967900D03*
G04 #@! TO.N,Net-(D6-A)*
X175248954Y-96764100D03*
G04 #@! TO.N,/LED*
X162158954Y-75307900D03*
X158328954Y-68287900D03*
X154768954Y-68287900D03*
X173468954Y-74137900D03*
G04 #@! TO.N,/Valve1*
X157207954Y-75427900D03*
X160248954Y-90730900D03*
G04 #@! TO.N,/Valve2*
X175568954Y-90602902D03*
X173408952Y-76625902D03*
G04 #@! TO.N,/Temp*
X185648954Y-69977900D03*
X181308954Y-68347900D03*
G04 #@! TO.N,/AUX1*
X154540954Y-73903900D03*
X188195954Y-92699900D03*
X176308954Y-78507900D03*
X153048954Y-83202900D03*
X166605954Y-77459900D03*
G04 #@! TO.N,Net-(D8-A)*
X190152754Y-96767900D03*
G04 #@! TO.N,Net-(D10-A)*
X204973954Y-96834100D03*
G04 #@! TO.N,/AUX2*
X154698954Y-70837900D03*
X168510954Y-77459900D03*
X203068954Y-92337900D03*
X177398954Y-77467900D03*
G04 #@! TD*
D19*
G04 #@! TO.N,GND*
X148759656Y-108427900D02*
X152748954Y-112417198D01*
X152748954Y-118597900D02*
X154438954Y-120287900D01*
X148759656Y-108427900D02*
X148759656Y-107888602D01*
X159138954Y-120287900D02*
X162248954Y-117177900D01*
X195732164Y-117177900D02*
X197732164Y-117177900D01*
X147198954Y-100577900D02*
X148898954Y-98877900D01*
X162248954Y-117177900D02*
X165468954Y-120397900D01*
X147198954Y-106327900D02*
X147198954Y-100577900D01*
X152748954Y-112417198D02*
X152748954Y-118597900D01*
X154438954Y-120287900D02*
X159138954Y-120287900D01*
X192512164Y-120397900D02*
X195732164Y-117177900D01*
X148759656Y-107888602D02*
X147198954Y-106327900D01*
X165468954Y-120397900D02*
X192512164Y-120397900D01*
D20*
G04 #@! TO.N,Net-(U3-SW)*
X161398954Y-85714900D02*
X161017954Y-86095900D01*
X161017954Y-86095900D02*
X159747954Y-86095900D01*
X161398954Y-83682900D02*
X161398954Y-85714900D01*
D21*
X157268954Y-86607900D02*
X156788954Y-86127900D01*
X159747954Y-86095900D02*
X158840954Y-86095900D01*
X158328954Y-86607900D02*
X157268954Y-86607900D01*
D20*
X167494954Y-82756900D02*
X167494954Y-80781900D01*
X167494954Y-80781900D02*
X168398954Y-79877900D01*
D21*
X167448954Y-82802900D02*
X167494954Y-82756900D01*
D20*
X167448954Y-82802900D02*
X166949954Y-83301900D01*
X166949954Y-83301900D02*
X161779954Y-83301900D01*
D21*
X158840954Y-86095900D02*
X158328954Y-86607900D01*
D20*
X161779954Y-83301900D02*
X161398954Y-83682900D01*
D19*
G04 #@! TO.N,/EN*
X150730954Y-70973595D02*
X150730954Y-76443900D01*
X150723954Y-69402900D02*
X150652954Y-69331900D01*
X150723954Y-69402900D02*
X150723954Y-70966595D01*
X150652954Y-69331900D02*
X147052954Y-69331900D01*
X150723954Y-70966595D02*
X150730954Y-70973595D01*
X147052954Y-69331900D02*
X147023954Y-69302900D01*
G04 #@! TO.N,/+3V3*
X162098954Y-93837900D02*
X162220954Y-93715900D01*
D22*
X204650837Y-95673782D02*
X202565955Y-93588900D01*
X191789954Y-93677900D02*
X177108954Y-93677900D01*
X168129954Y-91926900D02*
X168129954Y-93715900D01*
X191878954Y-93588900D02*
X191789954Y-93677900D01*
X170558954Y-89497900D02*
X168129954Y-91926900D01*
D19*
X190528954Y-71867900D02*
X190528954Y-67397900D01*
D22*
X202565955Y-93588900D02*
X191878954Y-93588900D01*
D23*
X171177954Y-63362900D02*
X173844954Y-66029900D01*
D22*
X177108954Y-93677900D02*
X177019954Y-93588900D01*
X170769954Y-89497900D02*
X170558954Y-89497900D01*
D23*
X154540954Y-63362900D02*
X171177954Y-63362900D01*
D22*
X162220954Y-93715900D02*
X168129954Y-93715900D01*
D19*
G04 #@! TO.N,/RST*
X164328954Y-89177900D02*
X164362954Y-89143900D01*
X164362954Y-89143900D02*
X169272954Y-89143900D01*
X169272954Y-89143900D02*
X172193954Y-86222900D01*
X154344954Y-89143900D02*
X154344954Y-89651900D01*
X154344954Y-89651900D02*
X152908954Y-91087900D01*
X172193954Y-86222900D02*
X172193954Y-67934900D01*
G04 #@! TO.N,/Tx*
X165717954Y-64887900D02*
X150880096Y-64887900D01*
X167494954Y-72887900D02*
X167494954Y-66664900D01*
X150345096Y-64352900D02*
X147448954Y-64352900D01*
X147448954Y-64352900D02*
X143448954Y-68352900D01*
X168510954Y-73903900D02*
X167494954Y-72887900D01*
X143448954Y-70597900D02*
X142083954Y-71962900D01*
X167494954Y-66664900D02*
X165717954Y-64887900D01*
X143448954Y-68352900D02*
X143448954Y-70597900D01*
X150880096Y-64887900D02*
X150345096Y-64352900D01*
G04 #@! TO.N,/Rx*
X168510954Y-66664900D02*
X166097954Y-64251900D01*
X145268954Y-63887900D02*
X140908954Y-68247900D01*
X140908954Y-73327900D02*
X142083954Y-74502900D01*
X140908954Y-68247900D02*
X140908954Y-73327900D01*
X150516492Y-63887900D02*
X145268954Y-63887900D01*
X150880492Y-64251900D02*
X150516492Y-63887900D01*
X166097954Y-64251900D02*
X150880492Y-64251900D01*
X168510954Y-72379900D02*
X168510954Y-66664900D01*
D22*
G04 #@! TO.N,/Sensor1*
X146603954Y-74672900D02*
X146603954Y-78158900D01*
X146603954Y-78158900D02*
X150318954Y-81873900D01*
X150318954Y-81873900D02*
X150318954Y-99457900D01*
X150318954Y-99457900D02*
X148898954Y-100877900D01*
X148882318Y-72394536D02*
X146603954Y-74672900D01*
X149611275Y-72394536D02*
X148882318Y-72394536D01*
G04 #@! TO.N,/Sensor2*
X154946161Y-72357900D02*
X153798954Y-71210693D01*
X153798954Y-70457900D02*
X154858954Y-69397900D01*
X153798954Y-71210693D02*
X153798954Y-70457900D01*
X151778954Y-104367900D02*
X151783954Y-104362900D01*
X151783954Y-104362900D02*
X151783954Y-78184900D01*
X155363954Y-72357900D02*
X154946161Y-72357900D01*
X151783954Y-78184900D02*
X154540954Y-75427900D01*
X154858954Y-69397900D02*
X166128954Y-69397900D01*
D23*
G04 #@! TO.N,/WTR*
X168748954Y-118137900D02*
X170193954Y-119582900D01*
X170193954Y-119582900D02*
X191327164Y-119582900D01*
X176892954Y-81152205D02*
X176892954Y-92246267D01*
X175068954Y-64697900D02*
X175068954Y-79328205D01*
X175068954Y-79328205D02*
X176892954Y-81152205D01*
X168748954Y-100390267D02*
X168748954Y-118137900D01*
D19*
X179642318Y-63301264D02*
X179338605Y-63604977D01*
X175521877Y-63604977D02*
X174748954Y-64377900D01*
X179338605Y-63604977D02*
X175521877Y-63604977D01*
D23*
X176892954Y-92246267D02*
X168748954Y-100390267D01*
X174748954Y-64377900D02*
X175068954Y-64697900D01*
X191327164Y-119582900D02*
X193732164Y-117177900D01*
G04 #@! TO.N,Net-(D1-A)*
X159808954Y-96887900D02*
X160506954Y-96887900D01*
X165440854Y-101821800D02*
X165440854Y-102063076D01*
X160506954Y-96887900D02*
X165440854Y-101821800D01*
D19*
G04 #@! TO.N,Net-(D2-PadC)*
X186768954Y-66877900D02*
X186768954Y-62057900D01*
G04 #@! TO.N,/Vdc*
X178543954Y-67897900D02*
X178543954Y-76142900D01*
X178543954Y-76142900D02*
X179368954Y-76967900D01*
D23*
X185306254Y-105685200D02*
X185306254Y-102005200D01*
X192318954Y-112697900D02*
X185306254Y-105685200D01*
X192318954Y-114627900D02*
X192318954Y-112697900D01*
G04 #@! TO.N,Net-(D6-A)*
X175248954Y-96764100D02*
X180490854Y-102006000D01*
D19*
G04 #@! TO.N,/LED*
X158328954Y-68287900D02*
X154768954Y-68287900D01*
X173468954Y-74137900D02*
X173468954Y-68012900D01*
X169581954Y-69380173D02*
X169581954Y-78284900D01*
X165135954Y-78284900D02*
X162158954Y-75307900D01*
X172565954Y-67109900D02*
X171852227Y-67109900D01*
X173468954Y-68012900D02*
X172565954Y-67109900D01*
X171852227Y-67109900D02*
X169581954Y-69380173D01*
X169581954Y-78284900D02*
X165135954Y-78284900D01*
G04 #@! TO.N,/Valve1*
X157207954Y-75554900D02*
X157207954Y-75427900D01*
X155175954Y-88254900D02*
X155175954Y-77586900D01*
X157651954Y-90730900D02*
X155175954Y-88254900D01*
X160248954Y-90730900D02*
X157651954Y-90730900D01*
X155175954Y-77586900D02*
X157207954Y-75554900D01*
G04 #@! TO.N,/Valve2*
X173408952Y-76625902D02*
X173408952Y-88442900D01*
X173408952Y-88442900D02*
X175568954Y-90602902D01*
D23*
G04 #@! TO.N,/Temp*
X181308954Y-68347900D02*
X184018954Y-68347900D01*
X184018954Y-68347900D02*
X185648954Y-69977900D01*
D19*
G04 #@! TO.N,/AUX1*
X188195954Y-90794900D02*
X188195954Y-92699900D01*
X176308954Y-78907900D02*
X188195954Y-90794900D01*
D22*
X153808954Y-77683900D02*
X155556954Y-75935900D01*
X153048954Y-83202900D02*
X153808954Y-82442900D01*
D19*
X154540954Y-73903900D02*
X154566952Y-73877902D01*
D22*
X155556954Y-75935900D02*
X155556954Y-74919900D01*
X154566952Y-73877902D02*
X163023956Y-73877902D01*
X163023956Y-73877902D02*
X166605954Y-77459900D01*
D19*
X176308954Y-78507900D02*
X176308954Y-78907900D01*
D22*
X153808954Y-82442900D02*
X153808954Y-77683900D01*
X155556954Y-74919900D02*
X154540954Y-73903900D01*
D23*
G04 #@! TO.N,Net-(D8-A)*
X190152754Y-96767900D02*
X195440854Y-102056000D01*
D21*
G04 #@! TO.N,Net-(Rly4-NC)*
X210608954Y-112234100D02*
X207115154Y-115727900D01*
X182686454Y-115727900D02*
X181248954Y-117165400D01*
X207115154Y-115727900D02*
X182686454Y-115727900D01*
D23*
G04 #@! TO.N,Net-(D10-A)*
X205368954Y-96834100D02*
X210583554Y-102048700D01*
X204973954Y-96834100D02*
X205368954Y-96834100D01*
D24*
G04 #@! TO.N,/AUX2*
X154698954Y-70837900D02*
X154716954Y-70855900D01*
X161906954Y-70855900D02*
X168510954Y-77459900D01*
X192647820Y-92337900D02*
X203068954Y-92337900D01*
X177398954Y-77467900D02*
X177777820Y-77467900D01*
X154716954Y-70855900D02*
X161906954Y-70855900D01*
X177777820Y-77467900D02*
X192647820Y-92337900D01*
G04 #@! TD*
G04 #@! TA.AperFunction,Conductor*
G04 #@! TO.N,GND*
G36*
X145307645Y-56297307D02*
G01*
X145343609Y-56346807D01*
X145348454Y-56377400D01*
X145348454Y-62430627D01*
X145375747Y-62532487D01*
X145375748Y-62532489D01*
X145375748Y-62532490D01*
X145415888Y-62602014D01*
X145428474Y-62623813D01*
X145503041Y-62698380D01*
X145594367Y-62751107D01*
X145696227Y-62778400D01*
X145801681Y-62778400D01*
X153903805Y-62778400D01*
X153961996Y-62797307D01*
X153997960Y-62846807D01*
X153997960Y-62907993D01*
X153986120Y-62932402D01*
X153920182Y-63031082D01*
X153920176Y-63031093D01*
X153867374Y-63158570D01*
X153867374Y-63158572D01*
X153840454Y-63293904D01*
X153840454Y-63431895D01*
X153867374Y-63567227D01*
X153867374Y-63567229D01*
X153920176Y-63694706D01*
X153920182Y-63694717D01*
X153972088Y-63772398D01*
X153988697Y-63831286D01*
X153967520Y-63888690D01*
X153916646Y-63922683D01*
X153889773Y-63926400D01*
X151056325Y-63926400D01*
X150998134Y-63907493D01*
X150986321Y-63897403D01*
X150861316Y-63772398D01*
X150716354Y-63627435D01*
X150716349Y-63627431D01*
X150642134Y-63584583D01*
X150642136Y-63584583D01*
X150610013Y-63575976D01*
X150559345Y-63562400D01*
X145311807Y-63562400D01*
X145226101Y-63562400D01*
X145175432Y-63575976D01*
X145143310Y-63584583D01*
X145069096Y-63627431D01*
X140648485Y-68048042D01*
X140605637Y-68122257D01*
X140605635Y-68122261D01*
X140597353Y-68153168D01*
X140597354Y-68153169D01*
X140597354Y-68153170D01*
X140583454Y-68205047D01*
X140583454Y-73285047D01*
X140583454Y-73370753D01*
X140599970Y-73432394D01*
X140605637Y-73453543D01*
X140648485Y-73527757D01*
X140648489Y-73527762D01*
X140738563Y-73617837D01*
X140766340Y-73672354D01*
X140767554Y-73686822D01*
X140788953Y-75767899D01*
X140788954Y-75767899D01*
X140788954Y-75767900D01*
X145988954Y-75687900D01*
X146005478Y-74938793D01*
X146025664Y-74881035D01*
X146075945Y-74846172D01*
X146137116Y-74847521D01*
X146185811Y-74884568D01*
X146203454Y-74940978D01*
X146203454Y-78106173D01*
X146203454Y-78211627D01*
X146227524Y-78301459D01*
X146230748Y-78313492D01*
X146283470Y-78404808D01*
X146283472Y-78404810D01*
X146283474Y-78404813D01*
X149889459Y-82010798D01*
X149917235Y-82065313D01*
X149918454Y-82080800D01*
X149918454Y-99250998D01*
X149899547Y-99309189D01*
X149889458Y-99321002D01*
X149190641Y-100019818D01*
X149136124Y-100047595D01*
X149101324Y-100046912D01*
X148983120Y-100023400D01*
X148983115Y-100023400D01*
X148814793Y-100023400D01*
X148814790Y-100023400D01*
X148649705Y-100056238D01*
X148649703Y-100056238D01*
X148494198Y-100120650D01*
X148354245Y-100214163D01*
X148235217Y-100333191D01*
X148141704Y-100473144D01*
X148077292Y-100628649D01*
X148077292Y-100628651D01*
X148044454Y-100793736D01*
X148044454Y-100962063D01*
X148066346Y-101072119D01*
X148071212Y-101096585D01*
X148077292Y-101127148D01*
X148077292Y-101127150D01*
X148141704Y-101282655D01*
X148233142Y-101419503D01*
X148235220Y-101422612D01*
X148354242Y-101541634D01*
X148494196Y-101635148D01*
X148649705Y-101699562D01*
X148814793Y-101732400D01*
X148814794Y-101732400D01*
X148983114Y-101732400D01*
X148983115Y-101732400D01*
X149148203Y-101699562D01*
X149303712Y-101635148D01*
X149443666Y-101541634D01*
X149562688Y-101422612D01*
X149656202Y-101282658D01*
X149720616Y-101127149D01*
X149753454Y-100962061D01*
X149753454Y-100793739D01*
X149729940Y-100675527D01*
X149737132Y-100614768D01*
X149757031Y-100586214D01*
X150639434Y-99703813D01*
X150692161Y-99612488D01*
X150719454Y-99510627D01*
X150719454Y-99405173D01*
X150719454Y-81821173D01*
X150692161Y-81719313D01*
X150639434Y-81627987D01*
X150630904Y-81619457D01*
X150564867Y-81553419D01*
X150564867Y-81553420D01*
X147033450Y-78022003D01*
X147005673Y-77967486D01*
X147004454Y-77951999D01*
X147004454Y-74879800D01*
X147023361Y-74821609D01*
X147033444Y-74809802D01*
X148964662Y-72878583D01*
X149019177Y-72850808D01*
X149079609Y-72860379D01*
X149104668Y-72878585D01*
X149164733Y-72938650D01*
X149279457Y-73015307D01*
X149279468Y-73015313D01*
X149326558Y-73034818D01*
X149406947Y-73068116D01*
X149542282Y-73095036D01*
X149542283Y-73095036D01*
X149680267Y-73095036D01*
X149680268Y-73095036D01*
X149815603Y-73068116D01*
X149943086Y-73015311D01*
X150057817Y-72938650D01*
X150155389Y-72841078D01*
X150224139Y-72738187D01*
X150272189Y-72700308D01*
X150333327Y-72697906D01*
X150384201Y-72731899D01*
X150405378Y-72789303D01*
X150405454Y-72793189D01*
X150405454Y-75765991D01*
X150386547Y-75824182D01*
X150361456Y-75848306D01*
X150284412Y-75899785D01*
X150186839Y-75997358D01*
X150110182Y-76112082D01*
X150110176Y-76112093D01*
X150057374Y-76239570D01*
X150057374Y-76239572D01*
X150030454Y-76374904D01*
X150030454Y-76512895D01*
X150042728Y-76574598D01*
X150054959Y-76636089D01*
X150057374Y-76648227D01*
X150057374Y-76648229D01*
X150110176Y-76775706D01*
X150110182Y-76775717D01*
X150186839Y-76890441D01*
X150284412Y-76988014D01*
X150399136Y-77064671D01*
X150399147Y-77064677D01*
X150417899Y-77072444D01*
X150526626Y-77117480D01*
X150661961Y-77144400D01*
X150661962Y-77144400D01*
X150799946Y-77144400D01*
X150799947Y-77144400D01*
X150935282Y-77117480D01*
X151062765Y-77064675D01*
X151177496Y-76988014D01*
X151275068Y-76890442D01*
X151351729Y-76775711D01*
X151404534Y-76648228D01*
X151431454Y-76512893D01*
X151431454Y-76374907D01*
X151404534Y-76239572D01*
X151380610Y-76181813D01*
X151351731Y-76112093D01*
X151351725Y-76112082D01*
X151275068Y-75997358D01*
X151177495Y-75899785D01*
X151100452Y-75848306D01*
X151062573Y-75800255D01*
X151056454Y-75765991D01*
X151056454Y-70930743D01*
X151056453Y-70930739D01*
X151052827Y-70917204D01*
X151049454Y-70891583D01*
X151049454Y-70080808D01*
X151068361Y-70022617D01*
X151093452Y-69998493D01*
X151170496Y-69947014D01*
X151268068Y-69849442D01*
X151344729Y-69734711D01*
X151397534Y-69607228D01*
X151424454Y-69471893D01*
X151424454Y-69333907D01*
X151397534Y-69198572D01*
X151373274Y-69140002D01*
X151344731Y-69071093D01*
X151344725Y-69071082D01*
X151268068Y-68956358D01*
X151170495Y-68858785D01*
X151055771Y-68782128D01*
X151055760Y-68782122D01*
X150928282Y-68729320D01*
X150792949Y-68702400D01*
X150792947Y-68702400D01*
X150654961Y-68702400D01*
X150654958Y-68702400D01*
X150519626Y-68729320D01*
X150519624Y-68729320D01*
X150392147Y-68782122D01*
X150392136Y-68782128D01*
X150277412Y-68858785D01*
X150179843Y-68956354D01*
X150179840Y-68956358D01*
X150175802Y-68962402D01*
X150127752Y-69000281D01*
X150093487Y-69006400D01*
X147721240Y-69006400D01*
X147663049Y-68987493D01*
X147638925Y-68962402D01*
X147615856Y-68927877D01*
X147568068Y-68856358D01*
X147470496Y-68758786D01*
X147470495Y-68758785D01*
X147355771Y-68682128D01*
X147355760Y-68682122D01*
X147228282Y-68629320D01*
X147092949Y-68602400D01*
X147092947Y-68602400D01*
X146954961Y-68602400D01*
X146954958Y-68602400D01*
X146819626Y-68629320D01*
X146819624Y-68629320D01*
X146692147Y-68682122D01*
X146692136Y-68682128D01*
X146577412Y-68758785D01*
X146479839Y-68856358D01*
X146403182Y-68971082D01*
X146403178Y-68971090D01*
X146352484Y-69093477D01*
X146312747Y-69140002D01*
X146253252Y-69154286D01*
X146196725Y-69130871D01*
X146164755Y-69078702D01*
X146162022Y-69054946D01*
X146168954Y-67997900D01*
X146168953Y-67997899D01*
X144497397Y-68004160D01*
X144439136Y-67985471D01*
X144402987Y-67936106D01*
X144402757Y-67874921D01*
X144427020Y-67835159D01*
X147554785Y-64707396D01*
X147609302Y-64679619D01*
X147624789Y-64678400D01*
X150169261Y-64678400D01*
X150227452Y-64697307D01*
X150239264Y-64707396D01*
X150680233Y-65148364D01*
X150680238Y-65148368D01*
X150754453Y-65191216D01*
X150754451Y-65191216D01*
X150754455Y-65191217D01*
X150754457Y-65191218D01*
X150837243Y-65213400D01*
X150922949Y-65213400D01*
X165542119Y-65213400D01*
X165600310Y-65232307D01*
X165612123Y-65242396D01*
X167140458Y-66770730D01*
X167168235Y-66825247D01*
X167169454Y-66840734D01*
X167169454Y-72845047D01*
X167169454Y-72930753D01*
X167182295Y-72978677D01*
X167191637Y-73013543D01*
X167234485Y-73087757D01*
X167234486Y-73087758D01*
X167234487Y-73087759D01*
X167234489Y-73087762D01*
X167579121Y-73432394D01*
X167801437Y-73654710D01*
X167829214Y-73709227D01*
X167828531Y-73744028D01*
X167810454Y-73834904D01*
X167810454Y-73972895D01*
X167837374Y-74108227D01*
X167837374Y-74108229D01*
X167890176Y-74235706D01*
X167890182Y-74235717D01*
X167966839Y-74350441D01*
X168064412Y-74448014D01*
X168179136Y-74524671D01*
X168179147Y-74524677D01*
X168226237Y-74544182D01*
X168306626Y-74577480D01*
X168441961Y-74604400D01*
X168441962Y-74604400D01*
X168579946Y-74604400D01*
X168579947Y-74604400D01*
X168715282Y-74577480D01*
X168842765Y-74524675D01*
X168957496Y-74448014D01*
X169055068Y-74350442D01*
X169075139Y-74320402D01*
X169123189Y-74282524D01*
X169184327Y-74280122D01*
X169235201Y-74314115D01*
X169256378Y-74371519D01*
X169256454Y-74375405D01*
X169256454Y-76988394D01*
X169237547Y-77046585D01*
X169188047Y-77082549D01*
X169126861Y-77082549D01*
X169077361Y-77046585D01*
X169075139Y-77043397D01*
X169055068Y-77013358D01*
X168957496Y-76915786D01*
X168957495Y-76915785D01*
X168842771Y-76839128D01*
X168842760Y-76839122D01*
X168715282Y-76786320D01*
X168579949Y-76759400D01*
X168579947Y-76759400D01*
X168441961Y-76759400D01*
X168441955Y-76759400D01*
X168353439Y-76777007D01*
X168292678Y-76769815D01*
X168264122Y-76749913D01*
X165186563Y-73672354D01*
X162108044Y-70593835D01*
X162033364Y-70550719D01*
X162033363Y-70550718D01*
X162033360Y-70550717D01*
X161950072Y-70528400D01*
X161950070Y-70528400D01*
X155387553Y-70528400D01*
X155329362Y-70509493D01*
X155305238Y-70484402D01*
X155243068Y-70391358D01*
X155145496Y-70293786D01*
X155145495Y-70293785D01*
X155030771Y-70217128D01*
X155030760Y-70217122D01*
X154903283Y-70164320D01*
X154903277Y-70164318D01*
X154881122Y-70159911D01*
X154827739Y-70130012D01*
X154802126Y-70074446D01*
X154814065Y-70014437D01*
X154830437Y-69992810D01*
X154995852Y-69827396D01*
X155050368Y-69799619D01*
X155065855Y-69798400D01*
X165501159Y-69798400D01*
X165559350Y-69817307D01*
X165583474Y-69842398D01*
X165584840Y-69844442D01*
X165584841Y-69844443D01*
X165682403Y-69942006D01*
X165682412Y-69942014D01*
X165797136Y-70018671D01*
X165797147Y-70018677D01*
X165844237Y-70038182D01*
X165924626Y-70071480D01*
X166059961Y-70098400D01*
X166059962Y-70098400D01*
X166197946Y-70098400D01*
X166197947Y-70098400D01*
X166333282Y-70071480D01*
X166460765Y-70018675D01*
X166575496Y-69942014D01*
X166673068Y-69844442D01*
X166749729Y-69729711D01*
X166802534Y-69602228D01*
X166829454Y-69466893D01*
X166829454Y-69328907D01*
X166802534Y-69193572D01*
X166780345Y-69140002D01*
X166749731Y-69066093D01*
X166749725Y-69066082D01*
X166673068Y-68951358D01*
X166575495Y-68853785D01*
X166460771Y-68777128D01*
X166460760Y-68777122D01*
X166333282Y-68724320D01*
X166197949Y-68697400D01*
X166197947Y-68697400D01*
X166059961Y-68697400D01*
X166059958Y-68697400D01*
X165924626Y-68724320D01*
X165924624Y-68724320D01*
X165797147Y-68777122D01*
X165797136Y-68777128D01*
X165682412Y-68853785D01*
X165682403Y-68853793D01*
X165584841Y-68951356D01*
X165583476Y-68953400D01*
X165582591Y-68954097D01*
X165581752Y-68955120D01*
X165581527Y-68954935D01*
X165535427Y-68991280D01*
X165501159Y-68997400D01*
X158849118Y-68997400D01*
X158790927Y-68978493D01*
X158754963Y-68928993D01*
X158754963Y-68867807D01*
X158779114Y-68828396D01*
X158825388Y-68782122D01*
X158873068Y-68734442D01*
X158949729Y-68619711D01*
X159002534Y-68492228D01*
X159029454Y-68356893D01*
X159029454Y-68218907D01*
X159002534Y-68083572D01*
X158979903Y-68028936D01*
X158949731Y-67956093D01*
X158949725Y-67956082D01*
X158873068Y-67841358D01*
X158775495Y-67743785D01*
X158660771Y-67667128D01*
X158660760Y-67667122D01*
X158533282Y-67614320D01*
X158397949Y-67587400D01*
X158397947Y-67587400D01*
X158259961Y-67587400D01*
X158259958Y-67587400D01*
X158124626Y-67614320D01*
X158124624Y-67614320D01*
X157997147Y-67667122D01*
X157997136Y-67667128D01*
X157882412Y-67743785D01*
X157784843Y-67841354D01*
X157784840Y-67841358D01*
X157749840Y-67893740D01*
X157733361Y-67918402D01*
X157685311Y-67956281D01*
X157651046Y-67962400D01*
X155446862Y-67962400D01*
X155388671Y-67943493D01*
X155364547Y-67918402D01*
X155313068Y-67841358D01*
X155215496Y-67743786D01*
X155194442Y-67729718D01*
X155100771Y-67667128D01*
X155100760Y-67667122D01*
X154973282Y-67614320D01*
X154837949Y-67587400D01*
X154837947Y-67587400D01*
X154699961Y-67587400D01*
X154699958Y-67587400D01*
X154564626Y-67614320D01*
X154564624Y-67614320D01*
X154437147Y-67667122D01*
X154437136Y-67667128D01*
X154322412Y-67743785D01*
X154224839Y-67841358D01*
X154148182Y-67956082D01*
X154148176Y-67956093D01*
X154095374Y-68083570D01*
X154095374Y-68083572D01*
X154068454Y-68218904D01*
X154068454Y-68356895D01*
X154095374Y-68492227D01*
X154095374Y-68492229D01*
X154148176Y-68619706D01*
X154148182Y-68619717D01*
X154224839Y-68734441D01*
X154322412Y-68832014D01*
X154437136Y-68908671D01*
X154437147Y-68908677D01*
X154486195Y-68928993D01*
X154543956Y-68952918D01*
X154590482Y-68992654D01*
X154604766Y-69052149D01*
X154581352Y-69108677D01*
X154576075Y-69114386D01*
X153478470Y-70211991D01*
X153425748Y-70303308D01*
X153425746Y-70303312D01*
X153412933Y-70351129D01*
X153412934Y-70351130D01*
X153412934Y-70351131D01*
X153398454Y-70405173D01*
X153398454Y-71157966D01*
X153398454Y-71263420D01*
X153414629Y-71323786D01*
X153425748Y-71365285D01*
X153478470Y-71456601D01*
X153478472Y-71456603D01*
X153478474Y-71456606D01*
X154625679Y-72603810D01*
X154625681Y-72603813D01*
X154700248Y-72678380D01*
X154737823Y-72700073D01*
X154770641Y-72730810D01*
X154819839Y-72804441D01*
X154917403Y-72902006D01*
X154917412Y-72902014D01*
X155032136Y-72978671D01*
X155032147Y-72978677D01*
X155075348Y-72996571D01*
X155159626Y-73031480D01*
X155294961Y-73058400D01*
X155294962Y-73058400D01*
X155432946Y-73058400D01*
X155432947Y-73058400D01*
X155568282Y-73031480D01*
X155695765Y-72978675D01*
X155810496Y-72902014D01*
X155908068Y-72804442D01*
X155984729Y-72689711D01*
X156037534Y-72562228D01*
X156064454Y-72426893D01*
X156064454Y-72288907D01*
X156037534Y-72153572D01*
X155999904Y-72062725D01*
X155984731Y-72026093D01*
X155984725Y-72026082D01*
X155908068Y-71911358D01*
X155810495Y-71813785D01*
X155695771Y-71737128D01*
X155695760Y-71737122D01*
X155568282Y-71684320D01*
X155432949Y-71657400D01*
X155432947Y-71657400D01*
X155294961Y-71657400D01*
X155294958Y-71657400D01*
X155159626Y-71684320D01*
X155159624Y-71684320D01*
X155032142Y-71737124D01*
X155032140Y-71737125D01*
X155015550Y-71748210D01*
X155009756Y-71749843D01*
X155005498Y-71754102D01*
X154980758Y-71758020D01*
X154956661Y-71764815D01*
X154951013Y-71762731D01*
X154945066Y-71763673D01*
X154922749Y-71752302D01*
X154899259Y-71743635D01*
X154890549Y-71735896D01*
X154836446Y-71681793D01*
X154808669Y-71627276D01*
X154818240Y-71566844D01*
X154861505Y-71523579D01*
X154887136Y-71514691D01*
X154903282Y-71511480D01*
X155030765Y-71458675D01*
X155145496Y-71382014D01*
X155243068Y-71284442D01*
X155281183Y-71227397D01*
X155329232Y-71189519D01*
X155363498Y-71183400D01*
X161730291Y-71183400D01*
X161788482Y-71202307D01*
X161800295Y-71212396D01*
X167800967Y-77213068D01*
X167828744Y-77267585D01*
X167828061Y-77302385D01*
X167810454Y-77390901D01*
X167810454Y-77528895D01*
X167837374Y-77664227D01*
X167837374Y-77664229D01*
X167890176Y-77791706D01*
X167890183Y-77791719D01*
X167899323Y-77805397D01*
X167915933Y-77864285D01*
X167894757Y-77921689D01*
X167843884Y-77955683D01*
X167817009Y-77959400D01*
X167299899Y-77959400D01*
X167241708Y-77940493D01*
X167205744Y-77890993D01*
X167205744Y-77829807D01*
X167217585Y-77805397D01*
X167226724Y-77791719D01*
X167226725Y-77791716D01*
X167226729Y-77791711D01*
X167279534Y-77664228D01*
X167306454Y-77528893D01*
X167306454Y-77390907D01*
X167279534Y-77255572D01*
X167245012Y-77172228D01*
X167226731Y-77128093D01*
X167226725Y-77128082D01*
X167150068Y-77013358D01*
X167052495Y-76915785D01*
X166937771Y-76839128D01*
X166937760Y-76839122D01*
X166810282Y-76786320D01*
X166674949Y-76759400D01*
X166674947Y-76759400D01*
X166536961Y-76759400D01*
X166536955Y-76759400D01*
X166534545Y-76759880D01*
X166533428Y-76759747D01*
X166532117Y-76759877D01*
X166532088Y-76759589D01*
X166473784Y-76752685D01*
X166445232Y-76732785D01*
X164936017Y-75223570D01*
X163269869Y-73557422D01*
X163269866Y-73557420D01*
X163269865Y-73557419D01*
X163269864Y-73557418D01*
X163178547Y-73504696D01*
X163178549Y-73504696D01*
X163139026Y-73494106D01*
X163076683Y-73477402D01*
X163076681Y-73477402D01*
X155146120Y-73477402D01*
X155087929Y-73458495D01*
X155076116Y-73448406D01*
X154987495Y-73359785D01*
X154872771Y-73283128D01*
X154872760Y-73283122D01*
X154745282Y-73230320D01*
X154609949Y-73203400D01*
X154609947Y-73203400D01*
X154471961Y-73203400D01*
X154471958Y-73203400D01*
X154336626Y-73230320D01*
X154336624Y-73230320D01*
X154209147Y-73283122D01*
X154209136Y-73283128D01*
X154094412Y-73359785D01*
X153996839Y-73457358D01*
X153920182Y-73572082D01*
X153920176Y-73572093D01*
X153867374Y-73699570D01*
X153867374Y-73699572D01*
X153840454Y-73834904D01*
X153840454Y-73972895D01*
X153867374Y-74108227D01*
X153867374Y-74108229D01*
X153920176Y-74235706D01*
X153920182Y-74235717D01*
X153996839Y-74350441D01*
X154094412Y-74448014D01*
X154209136Y-74524671D01*
X154209147Y-74524677D01*
X154329277Y-74574436D01*
X154375803Y-74614172D01*
X154390087Y-74673667D01*
X154366672Y-74730195D01*
X154329277Y-74757364D01*
X154209147Y-74807122D01*
X154209136Y-74807128D01*
X154094412Y-74883785D01*
X153996839Y-74981358D01*
X153920182Y-75096082D01*
X153920176Y-75096093D01*
X153867374Y-75223570D01*
X153867374Y-75223572D01*
X153840454Y-75358904D01*
X153840454Y-75496891D01*
X153840455Y-75496903D01*
X153840933Y-75499306D01*
X153840801Y-75500418D01*
X153840931Y-75501737D01*
X153840641Y-75501765D01*
X153833740Y-75560067D01*
X153813839Y-75588621D01*
X151463471Y-77938990D01*
X151463470Y-77938991D01*
X151410749Y-78030306D01*
X151410745Y-78030315D01*
X151396084Y-78085037D01*
X151396084Y-78085038D01*
X151383454Y-78132173D01*
X151383454Y-103736764D01*
X151364547Y-103794955D01*
X151339458Y-103819077D01*
X151337032Y-103820699D01*
X151332410Y-103823787D01*
X151234847Y-103921349D01*
X151234839Y-103921358D01*
X151158182Y-104036082D01*
X151158176Y-104036093D01*
X151105374Y-104163570D01*
X151105374Y-104163572D01*
X151078454Y-104298904D01*
X151078454Y-104436895D01*
X151105374Y-104572227D01*
X151105374Y-104572229D01*
X151158176Y-104699706D01*
X151158182Y-104699717D01*
X151234839Y-104814441D01*
X151332412Y-104912014D01*
X151447136Y-104988671D01*
X151447147Y-104988677D01*
X151494237Y-105008182D01*
X151574626Y-105041480D01*
X151709961Y-105068400D01*
X151709962Y-105068400D01*
X151847946Y-105068400D01*
X151847947Y-105068400D01*
X151983282Y-105041480D01*
X152110765Y-104988675D01*
X152225496Y-104912014D01*
X152323068Y-104814442D01*
X152399729Y-104699711D01*
X152452534Y-104572228D01*
X152479454Y-104436893D01*
X152479454Y-104298907D01*
X152452534Y-104163572D01*
X152399729Y-104036089D01*
X152399728Y-104036087D01*
X152399725Y-104036082D01*
X152323068Y-103921358D01*
X152323060Y-103921349D01*
X152225494Y-103823784D01*
X152221735Y-103820699D01*
X152223125Y-103819004D01*
X152190573Y-103777710D01*
X152184454Y-103743446D01*
X152184454Y-101917791D01*
X154105754Y-101917791D01*
X154105754Y-102106760D01*
X154135312Y-102293389D01*
X154193707Y-102473108D01*
X154276294Y-102635196D01*
X154279494Y-102641475D01*
X154390564Y-102794349D01*
X154524181Y-102927966D01*
X154677055Y-103039036D01*
X154845422Y-103124823D01*
X155025136Y-103183216D01*
X155025137Y-103183216D01*
X155025140Y-103183217D01*
X155211770Y-103212776D01*
X155211773Y-103212776D01*
X155400738Y-103212776D01*
X155587367Y-103183217D01*
X155587368Y-103183216D01*
X155587372Y-103183216D01*
X155767086Y-103124823D01*
X155935453Y-103039036D01*
X156088327Y-102927966D01*
X156221944Y-102794349D01*
X156333014Y-102641475D01*
X156418801Y-102473108D01*
X156477194Y-102293394D01*
X156478316Y-102286313D01*
X156506754Y-102106760D01*
X156506754Y-101917791D01*
X156477195Y-101731162D01*
X156475156Y-101724886D01*
X156418801Y-101551444D01*
X156333014Y-101383077D01*
X156221944Y-101230203D01*
X156088327Y-101096586D01*
X155935453Y-100985516D01*
X155935452Y-100985515D01*
X155935450Y-100985514D01*
X155767086Y-100899729D01*
X155587367Y-100841334D01*
X155400738Y-100811776D01*
X155400735Y-100811776D01*
X155211773Y-100811776D01*
X155211770Y-100811776D01*
X155025140Y-100841334D01*
X154845421Y-100899729D01*
X154677057Y-100985514D01*
X154524182Y-101096585D01*
X154390563Y-101230204D01*
X154279492Y-101383079D01*
X154193707Y-101551443D01*
X154135312Y-101731162D01*
X154105754Y-101917791D01*
X152184454Y-101917791D01*
X152184454Y-99453991D01*
X159084154Y-99453991D01*
X159084154Y-99642960D01*
X159113712Y-99829589D01*
X159172107Y-100009308D01*
X159254288Y-100170599D01*
X159257894Y-100177675D01*
X159368964Y-100330549D01*
X159502581Y-100464166D01*
X159655455Y-100575236D01*
X159823822Y-100661023D01*
X160003536Y-100719416D01*
X160003537Y-100719416D01*
X160003540Y-100719417D01*
X160190170Y-100748976D01*
X160190173Y-100748976D01*
X160379138Y-100748976D01*
X160565767Y-100719417D01*
X160565768Y-100719416D01*
X160565772Y-100719416D01*
X160745486Y-100661023D01*
X160913853Y-100575236D01*
X161066727Y-100464166D01*
X161200344Y-100330549D01*
X161311414Y-100177675D01*
X161397201Y-100009308D01*
X161455594Y-99829594D01*
X161464635Y-99772513D01*
X161485154Y-99642960D01*
X161485154Y-99453991D01*
X161455595Y-99267362D01*
X161437050Y-99210286D01*
X161397201Y-99087644D01*
X161311414Y-98919277D01*
X161200344Y-98766403D01*
X161066727Y-98632786D01*
X160913853Y-98521716D01*
X160913852Y-98521715D01*
X160913850Y-98521714D01*
X160745486Y-98435929D01*
X160565767Y-98377534D01*
X160379138Y-98347976D01*
X160379135Y-98347976D01*
X160190173Y-98347976D01*
X160190170Y-98347976D01*
X160003540Y-98377534D01*
X159823821Y-98435929D01*
X159655457Y-98521714D01*
X159502582Y-98632785D01*
X159368963Y-98766404D01*
X159257892Y-98919279D01*
X159172107Y-99087643D01*
X159113712Y-99267362D01*
X159084154Y-99453991D01*
X152184454Y-99453991D01*
X152184454Y-96818904D01*
X159108454Y-96818904D01*
X159108454Y-96956895D01*
X159135374Y-97092227D01*
X159135374Y-97092229D01*
X159188176Y-97219706D01*
X159188182Y-97219717D01*
X159264839Y-97334441D01*
X159362412Y-97432014D01*
X159477136Y-97508671D01*
X159477147Y-97508677D01*
X159524237Y-97528182D01*
X159604626Y-97561480D01*
X159739961Y-97588400D01*
X159739962Y-97588400D01*
X159877946Y-97588400D01*
X159877947Y-97588400D01*
X160013282Y-97561480D01*
X160140765Y-97508675D01*
X160140767Y-97508673D01*
X160140772Y-97508671D01*
X160186970Y-97477801D01*
X160255496Y-97432014D01*
X160264723Y-97422786D01*
X160319234Y-97395006D01*
X160379667Y-97404573D01*
X160404733Y-97422782D01*
X164363818Y-101381867D01*
X164391595Y-101436384D01*
X164382024Y-101496815D01*
X164328308Y-101602240D01*
X164269912Y-101781962D01*
X164240354Y-101968591D01*
X164240354Y-102157560D01*
X164269912Y-102344189D01*
X164328307Y-102523908D01*
X164410488Y-102685199D01*
X164414094Y-102692275D01*
X164525164Y-102845149D01*
X164658781Y-102978766D01*
X164811655Y-103089836D01*
X164980022Y-103175623D01*
X165159736Y-103234016D01*
X165159737Y-103234016D01*
X165159740Y-103234017D01*
X165346370Y-103263576D01*
X165346373Y-103263576D01*
X165535338Y-103263576D01*
X165721967Y-103234017D01*
X165721968Y-103234016D01*
X165721972Y-103234016D01*
X165901686Y-103175623D01*
X166070053Y-103089836D01*
X166222927Y-102978766D01*
X166356544Y-102845149D01*
X166467614Y-102692275D01*
X166553401Y-102523908D01*
X166611794Y-102344194D01*
X166620961Y-102286318D01*
X166641354Y-102157560D01*
X166641354Y-101968591D01*
X166611795Y-101781962D01*
X166607123Y-101767582D01*
X166553401Y-101602244D01*
X166467614Y-101433877D01*
X166356544Y-101281003D01*
X166222927Y-101147386D01*
X166070053Y-101036316D01*
X166070052Y-101036315D01*
X166070050Y-101036314D01*
X165901686Y-100950529D01*
X165721967Y-100892134D01*
X165535338Y-100862576D01*
X165535335Y-100862576D01*
X165346373Y-100862576D01*
X165346370Y-100862576D01*
X165199680Y-100885809D01*
X165139248Y-100876238D01*
X165114189Y-100858032D01*
X162965484Y-98709327D01*
X160783568Y-96527411D01*
X160783565Y-96527409D01*
X160783564Y-96527408D01*
X160783563Y-96527407D01*
X160680844Y-96468102D01*
X160680840Y-96468100D01*
X160656627Y-96461612D01*
X160656627Y-96461613D01*
X160566263Y-96437400D01*
X160566261Y-96437400D01*
X160390118Y-96437400D01*
X160331927Y-96418493D01*
X160320114Y-96408404D01*
X160255495Y-96343785D01*
X160140771Y-96267128D01*
X160140760Y-96267122D01*
X160013282Y-96214320D01*
X159877949Y-96187400D01*
X159877947Y-96187400D01*
X159739961Y-96187400D01*
X159739958Y-96187400D01*
X159604626Y-96214320D01*
X159604624Y-96214320D01*
X159477147Y-96267122D01*
X159477136Y-96267128D01*
X159362412Y-96343785D01*
X159264839Y-96441358D01*
X159188182Y-96556082D01*
X159188176Y-96556093D01*
X159135374Y-96683570D01*
X159135374Y-96683572D01*
X159108454Y-96818904D01*
X152184454Y-96818904D01*
X152184454Y-93768904D01*
X161398454Y-93768904D01*
X161398454Y-93906895D01*
X161414866Y-93989400D01*
X161424024Y-94035443D01*
X161425374Y-94042227D01*
X161425374Y-94042229D01*
X161478176Y-94169706D01*
X161478182Y-94169717D01*
X161554839Y-94284441D01*
X161652412Y-94382014D01*
X161767136Y-94458671D01*
X161767147Y-94458677D01*
X161814237Y-94478182D01*
X161894626Y-94511480D01*
X162029961Y-94538400D01*
X162029962Y-94538400D01*
X162167946Y-94538400D01*
X162167947Y-94538400D01*
X162303282Y-94511480D01*
X162430765Y-94458675D01*
X162545496Y-94382014D01*
X162643068Y-94284442D01*
X162719729Y-94169711D01*
X162719731Y-94169704D01*
X162720250Y-94168736D01*
X162720617Y-94168382D01*
X162722432Y-94165667D01*
X162723027Y-94166065D01*
X162764354Y-94126327D01*
X162807563Y-94116400D01*
X167502159Y-94116400D01*
X167560350Y-94135307D01*
X167584474Y-94160398D01*
X167585840Y-94162442D01*
X167585841Y-94162443D01*
X167683403Y-94260006D01*
X167683412Y-94260014D01*
X167798136Y-94336671D01*
X167798147Y-94336677D01*
X167845237Y-94356182D01*
X167925626Y-94389480D01*
X168060961Y-94416400D01*
X168060962Y-94416400D01*
X168198946Y-94416400D01*
X168198947Y-94416400D01*
X168334282Y-94389480D01*
X168461765Y-94336675D01*
X168576496Y-94260014D01*
X168674068Y-94162442D01*
X168750729Y-94047711D01*
X168803534Y-93920228D01*
X168830454Y-93784893D01*
X168830454Y-93646907D01*
X168803534Y-93511572D01*
X168750729Y-93384089D01*
X168750728Y-93384087D01*
X168750725Y-93384082D01*
X168674068Y-93269358D01*
X168674060Y-93269349D01*
X168576497Y-93171787D01*
X168576496Y-93171786D01*
X168574450Y-93170419D01*
X168573752Y-93169534D01*
X168572735Y-93168699D01*
X168572918Y-93168475D01*
X168536573Y-93122369D01*
X168530454Y-93088105D01*
X168530454Y-92133799D01*
X168549361Y-92075608D01*
X168559444Y-92063801D01*
X170438341Y-90184903D01*
X170492856Y-90157128D01*
X170546227Y-90163444D01*
X170565626Y-90171480D01*
X170700961Y-90198400D01*
X170700962Y-90198400D01*
X170838946Y-90198400D01*
X170838947Y-90198400D01*
X170974282Y-90171480D01*
X171101765Y-90118675D01*
X171216496Y-90042014D01*
X171314068Y-89944442D01*
X171390729Y-89829711D01*
X171443534Y-89702228D01*
X171470454Y-89566893D01*
X171470454Y-89428907D01*
X171443534Y-89293572D01*
X171390729Y-89166089D01*
X171390728Y-89166087D01*
X171390725Y-89166082D01*
X171314068Y-89051358D01*
X171216495Y-88953785D01*
X171101771Y-88877128D01*
X171101760Y-88877122D01*
X170974282Y-88824320D01*
X170838949Y-88797400D01*
X170838947Y-88797400D01*
X170700961Y-88797400D01*
X170700958Y-88797400D01*
X170565626Y-88824320D01*
X170565624Y-88824320D01*
X170438147Y-88877122D01*
X170438136Y-88877128D01*
X170323412Y-88953785D01*
X170225839Y-89051358D01*
X170149182Y-89166082D01*
X170149176Y-89166093D01*
X170096374Y-89293570D01*
X170077274Y-89389591D01*
X170050180Y-89440280D01*
X167809471Y-91680990D01*
X167809470Y-91680991D01*
X167756748Y-91772308D01*
X167756747Y-91772310D01*
X167750992Y-91793784D01*
X167750993Y-91793785D01*
X167729454Y-91874173D01*
X167729454Y-93088105D01*
X167710547Y-93146296D01*
X167700458Y-93158109D01*
X167693565Y-93165001D01*
X167683412Y-93171786D01*
X167585840Y-93269358D01*
X167579056Y-93279510D01*
X167572163Y-93286404D01*
X167553167Y-93296082D01*
X167536427Y-93309280D01*
X167522320Y-93311799D01*
X167517646Y-93314181D01*
X167513055Y-93313453D01*
X167502159Y-93315400D01*
X162607255Y-93315400D01*
X162549064Y-93296493D01*
X162545976Y-93294107D01*
X162545494Y-93293785D01*
X162507527Y-93268416D01*
X162430771Y-93217128D01*
X162430760Y-93217122D01*
X162303282Y-93164320D01*
X162167949Y-93137400D01*
X162167947Y-93137400D01*
X162029961Y-93137400D01*
X162029958Y-93137400D01*
X161894626Y-93164320D01*
X161894624Y-93164320D01*
X161767147Y-93217122D01*
X161767136Y-93217128D01*
X161652412Y-93293785D01*
X161554839Y-93391358D01*
X161478182Y-93506082D01*
X161478176Y-93506093D01*
X161425374Y-93633570D01*
X161425374Y-93633572D01*
X161398454Y-93768904D01*
X152184454Y-93768904D01*
X152184454Y-91590833D01*
X152203361Y-91532642D01*
X152252861Y-91496678D01*
X152314047Y-91496678D01*
X152361339Y-91531038D01*
X152361763Y-91530691D01*
X152363093Y-91532312D01*
X152363547Y-91532642D01*
X152364577Y-91534121D01*
X152364837Y-91534438D01*
X152364840Y-91534442D01*
X152364843Y-91534445D01*
X152462412Y-91632014D01*
X152577136Y-91708671D01*
X152577147Y-91708677D01*
X152597543Y-91717125D01*
X152704626Y-91761480D01*
X152839961Y-91788400D01*
X152839962Y-91788400D01*
X152977946Y-91788400D01*
X152977947Y-91788400D01*
X153113282Y-91761480D01*
X153240765Y-91708675D01*
X153355496Y-91632014D01*
X153453068Y-91534442D01*
X153529729Y-91419711D01*
X153582534Y-91292228D01*
X153609454Y-91156893D01*
X153609454Y-91018907D01*
X153591376Y-90928024D01*
X153598567Y-90867265D01*
X153618467Y-90838711D01*
X154544813Y-89912366D01*
X154544816Y-89912365D01*
X154605419Y-89851762D01*
X154636069Y-89798675D01*
X154636327Y-89798227D01*
X154641459Y-89791970D01*
X154660732Y-89779622D01*
X154673229Y-89768369D01*
X154672479Y-89766965D01*
X154676758Y-89764677D01*
X154676765Y-89764675D01*
X154791496Y-89688014D01*
X154889068Y-89590442D01*
X154965729Y-89475711D01*
X155018534Y-89348228D01*
X155045454Y-89212893D01*
X155045454Y-89074907D01*
X155018534Y-88939572D01*
X154992668Y-88877125D01*
X154965731Y-88812093D01*
X154965725Y-88812082D01*
X154905795Y-88722392D01*
X154889186Y-88663504D01*
X154910363Y-88606100D01*
X154961237Y-88572107D01*
X155022375Y-88574509D01*
X155058111Y-88597384D01*
X157391487Y-90930759D01*
X157391489Y-90930762D01*
X157452092Y-90991365D01*
X157489201Y-91012789D01*
X157489203Y-91012791D01*
X157499798Y-91018908D01*
X157526315Y-91034218D01*
X157609101Y-91056400D01*
X159571046Y-91056400D01*
X159629237Y-91075307D01*
X159653360Y-91100397D01*
X159704840Y-91177442D01*
X159704843Y-91177445D01*
X159802412Y-91275014D01*
X159917136Y-91351671D01*
X159917147Y-91351677D01*
X159964237Y-91371182D01*
X160044626Y-91404480D01*
X160179961Y-91431400D01*
X160179962Y-91431400D01*
X160317946Y-91431400D01*
X160317947Y-91431400D01*
X160453282Y-91404480D01*
X160580765Y-91351675D01*
X160695496Y-91275014D01*
X160793068Y-91177442D01*
X160869729Y-91062711D01*
X160922534Y-90935228D01*
X160949454Y-90799893D01*
X160949454Y-90661907D01*
X160922534Y-90526572D01*
X160869729Y-90399089D01*
X160869728Y-90399087D01*
X160869725Y-90399082D01*
X160793068Y-90284358D01*
X160695495Y-90186785D01*
X160580771Y-90110128D01*
X160580760Y-90110122D01*
X160453282Y-90057320D01*
X160317949Y-90030400D01*
X160317947Y-90030400D01*
X160179961Y-90030400D01*
X160179958Y-90030400D01*
X160044626Y-90057320D01*
X160044624Y-90057320D01*
X159917147Y-90110122D01*
X159917136Y-90110128D01*
X159802412Y-90186785D01*
X159704843Y-90284354D01*
X159704840Y-90284358D01*
X159653361Y-90361402D01*
X159605311Y-90399281D01*
X159571046Y-90405400D01*
X157827788Y-90405400D01*
X157769597Y-90386493D01*
X157757784Y-90376404D01*
X155530450Y-88149069D01*
X155502673Y-88094552D01*
X155501454Y-88079065D01*
X155501454Y-86058904D01*
X156088454Y-86058904D01*
X156088454Y-86196895D01*
X156115374Y-86332227D01*
X156115374Y-86332229D01*
X156168176Y-86459706D01*
X156168182Y-86459717D01*
X156244839Y-86574441D01*
X156342412Y-86672014D01*
X156457136Y-86748671D01*
X156457147Y-86748677D01*
X156524162Y-86776435D01*
X156584626Y-86801480D01*
X156590957Y-86802739D01*
X156641650Y-86829833D01*
X156866259Y-87054441D01*
X156900238Y-87088420D01*
X157037170Y-87167477D01*
X157037172Y-87167477D01*
X157037173Y-87167478D01*
X157113533Y-87187939D01*
X157189894Y-87208400D01*
X157189896Y-87208401D01*
X157189897Y-87208401D01*
X157354075Y-87208401D01*
X157354091Y-87208400D01*
X157936768Y-87208400D01*
X157991770Y-87225085D01*
X157997143Y-87228675D01*
X158124626Y-87281480D01*
X158259961Y-87308400D01*
X158259962Y-87308400D01*
X158397946Y-87308400D01*
X158397947Y-87308400D01*
X158533282Y-87281480D01*
X158660765Y-87228675D01*
X158775496Y-87152014D01*
X158873068Y-87054442D01*
X158949729Y-86939711D01*
X159002534Y-86812228D01*
X159003794Y-86805891D01*
X159030889Y-86755198D01*
X159060695Y-86725394D01*
X159115212Y-86697618D01*
X159130696Y-86696400D01*
X159355768Y-86696400D01*
X159410770Y-86713085D01*
X159416143Y-86716675D01*
X159543626Y-86769480D01*
X159678961Y-86796400D01*
X159678962Y-86796400D01*
X161086947Y-86796400D01*
X161086948Y-86796400D01*
X161222282Y-86769480D01*
X161349765Y-86716675D01*
X161464497Y-86640014D01*
X161943067Y-86161443D01*
X161958878Y-86137781D01*
X161972717Y-86117069D01*
X162019725Y-86046718D01*
X162019726Y-86046714D01*
X162019729Y-86046711D01*
X162055910Y-85959363D01*
X162070735Y-85923573D01*
X162071204Y-85922438D01*
X162072534Y-85919229D01*
X162078035Y-85891572D01*
X162099454Y-85783893D01*
X162099454Y-84101400D01*
X162118361Y-84043209D01*
X162167861Y-84007245D01*
X162198454Y-84002400D01*
X167018947Y-84002400D01*
X167018948Y-84002400D01*
X167154282Y-83975480D01*
X167281765Y-83922675D01*
X167396497Y-83846014D01*
X167993068Y-83249443D01*
X167993069Y-83249440D01*
X167998711Y-83243799D01*
X167998713Y-83243795D01*
X168039068Y-83203442D01*
X168088781Y-83129042D01*
X168115725Y-83088718D01*
X168115731Y-83088706D01*
X168168534Y-82961228D01*
X168195454Y-82825893D01*
X168195454Y-81113064D01*
X168214361Y-81054873D01*
X168224444Y-81043066D01*
X168943068Y-80324443D01*
X169019729Y-80209711D01*
X169072534Y-80082228D01*
X169099454Y-79946894D01*
X169099454Y-79808906D01*
X169072534Y-79673572D01*
X169019729Y-79546089D01*
X168943068Y-79431357D01*
X168845497Y-79333786D01*
X168730765Y-79257125D01*
X168730764Y-79257124D01*
X168730762Y-79257123D01*
X168603282Y-79204320D01*
X168467950Y-79177400D01*
X168467948Y-79177400D01*
X168329960Y-79177400D01*
X168329957Y-79177400D01*
X168194626Y-79204320D01*
X168194624Y-79204320D01*
X168067145Y-79257123D01*
X167952414Y-79333783D01*
X166950837Y-80335360D01*
X166892938Y-80422014D01*
X166874177Y-80450091D01*
X166821374Y-80577570D01*
X166821374Y-80577572D01*
X166794454Y-80712904D01*
X166794454Y-82425735D01*
X166791985Y-82433332D01*
X166793235Y-82441222D01*
X166782710Y-82461877D01*
X166775547Y-82483926D01*
X166765458Y-82495739D01*
X166688793Y-82572404D01*
X166634276Y-82600181D01*
X166618789Y-82601400D01*
X161710958Y-82601400D01*
X161602545Y-82622964D01*
X161602545Y-82622965D01*
X161597191Y-82624030D01*
X161575626Y-82628319D01*
X161522818Y-82650193D01*
X161448145Y-82681123D01*
X161335557Y-82756353D01*
X161335550Y-82756358D01*
X161333411Y-82757786D01*
X161333410Y-82757787D01*
X160854844Y-83236351D01*
X160854839Y-83236357D01*
X160778177Y-83351091D01*
X160725376Y-83478565D01*
X160725373Y-83478575D01*
X160715683Y-83527293D01*
X160715683Y-83527294D01*
X160698454Y-83613906D01*
X160698454Y-85296400D01*
X160679547Y-85354591D01*
X160630047Y-85390555D01*
X160599454Y-85395400D01*
X159678958Y-85395400D01*
X159543626Y-85422320D01*
X159543624Y-85422320D01*
X159416144Y-85475124D01*
X159410770Y-85478715D01*
X159355768Y-85495400D01*
X158761896Y-85495400D01*
X158720972Y-85506365D01*
X158720971Y-85506364D01*
X158609173Y-85536321D01*
X158609172Y-85536321D01*
X158472235Y-85615382D01*
X158360433Y-85727183D01*
X158360434Y-85727184D01*
X158360432Y-85727186D01*
X158360431Y-85727186D01*
X158181651Y-85905965D01*
X158149534Y-85927425D01*
X158140522Y-85931157D01*
X158124626Y-85934320D01*
X157997143Y-85987125D01*
X157983661Y-85996132D01*
X157974654Y-85999864D01*
X157957040Y-86001250D01*
X157936768Y-86007400D01*
X157560455Y-86007400D01*
X157502264Y-85988493D01*
X157466300Y-85938993D01*
X157463359Y-85927723D01*
X157462534Y-85923572D01*
X157409729Y-85796089D01*
X157409728Y-85796087D01*
X157409725Y-85796082D01*
X157333068Y-85681358D01*
X157235495Y-85583785D01*
X157120771Y-85507128D01*
X157120760Y-85507122D01*
X156993282Y-85454320D01*
X156857949Y-85427400D01*
X156857947Y-85427400D01*
X156719961Y-85427400D01*
X156719958Y-85427400D01*
X156584626Y-85454320D01*
X156584624Y-85454320D01*
X156457147Y-85507122D01*
X156457136Y-85507128D01*
X156342412Y-85583785D01*
X156244839Y-85681358D01*
X156168182Y-85796082D01*
X156168176Y-85796093D01*
X156115374Y-85923570D01*
X156115374Y-85923572D01*
X156088454Y-86058904D01*
X155501454Y-86058904D01*
X155501454Y-77762734D01*
X155520361Y-77704543D01*
X155530444Y-77692736D01*
X157065784Y-76157395D01*
X157120301Y-76129619D01*
X157135788Y-76128400D01*
X157276946Y-76128400D01*
X157276947Y-76128400D01*
X157412282Y-76101480D01*
X157539765Y-76048675D01*
X157654496Y-75972014D01*
X157752068Y-75874442D01*
X157828729Y-75759711D01*
X157881534Y-75632228D01*
X157908454Y-75496893D01*
X157908454Y-75358907D01*
X157881534Y-75223572D01*
X157828729Y-75096089D01*
X157828728Y-75096087D01*
X157828725Y-75096082D01*
X157752068Y-74981358D01*
X157654495Y-74883785D01*
X157539771Y-74807128D01*
X157539760Y-74807122D01*
X157412282Y-74754320D01*
X157276949Y-74727400D01*
X157276947Y-74727400D01*
X157138961Y-74727400D01*
X157138958Y-74727400D01*
X157003626Y-74754320D01*
X157003624Y-74754320D01*
X156876147Y-74807122D01*
X156876136Y-74807128D01*
X156761412Y-74883785D01*
X156663839Y-74981358D01*
X156587182Y-75096082D01*
X156587176Y-75096093D01*
X156534374Y-75223570D01*
X156534374Y-75223572D01*
X156507454Y-75358904D01*
X156507454Y-75496895D01*
X156534373Y-75632226D01*
X156548871Y-75667227D01*
X156553670Y-75728224D01*
X156527410Y-75775115D01*
X156076839Y-76225686D01*
X156060625Y-76233946D01*
X156047106Y-76246121D01*
X156034033Y-76247495D01*
X156022322Y-76253463D01*
X156004352Y-76250617D01*
X155986256Y-76252520D01*
X155974872Y-76245948D01*
X155961890Y-76243892D01*
X155949023Y-76231025D01*
X155933267Y-76221929D01*
X155927920Y-76209922D01*
X155918625Y-76200627D01*
X155915778Y-76182654D01*
X155908378Y-76166035D01*
X155911110Y-76153182D01*
X155909054Y-76140195D01*
X155921094Y-76106190D01*
X155923814Y-76101480D01*
X155930161Y-76090487D01*
X155957454Y-75988627D01*
X155957454Y-74867173D01*
X155953299Y-74851666D01*
X155941953Y-74809318D01*
X155941953Y-74809317D01*
X155930161Y-74765312D01*
X155930159Y-74765308D01*
X155877437Y-74673991D01*
X155877433Y-74673986D01*
X155650853Y-74447405D01*
X155623076Y-74392889D01*
X155632647Y-74332457D01*
X155675912Y-74289192D01*
X155720857Y-74278402D01*
X162817055Y-74278402D01*
X162875246Y-74297309D01*
X162887059Y-74307398D01*
X165878839Y-77299178D01*
X165906616Y-77353695D01*
X165905934Y-77388491D01*
X165905454Y-77390901D01*
X165905454Y-77528895D01*
X165932374Y-77664227D01*
X165932374Y-77664229D01*
X165985176Y-77791706D01*
X165985183Y-77791719D01*
X165994323Y-77805397D01*
X166010933Y-77864285D01*
X165989757Y-77921689D01*
X165938884Y-77955683D01*
X165912009Y-77959400D01*
X165311788Y-77959400D01*
X165253597Y-77940493D01*
X165241784Y-77930404D01*
X162868470Y-75557090D01*
X162840693Y-75502573D01*
X162841375Y-75467777D01*
X162859454Y-75376893D01*
X162859454Y-75238907D01*
X162832534Y-75103572D01*
X162814932Y-75061077D01*
X162779731Y-74976093D01*
X162779725Y-74976082D01*
X162703068Y-74861358D01*
X162605495Y-74763785D01*
X162490771Y-74687128D01*
X162490760Y-74687122D01*
X162363282Y-74634320D01*
X162227949Y-74607400D01*
X162227947Y-74607400D01*
X162089961Y-74607400D01*
X162089958Y-74607400D01*
X161954626Y-74634320D01*
X161954624Y-74634320D01*
X161827147Y-74687122D01*
X161827136Y-74687128D01*
X161712412Y-74763785D01*
X161614839Y-74861358D01*
X161538182Y-74976082D01*
X161538176Y-74976093D01*
X161485374Y-75103570D01*
X161485374Y-75103572D01*
X161458454Y-75238904D01*
X161458454Y-75238907D01*
X161458454Y-75376893D01*
X161483453Y-75502573D01*
X161485374Y-75512227D01*
X161485374Y-75512229D01*
X161538176Y-75639706D01*
X161538182Y-75639717D01*
X161614839Y-75754441D01*
X161712412Y-75852014D01*
X161827136Y-75928671D01*
X161827147Y-75928677D01*
X161874237Y-75948182D01*
X161954626Y-75981480D01*
X162089961Y-76008400D01*
X162089962Y-76008400D01*
X162227946Y-76008400D01*
X162227947Y-76008400D01*
X162318828Y-75990322D01*
X162379586Y-75997513D01*
X162408144Y-76017416D01*
X164875487Y-78484759D01*
X164875489Y-78484762D01*
X164936092Y-78545365D01*
X164973201Y-78566789D01*
X164973203Y-78566791D01*
X165004230Y-78584705D01*
X165010315Y-78588218D01*
X165093101Y-78610401D01*
X165093103Y-78610401D01*
X165184870Y-78610401D01*
X165184886Y-78610400D01*
X169624805Y-78610400D01*
X169624807Y-78610400D01*
X169707592Y-78588218D01*
X169781816Y-78545365D01*
X169842419Y-78484762D01*
X169885272Y-78410538D01*
X169907454Y-78327753D01*
X169907454Y-69556008D01*
X169926361Y-69497817D01*
X169936450Y-69486004D01*
X170640332Y-68782122D01*
X171350062Y-68072391D01*
X171404577Y-68044616D01*
X171465009Y-68054187D01*
X171508274Y-68097452D01*
X171517161Y-68123080D01*
X171520372Y-68139222D01*
X171520374Y-68139229D01*
X171573176Y-68266706D01*
X171573182Y-68266717D01*
X171633438Y-68356895D01*
X171649840Y-68381442D01*
X171747412Y-68479014D01*
X171806769Y-68518675D01*
X171824456Y-68530493D01*
X171862335Y-68578543D01*
X171868454Y-68612808D01*
X171868454Y-86047065D01*
X171849547Y-86105256D01*
X171839458Y-86117069D01*
X169167123Y-88789404D01*
X169112606Y-88817181D01*
X169097119Y-88818400D01*
X164984144Y-88818400D01*
X164925953Y-88799493D01*
X164901829Y-88774403D01*
X164873068Y-88731358D01*
X164775496Y-88633786D01*
X164775495Y-88633785D01*
X164660771Y-88557128D01*
X164660760Y-88557122D01*
X164533282Y-88504320D01*
X164397949Y-88477400D01*
X164397947Y-88477400D01*
X164259961Y-88477400D01*
X164259958Y-88477400D01*
X164124626Y-88504320D01*
X164124624Y-88504320D01*
X163997147Y-88557122D01*
X163997136Y-88557128D01*
X163882412Y-88633785D01*
X163784839Y-88731358D01*
X163708182Y-88846082D01*
X163708176Y-88846093D01*
X163655374Y-88973570D01*
X163655374Y-88973572D01*
X163628454Y-89108904D01*
X163628454Y-89246895D01*
X163655374Y-89382227D01*
X163655374Y-89382229D01*
X163708176Y-89509706D01*
X163708182Y-89509717D01*
X163784839Y-89624441D01*
X163882412Y-89722014D01*
X163997136Y-89798671D01*
X163997147Y-89798677D01*
X164044237Y-89818182D01*
X164124626Y-89851480D01*
X164259961Y-89878400D01*
X164259962Y-89878400D01*
X164397946Y-89878400D01*
X164397947Y-89878400D01*
X164533282Y-89851480D01*
X164660765Y-89798675D01*
X164775496Y-89722014D01*
X164873068Y-89624442D01*
X164928100Y-89542080D01*
X164947266Y-89513398D01*
X164995316Y-89475519D01*
X165029581Y-89469400D01*
X169315805Y-89469400D01*
X169315807Y-89469400D01*
X169398593Y-89447218D01*
X169398595Y-89447216D01*
X169398597Y-89447216D01*
X169472811Y-89404368D01*
X169472811Y-89404367D01*
X169472816Y-89404365D01*
X172393813Y-86483366D01*
X172393816Y-86483365D01*
X172454419Y-86422762D01*
X172481351Y-86376115D01*
X172497272Y-86348539D01*
X172519454Y-86265753D01*
X172519454Y-86180047D01*
X172519454Y-76749903D01*
X172538361Y-76691712D01*
X172587861Y-76655748D01*
X172649047Y-76655748D01*
X172698547Y-76691712D01*
X172715552Y-76730589D01*
X172735372Y-76830229D01*
X172735372Y-76830231D01*
X172788174Y-76957708D01*
X172788180Y-76957719D01*
X172859644Y-77064671D01*
X172864838Y-77072444D01*
X172962410Y-77170016D01*
X173026842Y-77213068D01*
X173039454Y-77221495D01*
X173077333Y-77269545D01*
X173083452Y-77303810D01*
X173083452Y-88400047D01*
X173083452Y-88485753D01*
X173103014Y-88558763D01*
X173105635Y-88568543D01*
X173148483Y-88642757D01*
X173148484Y-88642758D01*
X173148485Y-88642759D01*
X173148487Y-88642762D01*
X174015431Y-89509706D01*
X174859437Y-90353712D01*
X174887214Y-90408229D01*
X174886531Y-90443030D01*
X174868454Y-90533906D01*
X174868454Y-90671897D01*
X174895374Y-90807229D01*
X174895374Y-90807231D01*
X174948176Y-90934708D01*
X174948182Y-90934719D01*
X175024839Y-91049443D01*
X175122412Y-91147016D01*
X175237136Y-91223673D01*
X175237147Y-91223679D01*
X175284237Y-91243184D01*
X175364626Y-91276482D01*
X175499961Y-91303402D01*
X175499962Y-91303402D01*
X175637946Y-91303402D01*
X175637947Y-91303402D01*
X175773282Y-91276482D01*
X175900765Y-91223677D01*
X176015496Y-91147016D01*
X176113068Y-91049444D01*
X176189729Y-90934713D01*
X176242534Y-90807230D01*
X176246356Y-90788014D01*
X176276253Y-90734631D01*
X176331818Y-90709015D01*
X176391828Y-90720952D01*
X176433360Y-90765882D01*
X176442454Y-90807329D01*
X176442454Y-92018656D01*
X176423547Y-92076847D01*
X176413458Y-92088660D01*
X168388461Y-100113657D01*
X168329154Y-100216379D01*
X168329154Y-100216380D01*
X168329155Y-100216381D01*
X168298454Y-100330958D01*
X168298454Y-118197209D01*
X168322667Y-118287573D01*
X168322666Y-118287573D01*
X168329154Y-118311786D01*
X168329156Y-118311790D01*
X168388461Y-118414509D01*
X168388462Y-118414510D01*
X168388463Y-118414511D01*
X168388465Y-118414514D01*
X169917340Y-119943390D01*
X170020068Y-120002699D01*
X170134645Y-120033400D01*
X170134647Y-120033400D01*
X191386473Y-120033400D01*
X191476833Y-120009187D01*
X191476836Y-120009187D01*
X191490067Y-120005641D01*
X191501051Y-120002699D01*
X191603778Y-119943389D01*
X193541978Y-118005188D01*
X193596493Y-117977413D01*
X193631295Y-117978096D01*
X193643975Y-117980619D01*
X193652922Y-117982399D01*
X193652925Y-117982399D01*
X193652928Y-117982400D01*
X193652929Y-117982400D01*
X193811399Y-117982400D01*
X193811400Y-117982400D01*
X193966828Y-117951484D01*
X194113238Y-117890839D01*
X194245003Y-117802796D01*
X194357060Y-117690739D01*
X194445103Y-117558974D01*
X194505748Y-117412564D01*
X194536664Y-117257136D01*
X194536664Y-117098664D01*
X194505748Y-116943236D01*
X194445103Y-116796826D01*
X194357060Y-116665061D01*
X194245003Y-116553004D01*
X194180215Y-116509713D01*
X194142337Y-116461665D01*
X194139935Y-116400527D01*
X194173928Y-116349653D01*
X194231332Y-116328476D01*
X194235218Y-116328400D01*
X207030018Y-116328400D01*
X207030034Y-116328401D01*
X207036097Y-116328401D01*
X207194210Y-116328401D01*
X207194211Y-116328401D01*
X207346939Y-116287477D01*
X207397058Y-116258539D01*
X207483870Y-116208420D01*
X207595674Y-116096616D01*
X207595675Y-116096613D01*
X210257130Y-113435157D01*
X210311645Y-113407382D01*
X210342619Y-113407382D01*
X210514470Y-113434600D01*
X210514473Y-113434600D01*
X210703438Y-113434600D01*
X210890067Y-113405041D01*
X210890068Y-113405040D01*
X210890072Y-113405040D01*
X211069786Y-113346647D01*
X211238153Y-113260860D01*
X211391027Y-113149790D01*
X211524644Y-113016173D01*
X211635714Y-112863299D01*
X211721501Y-112694932D01*
X211779894Y-112515218D01*
X211780394Y-112512061D01*
X211809454Y-112328584D01*
X211809454Y-112139615D01*
X211779895Y-111952986D01*
X211766021Y-111910286D01*
X211721501Y-111773268D01*
X211635714Y-111604901D01*
X211524644Y-111452027D01*
X211391027Y-111318410D01*
X211238153Y-111207340D01*
X211238152Y-111207339D01*
X211238150Y-111207338D01*
X211069786Y-111121553D01*
X210890067Y-111063158D01*
X210703438Y-111033600D01*
X210703435Y-111033600D01*
X210514473Y-111033600D01*
X210514470Y-111033600D01*
X210327840Y-111063158D01*
X210148121Y-111121553D01*
X209979757Y-111207338D01*
X209826882Y-111318409D01*
X209693263Y-111452028D01*
X209582192Y-111604903D01*
X209496407Y-111773267D01*
X209438012Y-111952986D01*
X209408454Y-112139615D01*
X209408454Y-112328585D01*
X209435671Y-112500433D01*
X209426099Y-112560865D01*
X209407894Y-112585923D01*
X206895415Y-115098404D01*
X206840898Y-115126181D01*
X206825411Y-115127400D01*
X193012899Y-115127400D01*
X192954708Y-115108493D01*
X192918744Y-115058993D01*
X192918744Y-114997807D01*
X192930585Y-114973397D01*
X192939724Y-114959719D01*
X192939725Y-114959716D01*
X192939729Y-114959711D01*
X192992534Y-114832228D01*
X193019454Y-114696893D01*
X193019454Y-114558907D01*
X192992534Y-114423572D01*
X192939729Y-114296089D01*
X192939728Y-114296087D01*
X192939725Y-114296082D01*
X192863068Y-114181358D01*
X192798450Y-114116740D01*
X192770673Y-114062223D01*
X192769454Y-114046736D01*
X192769454Y-112638592D01*
X192769454Y-112638591D01*
X192738753Y-112524014D01*
X192699042Y-112455233D01*
X192679443Y-112421286D01*
X192405072Y-112146915D01*
X194265754Y-112146915D01*
X194265754Y-112335884D01*
X194295312Y-112522513D01*
X194353707Y-112702232D01*
X194435772Y-112863296D01*
X194439494Y-112870599D01*
X194550564Y-113023473D01*
X194684181Y-113157090D01*
X194837055Y-113268160D01*
X195005422Y-113353947D01*
X195185136Y-113412340D01*
X195185137Y-113412340D01*
X195185140Y-113412341D01*
X195371770Y-113441900D01*
X195371773Y-113441900D01*
X195560738Y-113441900D01*
X195747367Y-113412341D01*
X195747368Y-113412340D01*
X195747372Y-113412340D01*
X195927086Y-113353947D01*
X196095453Y-113268160D01*
X196248327Y-113157090D01*
X196381944Y-113023473D01*
X196493014Y-112870599D01*
X196578801Y-112702232D01*
X196637194Y-112522518D01*
X196647851Y-112455232D01*
X196666754Y-112335884D01*
X196666754Y-112146915D01*
X196665598Y-112139615D01*
X199223054Y-112139615D01*
X199223054Y-112328584D01*
X199252612Y-112515213D01*
X199311007Y-112694932D01*
X199381181Y-112832658D01*
X199396794Y-112863299D01*
X199507864Y-113016173D01*
X199641481Y-113149790D01*
X199794355Y-113260860D01*
X199962722Y-113346647D01*
X200142436Y-113405040D01*
X200142437Y-113405040D01*
X200142440Y-113405041D01*
X200329070Y-113434600D01*
X200329073Y-113434600D01*
X200518038Y-113434600D01*
X200704667Y-113405041D01*
X200704668Y-113405040D01*
X200704672Y-113405040D01*
X200884386Y-113346647D01*
X201052753Y-113260860D01*
X201205627Y-113149790D01*
X201339244Y-113016173D01*
X201450314Y-112863299D01*
X201536101Y-112694932D01*
X201594494Y-112515218D01*
X201594994Y-112512061D01*
X201624054Y-112328584D01*
X201624054Y-112139615D01*
X201594495Y-111952986D01*
X201580621Y-111910286D01*
X201536101Y-111773268D01*
X201450314Y-111604901D01*
X201339244Y-111452027D01*
X201205627Y-111318410D01*
X201052753Y-111207340D01*
X201052752Y-111207339D01*
X201052750Y-111207338D01*
X200884386Y-111121553D01*
X200704667Y-111063158D01*
X200518038Y-111033600D01*
X200518035Y-111033600D01*
X200329073Y-111033600D01*
X200329070Y-111033600D01*
X200142440Y-111063158D01*
X199962721Y-111121553D01*
X199794357Y-111207338D01*
X199641482Y-111318409D01*
X199507863Y-111452028D01*
X199396792Y-111604903D01*
X199311007Y-111773267D01*
X199252612Y-111952986D01*
X199223054Y-112139615D01*
X196665598Y-112139615D01*
X196637195Y-111960286D01*
X196612144Y-111883188D01*
X196578801Y-111780568D01*
X196493014Y-111612201D01*
X196381944Y-111459327D01*
X196248327Y-111325710D01*
X196095453Y-111214640D01*
X196095452Y-111214639D01*
X196095450Y-111214638D01*
X195927086Y-111128853D01*
X195747367Y-111070458D01*
X195560738Y-111040900D01*
X195560735Y-111040900D01*
X195371773Y-111040900D01*
X195371770Y-111040900D01*
X195185140Y-111070458D01*
X195005421Y-111128853D01*
X194837057Y-111214638D01*
X194684182Y-111325709D01*
X194550563Y-111459328D01*
X194439492Y-111612203D01*
X194353707Y-111780567D01*
X194295312Y-111960286D01*
X194265754Y-112146915D01*
X192405072Y-112146915D01*
X185785750Y-105527593D01*
X185757973Y-105473076D01*
X185756754Y-105457589D01*
X185756754Y-103183679D01*
X185775661Y-103125488D01*
X185810809Y-103095469D01*
X185935453Y-103031960D01*
X186088327Y-102920890D01*
X186221944Y-102787273D01*
X186333014Y-102634399D01*
X186418801Y-102466032D01*
X186477194Y-102286318D01*
X186497587Y-102157560D01*
X186506754Y-102099684D01*
X186506754Y-101910715D01*
X186477195Y-101724086D01*
X186469227Y-101699562D01*
X186418801Y-101544368D01*
X186333014Y-101376001D01*
X186221944Y-101223127D01*
X186088327Y-101089510D01*
X185935453Y-100978440D01*
X185935452Y-100978439D01*
X185935450Y-100978438D01*
X185767086Y-100892653D01*
X185587367Y-100834258D01*
X185400738Y-100804700D01*
X185400735Y-100804700D01*
X185211773Y-100804700D01*
X185211770Y-100804700D01*
X185025140Y-100834258D01*
X184845421Y-100892653D01*
X184677057Y-100978438D01*
X184524182Y-101089509D01*
X184390563Y-101223128D01*
X184279492Y-101376003D01*
X184193707Y-101544367D01*
X184135312Y-101724086D01*
X184105754Y-101910715D01*
X184105754Y-102099684D01*
X184135312Y-102286313D01*
X184193707Y-102466032D01*
X184275772Y-102627096D01*
X184279494Y-102634399D01*
X184390564Y-102787273D01*
X184524181Y-102920890D01*
X184677055Y-103031960D01*
X184790645Y-103089837D01*
X184801699Y-103095469D01*
X184844964Y-103138734D01*
X184855754Y-103183679D01*
X184855754Y-105744509D01*
X184879967Y-105834873D01*
X184879966Y-105834873D01*
X184886454Y-105859086D01*
X184886456Y-105859090D01*
X184945761Y-105961809D01*
X184945763Y-105961811D01*
X184945765Y-105961814D01*
X191839459Y-112855508D01*
X191867235Y-112910023D01*
X191868454Y-112925510D01*
X191868454Y-114046736D01*
X191849547Y-114104927D01*
X191839458Y-114116740D01*
X191774843Y-114181354D01*
X191774839Y-114181358D01*
X191698182Y-114296082D01*
X191698176Y-114296093D01*
X191645374Y-114423570D01*
X191645374Y-114423572D01*
X191618454Y-114558904D01*
X191618454Y-114696895D01*
X191645374Y-114832227D01*
X191645374Y-114832229D01*
X191698176Y-114959706D01*
X191698183Y-114959719D01*
X191707323Y-114973397D01*
X191723933Y-115032285D01*
X191702757Y-115089689D01*
X191651884Y-115123683D01*
X191625009Y-115127400D01*
X182771590Y-115127400D01*
X182771574Y-115127399D01*
X182765511Y-115127399D01*
X182607397Y-115127399D01*
X182454669Y-115168323D01*
X182454667Y-115168323D01*
X182454663Y-115168325D01*
X182404549Y-115197259D01*
X182317738Y-115247379D01*
X182205933Y-115359183D01*
X182205934Y-115359184D01*
X182205932Y-115359186D01*
X181283215Y-116281904D01*
X181228698Y-116309681D01*
X181213211Y-116310900D01*
X180575206Y-116310900D01*
X180575205Y-116310900D01*
X180575195Y-116310901D01*
X180516726Y-116322532D01*
X180516720Y-116322534D01*
X180450405Y-116366845D01*
X180450399Y-116366851D01*
X180406088Y-116433166D01*
X180406086Y-116433172D01*
X180394455Y-116491641D01*
X180394454Y-116491653D01*
X180394454Y-117839146D01*
X180394455Y-117839158D01*
X180406086Y-117897627D01*
X180406088Y-117897633D01*
X180441945Y-117951296D01*
X180450402Y-117963952D01*
X180516723Y-118008267D01*
X180561185Y-118017111D01*
X180575195Y-118019898D01*
X180575200Y-118019898D01*
X180575206Y-118019900D01*
X180575207Y-118019900D01*
X181922701Y-118019900D01*
X181922702Y-118019900D01*
X181981185Y-118008267D01*
X182047506Y-117963952D01*
X182091821Y-117897631D01*
X182103454Y-117839148D01*
X182103454Y-117201141D01*
X182105922Y-117193543D01*
X182104673Y-117185654D01*
X182115197Y-117164998D01*
X182122361Y-117142950D01*
X182132438Y-117131150D01*
X182225453Y-117038135D01*
X182279967Y-117010360D01*
X182340399Y-117019931D01*
X182383664Y-117063196D01*
X182394454Y-117108141D01*
X182394454Y-117249563D01*
X182410587Y-117330669D01*
X182426877Y-117412565D01*
X182427292Y-117414648D01*
X182427292Y-117414650D01*
X182491704Y-117570155D01*
X182572274Y-117690738D01*
X182585220Y-117710112D01*
X182704242Y-117829134D01*
X182844196Y-117922648D01*
X182844197Y-117922648D01*
X182844198Y-117922649D01*
X182853384Y-117926454D01*
X182999705Y-117987062D01*
X183164793Y-118019900D01*
X183164794Y-118019900D01*
X183333114Y-118019900D01*
X183333115Y-118019900D01*
X183498203Y-117987062D01*
X183653712Y-117922648D01*
X183793666Y-117829134D01*
X183912688Y-117710112D01*
X184006202Y-117570158D01*
X184070616Y-117414649D01*
X184103454Y-117249561D01*
X184103454Y-117081239D01*
X184070616Y-116916151D01*
X184006202Y-116760642D01*
X183912688Y-116620688D01*
X183793666Y-116501666D01*
X183793662Y-116501663D01*
X183790226Y-116498227D01*
X183791779Y-116496673D01*
X183763437Y-116452405D01*
X183767034Y-116391325D01*
X183805845Y-116344025D01*
X183859227Y-116328400D01*
X184638681Y-116328400D01*
X184696872Y-116347307D01*
X184732836Y-116396807D01*
X184732836Y-116457993D01*
X184706310Y-116496855D01*
X184707682Y-116498227D01*
X184704246Y-116501663D01*
X184704242Y-116501666D01*
X184585220Y-116620688D01*
X184585217Y-116620691D01*
X184491704Y-116760644D01*
X184427292Y-116916149D01*
X184427292Y-116916151D01*
X184394454Y-117081236D01*
X184394454Y-117249563D01*
X184410587Y-117330669D01*
X184426877Y-117412565D01*
X184427292Y-117414648D01*
X184427292Y-117414650D01*
X184491704Y-117570155D01*
X184572274Y-117690738D01*
X184585220Y-117710112D01*
X184704242Y-117829134D01*
X184844196Y-117922648D01*
X184844197Y-117922648D01*
X184844198Y-117922649D01*
X184853384Y-117926454D01*
X184999705Y-117987062D01*
X185164793Y-118019900D01*
X185164794Y-118019900D01*
X185333114Y-118019900D01*
X185333115Y-118019900D01*
X185498203Y-117987062D01*
X185653712Y-117922648D01*
X185793666Y-117829134D01*
X185912688Y-117710112D01*
X186006202Y-117570158D01*
X186070616Y-117414649D01*
X186103454Y-117249561D01*
X186103454Y-117081239D01*
X186070616Y-116916151D01*
X186006202Y-116760642D01*
X185912688Y-116620688D01*
X185793666Y-116501666D01*
X185793662Y-116501663D01*
X185790226Y-116498227D01*
X185791779Y-116496673D01*
X185763437Y-116452405D01*
X185767034Y-116391325D01*
X185805845Y-116344025D01*
X185859227Y-116328400D01*
X190865847Y-116328400D01*
X190924038Y-116347307D01*
X190960002Y-116396807D01*
X190960002Y-116457993D01*
X190948162Y-116482402D01*
X190939298Y-116495666D01*
X190939296Y-116495672D01*
X190927665Y-116554141D01*
X190927664Y-116554153D01*
X190927664Y-117801646D01*
X190927665Y-117801658D01*
X190939296Y-117860127D01*
X190939298Y-117860133D01*
X190983609Y-117926448D01*
X190983612Y-117926452D01*
X191049933Y-117970767D01*
X191094395Y-117979611D01*
X191108405Y-117982398D01*
X191108410Y-117982398D01*
X191108416Y-117982400D01*
X192051552Y-117982400D01*
X192109743Y-118001307D01*
X192145707Y-118050807D01*
X192145707Y-118111993D01*
X192121556Y-118151404D01*
X191169557Y-119103404D01*
X191115040Y-119131181D01*
X191099553Y-119132400D01*
X170421566Y-119132400D01*
X170363375Y-119113493D01*
X170351562Y-119103404D01*
X169228450Y-117980292D01*
X169200673Y-117925775D01*
X169199454Y-117910288D01*
X169199454Y-116491653D01*
X170894454Y-116491653D01*
X170894454Y-117839146D01*
X170894455Y-117839158D01*
X170906086Y-117897627D01*
X170906088Y-117897633D01*
X170941945Y-117951296D01*
X170950402Y-117963952D01*
X171016723Y-118008267D01*
X171061185Y-118017111D01*
X171075195Y-118019898D01*
X171075200Y-118019898D01*
X171075206Y-118019900D01*
X171075207Y-118019900D01*
X172422701Y-118019900D01*
X172422702Y-118019900D01*
X172481185Y-118008267D01*
X172547506Y-117963952D01*
X172591821Y-117897631D01*
X172603454Y-117839148D01*
X172603454Y-117081236D01*
X172894454Y-117081236D01*
X172894454Y-117249563D01*
X172910587Y-117330669D01*
X172926877Y-117412565D01*
X172927292Y-117414648D01*
X172927292Y-117414650D01*
X172991704Y-117570155D01*
X173072274Y-117690738D01*
X173085220Y-117710112D01*
X173204242Y-117829134D01*
X173344196Y-117922648D01*
X173344197Y-117922648D01*
X173344198Y-117922649D01*
X173353384Y-117926454D01*
X173499705Y-117987062D01*
X173664793Y-118019900D01*
X173664794Y-118019900D01*
X173833114Y-118019900D01*
X173833115Y-118019900D01*
X173998203Y-117987062D01*
X174153712Y-117922648D01*
X174293666Y-117829134D01*
X174412688Y-117710112D01*
X174506202Y-117570158D01*
X174570616Y-117414649D01*
X174603454Y-117249561D01*
X174603454Y-117081239D01*
X174603453Y-117081236D01*
X174894454Y-117081236D01*
X174894454Y-117249563D01*
X174910587Y-117330669D01*
X174926877Y-117412565D01*
X174927292Y-117414648D01*
X174927292Y-117414650D01*
X174991704Y-117570155D01*
X175072274Y-117690738D01*
X175085220Y-117710112D01*
X175204242Y-117829134D01*
X175344196Y-117922648D01*
X175344197Y-117922648D01*
X175344198Y-117922649D01*
X175353384Y-117926454D01*
X175499705Y-117987062D01*
X175664793Y-118019900D01*
X175664794Y-118019900D01*
X175833114Y-118019900D01*
X175833115Y-118019900D01*
X175998203Y-117987062D01*
X176153712Y-117922648D01*
X176293666Y-117829134D01*
X176412688Y-117710112D01*
X176506202Y-117570158D01*
X176570616Y-117414649D01*
X176603454Y-117249561D01*
X176603454Y-117081239D01*
X176570616Y-116916151D01*
X176506202Y-116760642D01*
X176412688Y-116620688D01*
X176293666Y-116501666D01*
X176288519Y-116498227D01*
X176153709Y-116408150D01*
X175998203Y-116343738D01*
X175833117Y-116310900D01*
X175833115Y-116310900D01*
X175664793Y-116310900D01*
X175664790Y-116310900D01*
X175499705Y-116343738D01*
X175499703Y-116343738D01*
X175344198Y-116408150D01*
X175204245Y-116501663D01*
X175085217Y-116620691D01*
X174991704Y-116760644D01*
X174927292Y-116916149D01*
X174927292Y-116916151D01*
X174894454Y-117081236D01*
X174603453Y-117081236D01*
X174570616Y-116916151D01*
X174506202Y-116760642D01*
X174412688Y-116620688D01*
X174293666Y-116501666D01*
X174288519Y-116498227D01*
X174153709Y-116408150D01*
X173998203Y-116343738D01*
X173833117Y-116310900D01*
X173833115Y-116310900D01*
X173664793Y-116310900D01*
X173664790Y-116310900D01*
X173499705Y-116343738D01*
X173499703Y-116343738D01*
X173344198Y-116408150D01*
X173204245Y-116501663D01*
X173085217Y-116620691D01*
X172991704Y-116760644D01*
X172927292Y-116916149D01*
X172927292Y-116916151D01*
X172894454Y-117081236D01*
X172603454Y-117081236D01*
X172603454Y-116491652D01*
X172591821Y-116433169D01*
X172547506Y-116366848D01*
X172547502Y-116366845D01*
X172481187Y-116322534D01*
X172481185Y-116322533D01*
X172481182Y-116322532D01*
X172481181Y-116322532D01*
X172422712Y-116310901D01*
X172422702Y-116310900D01*
X171075206Y-116310900D01*
X171075205Y-116310900D01*
X171075195Y-116310901D01*
X171016726Y-116322532D01*
X171016720Y-116322534D01*
X170950405Y-116366845D01*
X170950399Y-116366851D01*
X170906088Y-116433166D01*
X170906086Y-116433172D01*
X170894455Y-116491641D01*
X170894454Y-116491653D01*
X169199454Y-116491653D01*
X169199454Y-112981264D01*
X169218361Y-112923073D01*
X169267861Y-112887109D01*
X169329047Y-112887109D01*
X169378545Y-112923071D01*
X169415164Y-112973473D01*
X169548781Y-113107090D01*
X169701655Y-113218160D01*
X169870022Y-113303947D01*
X170049736Y-113362340D01*
X170049737Y-113362340D01*
X170049740Y-113362341D01*
X170236370Y-113391900D01*
X170236373Y-113391900D01*
X170425338Y-113391900D01*
X170611967Y-113362341D01*
X170611968Y-113362340D01*
X170611972Y-113362340D01*
X170791686Y-113303947D01*
X170960053Y-113218160D01*
X171112927Y-113107090D01*
X171246544Y-112973473D01*
X171357614Y-112820599D01*
X171443401Y-112652232D01*
X171501794Y-112472518D01*
X171501795Y-112472513D01*
X171531354Y-112285884D01*
X171531354Y-112096915D01*
X179315754Y-112096915D01*
X179315754Y-112285884D01*
X179345312Y-112472513D01*
X179403707Y-112652232D01*
X179432788Y-112709308D01*
X179489494Y-112820599D01*
X179600564Y-112973473D01*
X179734181Y-113107090D01*
X179887055Y-113218160D01*
X180055422Y-113303947D01*
X180235136Y-113362340D01*
X180235137Y-113362340D01*
X180235140Y-113362341D01*
X180421770Y-113391900D01*
X180421773Y-113391900D01*
X180610738Y-113391900D01*
X180797367Y-113362341D01*
X180797368Y-113362340D01*
X180797372Y-113362340D01*
X180977086Y-113303947D01*
X181145453Y-113218160D01*
X181298327Y-113107090D01*
X181431944Y-112973473D01*
X181543014Y-112820599D01*
X181628801Y-112652232D01*
X181687194Y-112472518D01*
X181687195Y-112472513D01*
X181716754Y-112285884D01*
X181716754Y-112146915D01*
X184080354Y-112146915D01*
X184080354Y-112335884D01*
X184109912Y-112522513D01*
X184168307Y-112702232D01*
X184250372Y-112863296D01*
X184254094Y-112870599D01*
X184365164Y-113023473D01*
X184498781Y-113157090D01*
X184651655Y-113268160D01*
X184820022Y-113353947D01*
X184999736Y-113412340D01*
X184999737Y-113412340D01*
X184999740Y-113412341D01*
X185186370Y-113441900D01*
X185186373Y-113441900D01*
X185375338Y-113441900D01*
X185561967Y-113412341D01*
X185561968Y-113412340D01*
X185561972Y-113412340D01*
X185741686Y-113353947D01*
X185910053Y-113268160D01*
X186062927Y-113157090D01*
X186196544Y-113023473D01*
X186307614Y-112870599D01*
X186393401Y-112702232D01*
X186451794Y-112522518D01*
X186462451Y-112455232D01*
X186481354Y-112335884D01*
X186481354Y-112146915D01*
X186451795Y-111960286D01*
X186426744Y-111883188D01*
X186393401Y-111780568D01*
X186307614Y-111612201D01*
X186196544Y-111459327D01*
X186062927Y-111325710D01*
X185910053Y-111214640D01*
X185910052Y-111214639D01*
X185910050Y-111214638D01*
X185741686Y-111128853D01*
X185561967Y-111070458D01*
X185375338Y-111040900D01*
X185375335Y-111040900D01*
X185186373Y-111040900D01*
X185186370Y-111040900D01*
X184999740Y-111070458D01*
X184820021Y-111128853D01*
X184651657Y-111214638D01*
X184498782Y-111325709D01*
X184365163Y-111459328D01*
X184254092Y-111612203D01*
X184168307Y-111780567D01*
X184109912Y-111960286D01*
X184080354Y-112146915D01*
X181716754Y-112146915D01*
X181716754Y-112096915D01*
X181687195Y-111910286D01*
X181687194Y-111910282D01*
X181628801Y-111730568D01*
X181543014Y-111562201D01*
X181431944Y-111409327D01*
X181298327Y-111275710D01*
X181145453Y-111164640D01*
X181145452Y-111164639D01*
X181145450Y-111164638D01*
X180977086Y-111078853D01*
X180797367Y-111020458D01*
X180610738Y-110990900D01*
X180610735Y-110990900D01*
X180421773Y-110990900D01*
X180421770Y-110990900D01*
X180235140Y-111020458D01*
X180055421Y-111078853D01*
X179887057Y-111164638D01*
X179734182Y-111275709D01*
X179600563Y-111409328D01*
X179489492Y-111562203D01*
X179403707Y-111730567D01*
X179345312Y-111910286D01*
X179315754Y-112096915D01*
X171531354Y-112096915D01*
X171501795Y-111910286D01*
X171501794Y-111910282D01*
X171443401Y-111730568D01*
X171357614Y-111562201D01*
X171246544Y-111409327D01*
X171112927Y-111275710D01*
X170960053Y-111164640D01*
X170960052Y-111164639D01*
X170960050Y-111164638D01*
X170791686Y-111078853D01*
X170611967Y-111020458D01*
X170425338Y-110990900D01*
X170425335Y-110990900D01*
X170236373Y-110990900D01*
X170236370Y-110990900D01*
X170049740Y-111020458D01*
X169870021Y-111078853D01*
X169701657Y-111164638D01*
X169548782Y-111275709D01*
X169415159Y-111409332D01*
X169378546Y-111459726D01*
X169329046Y-111495690D01*
X169267861Y-111495689D01*
X169218361Y-111459725D01*
X169199454Y-111401535D01*
X169199454Y-102710104D01*
X169218361Y-102651913D01*
X169267861Y-102615949D01*
X169329047Y-102615949D01*
X169378544Y-102651911D01*
X169440564Y-102737273D01*
X169574181Y-102870890D01*
X169727055Y-102981960D01*
X169895422Y-103067747D01*
X170075136Y-103126140D01*
X170075137Y-103126140D01*
X170075140Y-103126141D01*
X170261770Y-103155700D01*
X170261773Y-103155700D01*
X170450738Y-103155700D01*
X170637367Y-103126141D01*
X170637368Y-103126140D01*
X170637372Y-103126140D01*
X170817086Y-103067747D01*
X170985453Y-102981960D01*
X171138327Y-102870890D01*
X171271944Y-102737273D01*
X171383014Y-102584399D01*
X171468801Y-102416032D01*
X171527194Y-102236318D01*
X171527195Y-102236313D01*
X171556754Y-102049684D01*
X171556754Y-101860715D01*
X171527195Y-101674086D01*
X171527194Y-101674082D01*
X171468801Y-101494368D01*
X171383014Y-101326001D01*
X171271944Y-101173127D01*
X171138327Y-101039510D01*
X170985453Y-100928440D01*
X170985452Y-100928439D01*
X170985450Y-100928438D01*
X170817086Y-100842653D01*
X170637367Y-100784258D01*
X170450738Y-100754700D01*
X170450735Y-100754700D01*
X170261773Y-100754700D01*
X170261770Y-100754700D01*
X170075140Y-100784258D01*
X169895421Y-100842653D01*
X169727057Y-100928438D01*
X169574182Y-101039509D01*
X169440559Y-101173132D01*
X169378546Y-101258486D01*
X169329046Y-101294450D01*
X169267861Y-101294449D01*
X169218361Y-101258485D01*
X169199454Y-101200295D01*
X169199454Y-100617877D01*
X169218361Y-100559686D01*
X169228444Y-100547879D01*
X170379408Y-99396915D01*
X174134154Y-99396915D01*
X174134154Y-99585884D01*
X174163712Y-99772513D01*
X174222107Y-99952232D01*
X174304356Y-100113657D01*
X174307894Y-100120599D01*
X174418964Y-100273473D01*
X174552581Y-100407090D01*
X174705455Y-100518160D01*
X174873822Y-100603947D01*
X175053536Y-100662340D01*
X175053537Y-100662340D01*
X175053540Y-100662341D01*
X175240170Y-100691900D01*
X175240173Y-100691900D01*
X175429138Y-100691900D01*
X175615767Y-100662341D01*
X175615768Y-100662340D01*
X175615772Y-100662340D01*
X175795486Y-100603947D01*
X175963853Y-100518160D01*
X176116727Y-100407090D01*
X176250344Y-100273473D01*
X176361414Y-100120599D01*
X176447201Y-99952232D01*
X176505594Y-99772518D01*
X176516476Y-99703813D01*
X176535154Y-99585884D01*
X176535154Y-99396915D01*
X176505595Y-99210286D01*
X176465746Y-99087644D01*
X176447201Y-99030568D01*
X176361414Y-98862201D01*
X176250344Y-98709327D01*
X176116727Y-98575710D01*
X175963853Y-98464640D01*
X175963852Y-98464639D01*
X175963850Y-98464638D01*
X175795486Y-98378853D01*
X175615767Y-98320458D01*
X175429138Y-98290900D01*
X175429135Y-98290900D01*
X175240173Y-98290900D01*
X175240170Y-98290900D01*
X175053540Y-98320458D01*
X174873821Y-98378853D01*
X174705457Y-98464638D01*
X174552582Y-98575709D01*
X174418963Y-98709328D01*
X174307892Y-98862203D01*
X174222107Y-99030567D01*
X174163712Y-99210286D01*
X174134154Y-99396915D01*
X170379408Y-99396915D01*
X173081219Y-96695104D01*
X174548454Y-96695104D01*
X174548454Y-96833095D01*
X174575374Y-96968427D01*
X174575374Y-96968429D01*
X174628176Y-97095906D01*
X174628182Y-97095917D01*
X174704839Y-97210641D01*
X174802412Y-97308214D01*
X174917136Y-97384871D01*
X174917147Y-97384877D01*
X174941601Y-97395006D01*
X175044626Y-97437680D01*
X175179961Y-97464600D01*
X175271343Y-97464600D01*
X175329534Y-97483507D01*
X175341347Y-97493596D01*
X179338992Y-101491241D01*
X179366769Y-101545758D01*
X179363143Y-101591838D01*
X179319912Y-101724886D01*
X179290354Y-101911515D01*
X179290354Y-102100484D01*
X179319912Y-102287113D01*
X179378307Y-102466832D01*
X179463684Y-102634396D01*
X179464094Y-102635199D01*
X179575164Y-102788073D01*
X179708781Y-102921690D01*
X179861655Y-103032760D01*
X180030022Y-103118547D01*
X180209736Y-103176940D01*
X180209737Y-103176940D01*
X180209740Y-103176941D01*
X180396370Y-103206500D01*
X180396373Y-103206500D01*
X180585338Y-103206500D01*
X180771967Y-103176941D01*
X180771968Y-103176940D01*
X180771972Y-103176940D01*
X180951686Y-103118547D01*
X181120053Y-103032760D01*
X181272927Y-102921690D01*
X181406544Y-102788073D01*
X181517614Y-102635199D01*
X181603401Y-102466832D01*
X181661794Y-102287118D01*
X181661921Y-102286318D01*
X181691354Y-102100484D01*
X181691354Y-101911515D01*
X181661795Y-101724886D01*
X181653567Y-101699562D01*
X181603401Y-101545168D01*
X181517614Y-101376801D01*
X181406544Y-101223927D01*
X181272927Y-101090310D01*
X181120053Y-100979240D01*
X181120052Y-100979239D01*
X181120050Y-100979238D01*
X180951686Y-100893453D01*
X180771967Y-100835058D01*
X180585338Y-100805500D01*
X180585335Y-100805500D01*
X180396373Y-100805500D01*
X180396370Y-100805500D01*
X180209740Y-100835058D01*
X180076692Y-100878289D01*
X180015506Y-100878289D01*
X179976095Y-100854138D01*
X178568872Y-99446915D01*
X189084154Y-99446915D01*
X189084154Y-99635884D01*
X189113712Y-99822513D01*
X189172107Y-100002232D01*
X189254172Y-100163296D01*
X189257894Y-100170599D01*
X189368964Y-100323473D01*
X189502581Y-100457090D01*
X189655455Y-100568160D01*
X189823822Y-100653947D01*
X190003536Y-100712340D01*
X190003537Y-100712340D01*
X190003540Y-100712341D01*
X190190170Y-100741900D01*
X190190173Y-100741900D01*
X190379138Y-100741900D01*
X190565767Y-100712341D01*
X190565768Y-100712340D01*
X190565772Y-100712340D01*
X190745486Y-100653947D01*
X190913853Y-100568160D01*
X191066727Y-100457090D01*
X191200344Y-100323473D01*
X191311414Y-100170599D01*
X191397201Y-100002232D01*
X191455594Y-99822518D01*
X191484033Y-99642960D01*
X191485154Y-99635884D01*
X191485154Y-99446915D01*
X191455595Y-99260286D01*
X191439348Y-99210282D01*
X191397201Y-99080568D01*
X191311414Y-98912201D01*
X191200344Y-98759327D01*
X191066727Y-98625710D01*
X190913853Y-98514640D01*
X190913852Y-98514639D01*
X190913850Y-98514638D01*
X190745486Y-98428853D01*
X190565767Y-98370458D01*
X190379138Y-98340900D01*
X190379135Y-98340900D01*
X190190173Y-98340900D01*
X190190170Y-98340900D01*
X190003540Y-98370458D01*
X189823821Y-98428853D01*
X189655457Y-98514638D01*
X189502582Y-98625709D01*
X189368963Y-98759328D01*
X189257892Y-98912203D01*
X189172107Y-99080567D01*
X189113712Y-99260286D01*
X189084154Y-99446915D01*
X178568872Y-99446915D01*
X175978450Y-96856493D01*
X175974823Y-96849375D01*
X175968361Y-96844680D01*
X175961197Y-96822631D01*
X175950673Y-96801976D01*
X175949454Y-96786489D01*
X175949454Y-96698904D01*
X189452254Y-96698904D01*
X189452254Y-96836895D01*
X189456908Y-96860292D01*
X189478418Y-96968429D01*
X189479174Y-96972227D01*
X189479174Y-96972229D01*
X189531976Y-97099706D01*
X189531982Y-97099717D01*
X189608639Y-97214441D01*
X189706212Y-97312014D01*
X189820936Y-97388671D01*
X189820947Y-97388677D01*
X189836227Y-97395006D01*
X189948426Y-97441480D01*
X190083761Y-97468400D01*
X190175143Y-97468400D01*
X190233334Y-97487307D01*
X190245147Y-97497396D01*
X194288992Y-101541242D01*
X194316769Y-101595759D01*
X194313142Y-101641839D01*
X194269913Y-101774880D01*
X194240354Y-101961515D01*
X194240354Y-102150484D01*
X194269912Y-102337113D01*
X194328307Y-102516832D01*
X194410372Y-102677896D01*
X194414094Y-102685199D01*
X194525164Y-102838073D01*
X194658781Y-102971690D01*
X194811655Y-103082760D01*
X194980022Y-103168547D01*
X195159736Y-103226940D01*
X195159737Y-103226940D01*
X195159740Y-103226941D01*
X195346370Y-103256500D01*
X195346373Y-103256500D01*
X195535338Y-103256500D01*
X195721967Y-103226941D01*
X195721968Y-103226940D01*
X195721972Y-103226940D01*
X195901686Y-103168547D01*
X196070053Y-103082760D01*
X196222927Y-102971690D01*
X196356544Y-102838073D01*
X196467614Y-102685199D01*
X196553401Y-102516832D01*
X196611794Y-102337118D01*
X196612416Y-102333191D01*
X196641354Y-102150484D01*
X196641354Y-101961515D01*
X196633989Y-101915016D01*
X196632152Y-101903415D01*
X199248454Y-101903415D01*
X199248454Y-102092384D01*
X199278012Y-102279013D01*
X199336407Y-102458732D01*
X199416512Y-102615949D01*
X199422194Y-102627099D01*
X199533264Y-102779973D01*
X199666881Y-102913590D01*
X199819755Y-103024660D01*
X199988122Y-103110447D01*
X200167836Y-103168840D01*
X200167837Y-103168840D01*
X200167840Y-103168841D01*
X200354470Y-103198400D01*
X200354473Y-103198400D01*
X200543438Y-103198400D01*
X200730067Y-103168841D01*
X200730068Y-103168840D01*
X200730072Y-103168840D01*
X200909786Y-103110447D01*
X201078153Y-103024660D01*
X201231027Y-102913590D01*
X201364644Y-102779973D01*
X201475714Y-102627099D01*
X201561501Y-102458732D01*
X201619894Y-102279018D01*
X201626658Y-102236313D01*
X201649454Y-102092384D01*
X201649454Y-101903415D01*
X201619895Y-101716786D01*
X201614299Y-101699562D01*
X201561501Y-101537068D01*
X201475714Y-101368701D01*
X201364644Y-101215827D01*
X201231027Y-101082210D01*
X201078153Y-100971140D01*
X201078152Y-100971139D01*
X201078150Y-100971138D01*
X200909786Y-100885353D01*
X200730067Y-100826958D01*
X200543438Y-100797400D01*
X200543435Y-100797400D01*
X200354473Y-100797400D01*
X200354470Y-100797400D01*
X200167840Y-100826958D01*
X199988121Y-100885353D01*
X199819757Y-100971138D01*
X199666882Y-101082209D01*
X199533263Y-101215828D01*
X199422192Y-101368703D01*
X199336407Y-101537067D01*
X199278012Y-101716786D01*
X199248454Y-101903415D01*
X196632152Y-101903415D01*
X196611795Y-101774886D01*
X196609422Y-101767582D01*
X196553401Y-101595168D01*
X196467614Y-101426801D01*
X196356544Y-101273927D01*
X196222927Y-101140310D01*
X196070053Y-101029240D01*
X196070052Y-101029239D01*
X196070050Y-101029238D01*
X195901686Y-100943453D01*
X195721967Y-100885058D01*
X195535338Y-100855500D01*
X195535335Y-100855500D01*
X195346373Y-100855500D01*
X195346370Y-100855500D01*
X195159734Y-100885059D01*
X195026693Y-100928288D01*
X194965508Y-100928289D01*
X194926096Y-100904138D01*
X193461573Y-99439615D01*
X204226854Y-99439615D01*
X204226854Y-99628584D01*
X204256412Y-99815213D01*
X204314807Y-99994932D01*
X204378835Y-100120596D01*
X204400594Y-100163299D01*
X204511664Y-100316173D01*
X204645281Y-100449790D01*
X204798155Y-100560860D01*
X204966522Y-100646647D01*
X205146236Y-100705040D01*
X205146237Y-100705040D01*
X205146240Y-100705041D01*
X205332870Y-100734600D01*
X205332873Y-100734600D01*
X205521838Y-100734600D01*
X205708467Y-100705041D01*
X205708468Y-100705040D01*
X205708472Y-100705040D01*
X205888186Y-100646647D01*
X206056553Y-100560860D01*
X206209427Y-100449790D01*
X206343044Y-100316173D01*
X206454114Y-100163299D01*
X206539901Y-99994932D01*
X206598294Y-99815218D01*
X206615939Y-99703813D01*
X206627854Y-99628584D01*
X206627854Y-99439615D01*
X206598295Y-99252986D01*
X206584421Y-99210286D01*
X206539901Y-99073268D01*
X206454114Y-98904901D01*
X206343044Y-98752027D01*
X206209427Y-98618410D01*
X206056553Y-98507340D01*
X206056552Y-98507339D01*
X206056550Y-98507338D01*
X205888186Y-98421553D01*
X205708467Y-98363158D01*
X205521838Y-98333600D01*
X205521835Y-98333600D01*
X205332873Y-98333600D01*
X205332870Y-98333600D01*
X205146240Y-98363158D01*
X204966521Y-98421553D01*
X204798157Y-98507338D01*
X204645282Y-98618409D01*
X204511663Y-98752028D01*
X204400592Y-98904903D01*
X204314807Y-99073267D01*
X204256412Y-99252986D01*
X204226854Y-99439615D01*
X193461573Y-99439615D01*
X190882250Y-96860292D01*
X190854473Y-96805775D01*
X190853254Y-96790288D01*
X190853254Y-96698908D01*
X190853253Y-96698904D01*
X190852498Y-96695107D01*
X190826334Y-96563572D01*
X190808732Y-96521077D01*
X190773531Y-96436093D01*
X190773525Y-96436082D01*
X190696868Y-96321358D01*
X190599295Y-96223785D01*
X190484571Y-96147128D01*
X190484560Y-96147122D01*
X190357082Y-96094320D01*
X190221749Y-96067400D01*
X190221747Y-96067400D01*
X190083761Y-96067400D01*
X190083758Y-96067400D01*
X189948426Y-96094320D01*
X189948424Y-96094320D01*
X189820947Y-96147122D01*
X189820936Y-96147128D01*
X189706212Y-96223785D01*
X189608639Y-96321358D01*
X189531982Y-96436082D01*
X189531976Y-96436093D01*
X189479174Y-96563570D01*
X189479174Y-96563572D01*
X189452254Y-96698904D01*
X175949454Y-96698904D01*
X175949454Y-96695108D01*
X175949453Y-96695104D01*
X175922534Y-96559772D01*
X175886844Y-96473608D01*
X175869731Y-96432293D01*
X175869725Y-96432282D01*
X175793068Y-96317558D01*
X175695495Y-96219985D01*
X175580771Y-96143328D01*
X175580760Y-96143322D01*
X175453282Y-96090520D01*
X175317949Y-96063600D01*
X175317947Y-96063600D01*
X175179961Y-96063600D01*
X175179958Y-96063600D01*
X175044626Y-96090520D01*
X175044624Y-96090520D01*
X174917147Y-96143322D01*
X174917136Y-96143328D01*
X174802412Y-96219985D01*
X174704839Y-96317558D01*
X174628182Y-96432282D01*
X174628176Y-96432293D01*
X174575374Y-96559770D01*
X174575374Y-96559772D01*
X174548454Y-96695104D01*
X173081219Y-96695104D01*
X176155135Y-93621187D01*
X176209650Y-93593412D01*
X176270082Y-93602983D01*
X176313347Y-93646248D01*
X176322235Y-93671878D01*
X176346374Y-93793229D01*
X176399176Y-93920706D01*
X176399182Y-93920717D01*
X176475839Y-94035441D01*
X176573412Y-94133014D01*
X176688136Y-94209671D01*
X176688147Y-94209677D01*
X176735237Y-94229182D01*
X176815626Y-94262480D01*
X176950961Y-94289400D01*
X176950962Y-94289400D01*
X177088946Y-94289400D01*
X177088947Y-94289400D01*
X177224282Y-94262480D01*
X177351765Y-94209675D01*
X177466496Y-94133014D01*
X177492114Y-94107396D01*
X177546631Y-94079619D01*
X177562118Y-94078400D01*
X191336790Y-94078400D01*
X191394981Y-94097307D01*
X191406794Y-94107396D01*
X191432412Y-94133014D01*
X191547136Y-94209671D01*
X191547147Y-94209677D01*
X191594237Y-94229182D01*
X191674626Y-94262480D01*
X191809961Y-94289400D01*
X191809962Y-94289400D01*
X191947946Y-94289400D01*
X191947947Y-94289400D01*
X192083282Y-94262480D01*
X192210765Y-94209675D01*
X192325496Y-94133014D01*
X192423068Y-94035442D01*
X192424432Y-94033399D01*
X192425316Y-94032702D01*
X192426156Y-94031680D01*
X192426380Y-94031864D01*
X192472481Y-93995520D01*
X192506749Y-93989400D01*
X202359054Y-93989400D01*
X202417245Y-94008307D01*
X202429058Y-94018396D01*
X203923722Y-95513060D01*
X203951499Y-95567577D01*
X203950817Y-95602373D01*
X203950337Y-95604783D01*
X203950337Y-95742777D01*
X203977257Y-95878109D01*
X203977257Y-95878111D01*
X204030059Y-96005588D01*
X204030065Y-96005599D01*
X204106722Y-96120323D01*
X204204295Y-96217896D01*
X204319019Y-96294553D01*
X204319023Y-96294555D01*
X204319026Y-96294557D01*
X204343038Y-96304503D01*
X204389563Y-96344238D01*
X204403848Y-96403733D01*
X204387469Y-96450967D01*
X204353184Y-96502278D01*
X204353176Y-96502293D01*
X204300374Y-96629770D01*
X204300374Y-96629772D01*
X204273454Y-96765104D01*
X204273454Y-96903095D01*
X204300374Y-97038427D01*
X204300374Y-97038429D01*
X204353176Y-97165906D01*
X204353182Y-97165917D01*
X204429839Y-97280641D01*
X204527412Y-97378214D01*
X204642136Y-97454871D01*
X204642147Y-97454877D01*
X204665621Y-97464600D01*
X204769626Y-97507680D01*
X204904961Y-97534600D01*
X204904962Y-97534600D01*
X205042946Y-97534600D01*
X205042947Y-97534600D01*
X205178282Y-97507680D01*
X205277786Y-97466463D01*
X205338782Y-97461663D01*
X205385675Y-97487924D01*
X209431692Y-101533941D01*
X209459469Y-101588458D01*
X209455843Y-101634538D01*
X209412612Y-101767586D01*
X209383054Y-101954215D01*
X209383054Y-102143184D01*
X209412612Y-102329813D01*
X209471007Y-102509532D01*
X209543553Y-102651913D01*
X209556794Y-102677899D01*
X209667864Y-102830773D01*
X209801481Y-102964390D01*
X209954355Y-103075460D01*
X210122722Y-103161247D01*
X210302436Y-103219640D01*
X210302437Y-103219640D01*
X210302440Y-103219641D01*
X210489070Y-103249200D01*
X210489073Y-103249200D01*
X210678038Y-103249200D01*
X210864667Y-103219641D01*
X210864668Y-103219640D01*
X210864672Y-103219640D01*
X211044386Y-103161247D01*
X211212753Y-103075460D01*
X211365627Y-102964390D01*
X211499244Y-102830773D01*
X211610314Y-102677899D01*
X211696101Y-102509532D01*
X211754494Y-102329818D01*
X211761384Y-102286318D01*
X211784054Y-102143184D01*
X211784054Y-101954215D01*
X211754495Y-101767586D01*
X211754494Y-101767582D01*
X211696101Y-101587868D01*
X211610314Y-101419501D01*
X211499244Y-101266627D01*
X211365627Y-101133010D01*
X211212753Y-101021940D01*
X211212752Y-101021939D01*
X211212750Y-101021938D01*
X211044386Y-100936153D01*
X210864667Y-100877758D01*
X210678038Y-100848200D01*
X210678035Y-100848200D01*
X210489073Y-100848200D01*
X210489070Y-100848200D01*
X210302440Y-100877758D01*
X210169392Y-100920989D01*
X210108206Y-100920989D01*
X210068795Y-100896838D01*
X207881284Y-98709327D01*
X205645568Y-96473611D01*
X205645565Y-96473609D01*
X205645564Y-96473608D01*
X205645563Y-96473607D01*
X205551591Y-96419352D01*
X205521413Y-96391088D01*
X205521145Y-96391309D01*
X205519475Y-96389274D01*
X205518778Y-96388621D01*
X205518068Y-96387558D01*
X205420496Y-96289986D01*
X205386287Y-96267128D01*
X205305771Y-96213328D01*
X205305763Y-96213324D01*
X205281751Y-96203378D01*
X205235226Y-96163641D01*
X205220942Y-96104147D01*
X205237322Y-96056912D01*
X205271608Y-96005599D01*
X205271608Y-96005598D01*
X205271612Y-96005593D01*
X205324417Y-95878110D01*
X205351337Y-95742775D01*
X205351337Y-95604789D01*
X205324417Y-95469454D01*
X205271612Y-95341971D01*
X205271611Y-95341969D01*
X205271608Y-95341964D01*
X205194951Y-95227240D01*
X205097378Y-95129667D01*
X204982654Y-95053010D01*
X204982643Y-95053004D01*
X204855165Y-95000202D01*
X204719832Y-94973282D01*
X204719830Y-94973282D01*
X204581844Y-94973282D01*
X204581838Y-94973282D01*
X204579428Y-94973762D01*
X204578311Y-94973629D01*
X204577000Y-94973759D01*
X204576971Y-94973471D01*
X204518667Y-94966567D01*
X204490115Y-94946667D01*
X203659848Y-94116400D01*
X202811868Y-93268420D01*
X202811865Y-93268418D01*
X202811864Y-93268417D01*
X202811863Y-93268416D01*
X202720546Y-93215694D01*
X202720548Y-93215694D01*
X202681025Y-93205104D01*
X202618682Y-93188400D01*
X202618680Y-93188400D01*
X192506749Y-93188400D01*
X192448558Y-93169493D01*
X192424432Y-93144400D01*
X192423068Y-93142358D01*
X192403079Y-93122369D01*
X192325504Y-93044793D01*
X192325495Y-93044785D01*
X192210771Y-92968128D01*
X192210760Y-92968122D01*
X192083282Y-92915320D01*
X191947949Y-92888400D01*
X191947947Y-92888400D01*
X191809961Y-92888400D01*
X191809958Y-92888400D01*
X191674626Y-92915320D01*
X191674624Y-92915320D01*
X191547147Y-92968122D01*
X191547136Y-92968128D01*
X191432412Y-93044785D01*
X191334843Y-93142354D01*
X191334840Y-93142358D01*
X191274006Y-93233402D01*
X191225956Y-93271281D01*
X191191691Y-93277400D01*
X188837780Y-93277400D01*
X188779589Y-93258493D01*
X188743625Y-93208993D01*
X188743625Y-93147807D01*
X188755463Y-93123400D01*
X188816729Y-93031711D01*
X188869534Y-92904228D01*
X188896454Y-92768893D01*
X188896454Y-92630907D01*
X188869534Y-92495572D01*
X188816729Y-92368089D01*
X188816728Y-92368087D01*
X188816725Y-92368082D01*
X188740068Y-92253358D01*
X188642495Y-92155785D01*
X188565452Y-92104306D01*
X188527573Y-92056255D01*
X188521454Y-92021991D01*
X188521454Y-90845740D01*
X188521455Y-90845727D01*
X188521455Y-90752046D01*
X188521454Y-90752044D01*
X188499273Y-90669264D01*
X188499272Y-90669262D01*
X188495026Y-90661908D01*
X188485700Y-90645755D01*
X188456419Y-90595038D01*
X188395816Y-90534435D01*
X188395813Y-90534433D01*
X176895600Y-79034219D01*
X176867823Y-78979702D01*
X176877394Y-78919270D01*
X176883289Y-78909213D01*
X176929725Y-78839717D01*
X176929725Y-78839716D01*
X176929729Y-78839711D01*
X176982534Y-78712228D01*
X177009454Y-78576893D01*
X177009454Y-78438907D01*
X176982534Y-78303572D01*
X176949025Y-78222675D01*
X176944225Y-78161681D01*
X176976195Y-78109512D01*
X177032722Y-78086097D01*
X177078375Y-78093328D01*
X177117448Y-78109512D01*
X177194626Y-78141480D01*
X177329961Y-78168400D01*
X177329962Y-78168400D01*
X177467946Y-78168400D01*
X177467947Y-78168400D01*
X177603282Y-78141480D01*
X177730765Y-78088675D01*
X177771654Y-78061354D01*
X177785903Y-78051833D01*
X177844791Y-78035224D01*
X177902195Y-78056401D01*
X177910909Y-78064144D01*
X192446730Y-92599965D01*
X192521410Y-92643081D01*
X192521412Y-92643081D01*
X192521413Y-92643082D01*
X192563057Y-92654240D01*
X192604701Y-92665399D01*
X192604703Y-92665400D01*
X192604704Y-92665400D01*
X192690936Y-92665400D01*
X202392382Y-92665400D01*
X202450573Y-92684307D01*
X202474697Y-92709398D01*
X202524840Y-92784442D01*
X202524843Y-92784445D01*
X202622412Y-92882014D01*
X202737136Y-92958671D01*
X202737147Y-92958677D01*
X202784237Y-92978182D01*
X202864626Y-93011480D01*
X202999961Y-93038400D01*
X202999962Y-93038400D01*
X203137946Y-93038400D01*
X203137947Y-93038400D01*
X203273282Y-93011480D01*
X203400765Y-92958675D01*
X203515496Y-92882014D01*
X203613068Y-92784442D01*
X203689729Y-92669711D01*
X203742534Y-92542228D01*
X203769454Y-92406893D01*
X203769454Y-92268907D01*
X203742534Y-92133572D01*
X203713632Y-92063795D01*
X203689731Y-92006093D01*
X203689725Y-92006082D01*
X203613068Y-91891358D01*
X203515495Y-91793785D01*
X203400771Y-91717128D01*
X203400760Y-91717122D01*
X203273282Y-91664320D01*
X203137949Y-91637400D01*
X203137947Y-91637400D01*
X202999961Y-91637400D01*
X202999958Y-91637400D01*
X202864626Y-91664320D01*
X202864624Y-91664320D01*
X202737147Y-91717122D01*
X202737136Y-91717128D01*
X202622412Y-91793785D01*
X202622410Y-91793788D01*
X202524843Y-91891354D01*
X202524840Y-91891358D01*
X202474697Y-91966402D01*
X202426647Y-92004281D01*
X202392382Y-92010400D01*
X192824483Y-92010400D01*
X192766292Y-91991493D01*
X192754479Y-91981404D01*
X185501887Y-84728812D01*
X206674454Y-84728812D01*
X206674454Y-84906987D01*
X206709214Y-85081732D01*
X206709214Y-85081734D01*
X206777395Y-85246338D01*
X206777396Y-85246340D01*
X206777397Y-85246341D01*
X206876383Y-85394485D01*
X207002369Y-85520471D01*
X207150513Y-85619457D01*
X207315121Y-85687640D01*
X207489869Y-85722400D01*
X207489870Y-85722400D01*
X207668038Y-85722400D01*
X207668039Y-85722400D01*
X207842787Y-85687640D01*
X208007395Y-85619457D01*
X208155539Y-85520471D01*
X208281525Y-85394485D01*
X208380511Y-85246341D01*
X208448694Y-85081733D01*
X208483454Y-84906985D01*
X208483454Y-84728815D01*
X208448694Y-84554067D01*
X208380511Y-84389459D01*
X208281525Y-84241315D01*
X208155539Y-84115329D01*
X208007395Y-84016343D01*
X208007394Y-84016342D01*
X208007392Y-84016341D01*
X207842787Y-83948160D01*
X207668041Y-83913400D01*
X207668039Y-83913400D01*
X207489869Y-83913400D01*
X207489866Y-83913400D01*
X207315121Y-83948160D01*
X207315119Y-83948160D01*
X207150515Y-84016341D01*
X207002372Y-84115326D01*
X206876380Y-84241318D01*
X206777395Y-84389461D01*
X206709214Y-84554065D01*
X206709214Y-84554067D01*
X206674454Y-84728812D01*
X185501887Y-84728812D01*
X183512130Y-82739055D01*
X200478454Y-82739055D01*
X200478454Y-82896744D01*
X200509217Y-83051396D01*
X200509217Y-83051398D01*
X200569557Y-83197074D01*
X200569563Y-83197085D01*
X200622266Y-83275959D01*
X200657165Y-83328189D01*
X200768665Y-83439689D01*
X200826862Y-83478575D01*
X200899768Y-83527290D01*
X200899779Y-83527296D01*
X200953592Y-83549585D01*
X201045457Y-83587637D01*
X201200112Y-83618400D01*
X201200113Y-83618400D01*
X201957795Y-83618400D01*
X201957796Y-83618400D01*
X202112451Y-83587637D01*
X202258133Y-83527294D01*
X202389243Y-83439689D01*
X202500743Y-83328189D01*
X202588348Y-83197079D01*
X202648691Y-83051397D01*
X202679454Y-82896742D01*
X202679454Y-82739058D01*
X202648691Y-82584403D01*
X202614725Y-82502400D01*
X202588350Y-82438725D01*
X202588344Y-82438714D01*
X202552971Y-82385776D01*
X202500743Y-82307611D01*
X202389243Y-82196111D01*
X202337013Y-82161212D01*
X202258139Y-82108509D01*
X202258128Y-82108503D01*
X202112451Y-82048163D01*
X201957798Y-82017400D01*
X201957796Y-82017400D01*
X201200112Y-82017400D01*
X201200109Y-82017400D01*
X201045457Y-82048163D01*
X201045455Y-82048163D01*
X200899779Y-82108503D01*
X200899768Y-82108509D01*
X200768665Y-82196111D01*
X200768661Y-82196114D01*
X200657168Y-82307607D01*
X200657165Y-82307611D01*
X200569563Y-82438714D01*
X200569557Y-82438725D01*
X200509217Y-82584401D01*
X200509217Y-82584403D01*
X200478454Y-82739055D01*
X183512130Y-82739055D01*
X181501887Y-80728812D01*
X206674454Y-80728812D01*
X206674454Y-80906987D01*
X206709214Y-81081732D01*
X206709214Y-81081734D01*
X206777395Y-81246338D01*
X206777396Y-81246340D01*
X206777397Y-81246341D01*
X206876383Y-81394485D01*
X207002369Y-81520471D01*
X207150513Y-81619457D01*
X207315121Y-81687640D01*
X207489869Y-81722400D01*
X207489870Y-81722400D01*
X207668038Y-81722400D01*
X207668039Y-81722400D01*
X207842787Y-81687640D01*
X208007395Y-81619457D01*
X208155539Y-81520471D01*
X208281525Y-81394485D01*
X208380511Y-81246341D01*
X208448694Y-81081733D01*
X208483454Y-80906985D01*
X208483454Y-80728815D01*
X208448694Y-80554067D01*
X208380511Y-80389459D01*
X208281525Y-80241315D01*
X208155539Y-80115329D01*
X208007395Y-80016343D01*
X208007394Y-80016342D01*
X208007392Y-80016341D01*
X207842787Y-79948160D01*
X207668041Y-79913400D01*
X207668039Y-79913400D01*
X207489869Y-79913400D01*
X207489866Y-79913400D01*
X207315121Y-79948160D01*
X207315119Y-79948160D01*
X207150515Y-80016341D01*
X207002372Y-80115326D01*
X206876380Y-80241318D01*
X206777395Y-80389461D01*
X206709214Y-80554065D01*
X206709214Y-80554067D01*
X206674454Y-80728812D01*
X181501887Y-80728812D01*
X178102679Y-77329604D01*
X178075585Y-77278912D01*
X178072535Y-77263578D01*
X178072534Y-77263572D01*
X178033782Y-77170015D01*
X178019731Y-77136093D01*
X178019725Y-77136082D01*
X177943068Y-77021358D01*
X177845495Y-76923785D01*
X177730771Y-76847128D01*
X177730760Y-76847122D01*
X177603282Y-76794320D01*
X177467949Y-76767400D01*
X177467947Y-76767400D01*
X177329961Y-76767400D01*
X177329958Y-76767400D01*
X177194626Y-76794320D01*
X177194624Y-76794320D01*
X177067147Y-76847122D01*
X177067136Y-76847128D01*
X176952412Y-76923785D01*
X176854839Y-77021358D01*
X176778182Y-77136082D01*
X176778176Y-77136093D01*
X176725374Y-77263570D01*
X176725374Y-77263572D01*
X176698454Y-77398904D01*
X176698454Y-77398907D01*
X176698454Y-77536893D01*
X176724613Y-77668399D01*
X176725374Y-77672227D01*
X176725374Y-77672229D01*
X176758881Y-77753122D01*
X176763682Y-77814119D01*
X176731712Y-77866287D01*
X176675184Y-77889702D01*
X176629532Y-77882471D01*
X176513282Y-77834320D01*
X176377949Y-77807400D01*
X176377947Y-77807400D01*
X176239961Y-77807400D01*
X176239958Y-77807400D01*
X176104626Y-77834320D01*
X176104624Y-77834320D01*
X175977147Y-77887122D01*
X175977136Y-77887128D01*
X175862412Y-77963785D01*
X175764843Y-78061354D01*
X175764840Y-78061357D01*
X175764840Y-78061358D01*
X175748310Y-78086097D01*
X175700769Y-78157246D01*
X175652718Y-78195124D01*
X175591580Y-78197526D01*
X175540707Y-78163532D01*
X175519530Y-78106128D01*
X175519454Y-78102243D01*
X175519454Y-67828904D01*
X177843454Y-67828904D01*
X177843454Y-67966895D01*
X177855795Y-68028936D01*
X177867108Y-68085811D01*
X177870374Y-68102227D01*
X177870374Y-68102229D01*
X177923176Y-68229706D01*
X177923182Y-68229717D01*
X177999839Y-68344441D01*
X177999840Y-68344442D01*
X178097412Y-68442014D01*
X178172564Y-68492229D01*
X178174456Y-68493493D01*
X178212335Y-68541543D01*
X178218454Y-68575808D01*
X178218454Y-76100047D01*
X178218454Y-76185753D01*
X178237810Y-76257993D01*
X178240637Y-76268543D01*
X178283485Y-76342757D01*
X178283489Y-76342762D01*
X178659437Y-76718711D01*
X178687214Y-76773227D01*
X178686531Y-76808028D01*
X178668454Y-76898904D01*
X178668454Y-77036895D01*
X178684484Y-77117479D01*
X178689838Y-77144399D01*
X178695374Y-77172227D01*
X178695374Y-77172229D01*
X178748176Y-77299706D01*
X178748182Y-77299717D01*
X178824839Y-77414441D01*
X178824840Y-77414442D01*
X178922412Y-77512014D01*
X178959646Y-77536893D01*
X179037136Y-77588671D01*
X179037147Y-77588677D01*
X179084237Y-77608182D01*
X179164626Y-77641480D01*
X179299961Y-77668400D01*
X179299962Y-77668400D01*
X179437946Y-77668400D01*
X179437947Y-77668400D01*
X179573282Y-77641480D01*
X179700765Y-77588675D01*
X179815496Y-77512014D01*
X179913068Y-77414442D01*
X179989729Y-77299711D01*
X180042534Y-77172228D01*
X180069454Y-77036893D01*
X180069454Y-76898907D01*
X180042534Y-76763572D01*
X179989729Y-76636089D01*
X179989728Y-76636087D01*
X179989725Y-76636082D01*
X179913068Y-76521358D01*
X179815495Y-76423785D01*
X179700771Y-76347128D01*
X179700760Y-76347122D01*
X179573282Y-76294320D01*
X179437949Y-76267400D01*
X179437947Y-76267400D01*
X179299961Y-76267400D01*
X179299958Y-76267400D01*
X179209082Y-76285477D01*
X179148321Y-76278285D01*
X179119764Y-76258383D01*
X178898450Y-76037069D01*
X178870673Y-75982552D01*
X178869454Y-75967065D01*
X178869454Y-68575808D01*
X178888361Y-68517617D01*
X178913452Y-68493493D01*
X178915344Y-68492229D01*
X178990496Y-68442014D01*
X179088068Y-68344442D01*
X179131859Y-68278904D01*
X180608454Y-68278904D01*
X180608454Y-68416895D01*
X180635374Y-68552227D01*
X180635374Y-68552229D01*
X180688176Y-68679706D01*
X180688182Y-68679717D01*
X180764839Y-68794441D01*
X180862412Y-68892014D01*
X180977136Y-68968671D01*
X180977147Y-68968677D01*
X181020442Y-68986610D01*
X181104626Y-69021480D01*
X181239961Y-69048400D01*
X181239962Y-69048400D01*
X181377946Y-69048400D01*
X181377947Y-69048400D01*
X181513282Y-69021480D01*
X181640765Y-68968675D01*
X181755496Y-68892014D01*
X181820114Y-68827396D01*
X181874631Y-68799619D01*
X181890118Y-68798400D01*
X183791343Y-68798400D01*
X183849534Y-68817307D01*
X183861347Y-68827396D01*
X184919458Y-69885507D01*
X184947235Y-69940024D01*
X184948454Y-69955511D01*
X184948454Y-70046895D01*
X184966400Y-70137116D01*
X184971811Y-70164318D01*
X184975374Y-70182227D01*
X184975374Y-70182229D01*
X185028176Y-70309706D01*
X185028182Y-70309717D01*
X185104839Y-70424441D01*
X185202412Y-70522014D01*
X185317136Y-70598671D01*
X185317147Y-70598677D01*
X185364237Y-70618182D01*
X185444626Y-70651480D01*
X185579961Y-70678400D01*
X185579962Y-70678400D01*
X185717946Y-70678400D01*
X185717947Y-70678400D01*
X185853282Y-70651480D01*
X185980765Y-70598675D01*
X186095496Y-70522014D01*
X186193068Y-70424442D01*
X186269729Y-70309711D01*
X186322534Y-70182228D01*
X186349454Y-70046893D01*
X186349454Y-69908907D01*
X186322534Y-69773572D01*
X186269729Y-69646089D01*
X186269728Y-69646087D01*
X186269725Y-69646082D01*
X186193068Y-69531358D01*
X186095495Y-69433785D01*
X185980771Y-69357128D01*
X185980760Y-69357122D01*
X185853282Y-69304320D01*
X185717949Y-69277400D01*
X185717947Y-69277400D01*
X185626565Y-69277400D01*
X185568374Y-69258493D01*
X185556561Y-69248404D01*
X184927676Y-68619519D01*
X184295568Y-67987411D01*
X184295565Y-67987409D01*
X184295564Y-67987408D01*
X184295563Y-67987407D01*
X184192844Y-67928102D01*
X184192840Y-67928100D01*
X184168627Y-67921612D01*
X184168627Y-67921613D01*
X184078263Y-67897400D01*
X184078261Y-67897400D01*
X181890118Y-67897400D01*
X181831927Y-67878493D01*
X181820114Y-67868404D01*
X181755495Y-67803785D01*
X181640771Y-67727128D01*
X181640760Y-67727122D01*
X181513282Y-67674320D01*
X181377949Y-67647400D01*
X181377947Y-67647400D01*
X181239961Y-67647400D01*
X181239958Y-67647400D01*
X181104626Y-67674320D01*
X181104624Y-67674320D01*
X180977147Y-67727122D01*
X180977136Y-67727128D01*
X180862412Y-67803785D01*
X180764839Y-67901358D01*
X180688182Y-68016082D01*
X180688176Y-68016093D01*
X180635374Y-68143570D01*
X180635374Y-68143572D01*
X180608454Y-68278904D01*
X179131859Y-68278904D01*
X179164729Y-68229711D01*
X179217534Y-68102228D01*
X179244454Y-67966893D01*
X179244454Y-67828907D01*
X179217534Y-67693572D01*
X179179698Y-67602227D01*
X179164731Y-67566093D01*
X179164725Y-67566082D01*
X179088068Y-67451358D01*
X178990495Y-67353785D01*
X178875771Y-67277128D01*
X178875760Y-67277122D01*
X178748282Y-67224320D01*
X178612949Y-67197400D01*
X178612947Y-67197400D01*
X178474961Y-67197400D01*
X178474958Y-67197400D01*
X178339626Y-67224320D01*
X178339624Y-67224320D01*
X178212147Y-67277122D01*
X178212136Y-67277128D01*
X178097412Y-67353785D01*
X177999839Y-67451358D01*
X177923182Y-67566082D01*
X177923176Y-67566093D01*
X177870374Y-67693570D01*
X177870374Y-67693572D01*
X177843454Y-67828904D01*
X175519454Y-67828904D01*
X175519454Y-64638592D01*
X175519454Y-64638591D01*
X175488753Y-64524014D01*
X175462717Y-64478920D01*
X175449454Y-64429420D01*
X175449454Y-64308908D01*
X175449454Y-64308907D01*
X175431376Y-64218024D01*
X175438567Y-64157265D01*
X175458468Y-64128711D01*
X175627708Y-63959473D01*
X175682225Y-63931696D01*
X175697711Y-63930477D01*
X179295752Y-63930477D01*
X179311187Y-63930477D01*
X179349070Y-63938012D01*
X179437990Y-63974844D01*
X179573325Y-64001764D01*
X179573326Y-64001764D01*
X179711310Y-64001764D01*
X179711311Y-64001764D01*
X179846646Y-63974844D01*
X179974129Y-63922039D01*
X180088860Y-63845378D01*
X180186432Y-63747806D01*
X180263093Y-63633075D01*
X180315898Y-63505592D01*
X180342818Y-63370257D01*
X180342818Y-63232271D01*
X180315898Y-63096936D01*
X180288623Y-63031089D01*
X180263095Y-62969457D01*
X180263089Y-62969446D01*
X180186432Y-62854722D01*
X180088859Y-62757149D01*
X179974135Y-62680492D01*
X179974124Y-62680486D01*
X179846646Y-62627684D01*
X179711313Y-62600764D01*
X179711311Y-62600764D01*
X179573325Y-62600764D01*
X179573322Y-62600764D01*
X179437990Y-62627684D01*
X179437988Y-62627684D01*
X179310511Y-62680486D01*
X179310500Y-62680492D01*
X179195776Y-62757149D01*
X179098203Y-62854722D01*
X179021546Y-62969446D01*
X179021540Y-62969457D01*
X178968738Y-63096934D01*
X178968738Y-63096936D01*
X178948279Y-63199791D01*
X178918382Y-63253175D01*
X178862817Y-63278791D01*
X178851181Y-63279477D01*
X175564730Y-63279477D01*
X175479024Y-63279477D01*
X175428355Y-63293053D01*
X175396233Y-63301660D01*
X175322019Y-63344508D01*
X175322014Y-63344512D01*
X174998143Y-63668383D01*
X174943627Y-63696160D01*
X174908826Y-63695477D01*
X174817949Y-63677400D01*
X174817947Y-63677400D01*
X174679961Y-63677400D01*
X174679958Y-63677400D01*
X174544626Y-63704320D01*
X174544624Y-63704320D01*
X174417147Y-63757122D01*
X174417136Y-63757128D01*
X174302412Y-63833785D01*
X174204839Y-63931358D01*
X174128182Y-64046082D01*
X174128176Y-64046093D01*
X174075374Y-64173570D01*
X174075374Y-64173572D01*
X174048454Y-64308904D01*
X174048454Y-64446895D01*
X174075374Y-64582227D01*
X174075374Y-64582229D01*
X174128176Y-64709706D01*
X174128182Y-64709717D01*
X174204839Y-64824441D01*
X174302412Y-64922014D01*
X174417136Y-64998671D01*
X174417147Y-64998677D01*
X174488243Y-65028125D01*
X174544626Y-65051480D01*
X174544638Y-65051482D01*
X174548187Y-65052559D01*
X174598385Y-65087541D01*
X174618435Y-65145349D01*
X174618454Y-65147298D01*
X174618454Y-65546961D01*
X174599547Y-65605152D01*
X174550047Y-65641116D01*
X174488861Y-65641116D01*
X174439361Y-65605152D01*
X174437139Y-65601964D01*
X174410432Y-65561994D01*
X174312860Y-65464422D01*
X174312859Y-65464421D01*
X174198135Y-65387764D01*
X174198124Y-65387758D01*
X174070646Y-65334956D01*
X173935313Y-65308036D01*
X173935311Y-65308036D01*
X173801202Y-65308036D01*
X173743011Y-65289129D01*
X173731198Y-65279040D01*
X173276599Y-64824441D01*
X171454568Y-63002411D01*
X171397484Y-62969453D01*
X171386543Y-62963136D01*
X171345603Y-62917666D01*
X171339208Y-62856816D01*
X171369801Y-62803828D01*
X171425696Y-62778942D01*
X171436044Y-62778400D01*
X177801679Y-62778400D01*
X177801681Y-62778400D01*
X177903541Y-62751107D01*
X177994867Y-62698380D01*
X178069434Y-62623813D01*
X178122161Y-62532487D01*
X178149454Y-62430627D01*
X178149454Y-61988904D01*
X186068454Y-61988904D01*
X186068454Y-62126895D01*
X186095374Y-62262227D01*
X186095374Y-62262229D01*
X186148176Y-62389706D01*
X186148182Y-62389717D01*
X186224839Y-62504441D01*
X186224840Y-62504442D01*
X186322412Y-62602014D01*
X186399456Y-62653493D01*
X186437335Y-62701543D01*
X186443454Y-62735808D01*
X186443454Y-66199991D01*
X186424547Y-66258182D01*
X186399456Y-66282306D01*
X186322412Y-66333785D01*
X186224839Y-66431358D01*
X186148182Y-66546082D01*
X186148176Y-66546093D01*
X186095374Y-66673570D01*
X186095374Y-66673572D01*
X186068454Y-66808904D01*
X186068454Y-66946895D01*
X186095374Y-67082227D01*
X186095374Y-67082229D01*
X186148176Y-67209706D01*
X186148182Y-67209717D01*
X186224839Y-67324441D01*
X186322412Y-67422014D01*
X186437136Y-67498671D01*
X186437147Y-67498677D01*
X186484237Y-67518182D01*
X186564626Y-67551480D01*
X186699961Y-67578400D01*
X186699962Y-67578400D01*
X186837946Y-67578400D01*
X186837947Y-67578400D01*
X186973282Y-67551480D01*
X187100765Y-67498675D01*
X187215496Y-67422014D01*
X187308606Y-67328904D01*
X189828454Y-67328904D01*
X189828454Y-67466895D01*
X189855374Y-67602227D01*
X189855374Y-67602229D01*
X189908176Y-67729706D01*
X189908182Y-67729717D01*
X189982779Y-67841358D01*
X189984840Y-67844442D01*
X190082412Y-67942014D01*
X190159456Y-67993493D01*
X190197335Y-68041543D01*
X190203454Y-68075808D01*
X190203454Y-71189991D01*
X190184547Y-71248182D01*
X190159456Y-71272306D01*
X190082412Y-71323785D01*
X189984839Y-71421358D01*
X189908182Y-71536082D01*
X189908176Y-71536093D01*
X189855374Y-71663570D01*
X189855374Y-71663572D01*
X189828454Y-71798904D01*
X189828454Y-71936895D01*
X189840188Y-71995882D01*
X189850572Y-72048089D01*
X189855374Y-72072227D01*
X189855374Y-72072229D01*
X189908176Y-72199706D01*
X189908182Y-72199717D01*
X189984839Y-72314441D01*
X190082412Y-72412014D01*
X190197136Y-72488671D01*
X190197147Y-72488677D01*
X190244237Y-72508182D01*
X190324626Y-72541480D01*
X190459961Y-72568400D01*
X190459962Y-72568400D01*
X190597946Y-72568400D01*
X190597947Y-72568400D01*
X190733282Y-72541480D01*
X190860765Y-72488675D01*
X190975496Y-72412014D01*
X191073068Y-72314442D01*
X191149729Y-72199711D01*
X191202534Y-72072228D01*
X191229454Y-71936893D01*
X191229454Y-71798907D01*
X191202534Y-71663572D01*
X191162468Y-71566844D01*
X191149731Y-71536093D01*
X191149725Y-71536082D01*
X191073068Y-71421358D01*
X190975495Y-71323785D01*
X190898452Y-71272306D01*
X190860573Y-71224255D01*
X190854454Y-71189991D01*
X190854454Y-69893736D01*
X202806954Y-69893736D01*
X202806954Y-70062063D01*
X202810683Y-70080808D01*
X202830856Y-70182227D01*
X202839792Y-70227148D01*
X202839792Y-70227150D01*
X202904204Y-70382655D01*
X202986679Y-70506089D01*
X202997720Y-70522612D01*
X203116742Y-70641634D01*
X203256696Y-70735148D01*
X203412205Y-70799562D01*
X203577293Y-70832400D01*
X203577294Y-70832400D01*
X203745614Y-70832400D01*
X203745615Y-70832400D01*
X203910703Y-70799562D01*
X204066212Y-70735148D01*
X204206166Y-70641634D01*
X204325188Y-70522612D01*
X204418702Y-70382658D01*
X204483116Y-70227149D01*
X204515954Y-70062061D01*
X204515954Y-69893739D01*
X204483116Y-69728651D01*
X204432821Y-69607228D01*
X204418703Y-69573144D01*
X204368371Y-69497817D01*
X204325188Y-69433188D01*
X204206166Y-69314166D01*
X204191430Y-69304320D01*
X204066209Y-69220650D01*
X203910703Y-69156238D01*
X203745617Y-69123400D01*
X203745615Y-69123400D01*
X203577293Y-69123400D01*
X203577290Y-69123400D01*
X203412205Y-69156238D01*
X203412203Y-69156238D01*
X203256698Y-69220650D01*
X203116745Y-69314163D01*
X202997717Y-69433191D01*
X202904204Y-69573144D01*
X202839792Y-69728649D01*
X202839792Y-69728651D01*
X202806954Y-69893736D01*
X190854454Y-69893736D01*
X190854454Y-68075808D01*
X190873361Y-68017617D01*
X190898452Y-67993493D01*
X190975496Y-67942014D01*
X191023774Y-67893736D01*
X202806954Y-67893736D01*
X202806954Y-68062063D01*
X202839792Y-68227148D01*
X202839792Y-68227150D01*
X202904204Y-68382655D01*
X202943865Y-68442013D01*
X202997720Y-68522612D01*
X203116742Y-68641634D01*
X203256696Y-68735148D01*
X203412205Y-68799562D01*
X203577293Y-68832400D01*
X203577294Y-68832400D01*
X203745614Y-68832400D01*
X203745615Y-68832400D01*
X203910703Y-68799562D01*
X204066212Y-68735148D01*
X204206166Y-68641634D01*
X204325188Y-68522612D01*
X204418702Y-68382658D01*
X204483116Y-68227149D01*
X204515954Y-68062061D01*
X204515954Y-67893739D01*
X204483116Y-67728651D01*
X204430750Y-67602228D01*
X204418703Y-67573144D01*
X204413984Y-67566082D01*
X204325188Y-67433188D01*
X204206166Y-67314166D01*
X204138631Y-67269041D01*
X204066209Y-67220650D01*
X203910703Y-67156238D01*
X203745617Y-67123400D01*
X203745615Y-67123400D01*
X203577293Y-67123400D01*
X203577290Y-67123400D01*
X203412205Y-67156238D01*
X203412203Y-67156238D01*
X203256698Y-67220650D01*
X203116745Y-67314163D01*
X202997717Y-67433191D01*
X202904204Y-67573144D01*
X202839792Y-67728649D01*
X202839792Y-67728651D01*
X202806954Y-67893736D01*
X191023774Y-67893736D01*
X191073068Y-67844442D01*
X191121668Y-67771706D01*
X191149725Y-67729718D01*
X191149731Y-67729706D01*
X191164699Y-67693570D01*
X191202534Y-67602228D01*
X191229454Y-67466893D01*
X191229454Y-67328907D01*
X191202534Y-67193572D01*
X191173468Y-67123400D01*
X191149731Y-67066093D01*
X191149725Y-67066082D01*
X191073068Y-66951358D01*
X190975495Y-66853785D01*
X190860771Y-66777128D01*
X190860760Y-66777122D01*
X190733282Y-66724320D01*
X190597949Y-66697400D01*
X190597947Y-66697400D01*
X190459961Y-66697400D01*
X190459958Y-66697400D01*
X190324626Y-66724320D01*
X190324624Y-66724320D01*
X190197147Y-66777122D01*
X190197136Y-66777128D01*
X190082412Y-66853785D01*
X189984839Y-66951358D01*
X189908182Y-67066082D01*
X189908176Y-67066093D01*
X189855374Y-67193570D01*
X189855374Y-67193572D01*
X189828454Y-67328904D01*
X187308606Y-67328904D01*
X187313068Y-67324442D01*
X187389729Y-67209711D01*
X187442534Y-67082228D01*
X187469454Y-66946893D01*
X187469454Y-66808907D01*
X187442534Y-66673572D01*
X187415510Y-66608329D01*
X187389731Y-66546093D01*
X187389725Y-66546082D01*
X187313068Y-66431358D01*
X187215495Y-66333785D01*
X187138452Y-66282306D01*
X187100573Y-66234255D01*
X187094454Y-66199991D01*
X187094454Y-62735808D01*
X187113361Y-62677617D01*
X187138452Y-62653493D01*
X187215496Y-62602014D01*
X187313068Y-62504442D01*
X187389729Y-62389711D01*
X187442534Y-62262228D01*
X187469454Y-62126893D01*
X187469454Y-61988907D01*
X187442534Y-61853572D01*
X187389729Y-61726089D01*
X187389728Y-61726087D01*
X187389725Y-61726082D01*
X187313068Y-61611358D01*
X187215495Y-61513785D01*
X187100771Y-61437128D01*
X187100760Y-61437122D01*
X186973282Y-61384320D01*
X186837949Y-61357400D01*
X186837947Y-61357400D01*
X186699961Y-61357400D01*
X186699958Y-61357400D01*
X186564626Y-61384320D01*
X186564624Y-61384320D01*
X186437147Y-61437122D01*
X186437136Y-61437128D01*
X186322412Y-61513785D01*
X186224839Y-61611358D01*
X186148182Y-61726082D01*
X186148176Y-61726093D01*
X186095374Y-61853570D01*
X186095374Y-61853572D01*
X186068454Y-61988904D01*
X178149454Y-61988904D01*
X178149454Y-58775230D01*
X208444454Y-58775230D01*
X208444454Y-58980569D01*
X208476573Y-59183366D01*
X208540026Y-59378654D01*
X208591952Y-59480566D01*
X208633245Y-59561607D01*
X208753937Y-59727725D01*
X208899129Y-59872917D01*
X209065247Y-59993609D01*
X209248200Y-60086828D01*
X209443483Y-60150279D01*
X209443484Y-60150279D01*
X209443487Y-60150280D01*
X209646285Y-60182400D01*
X209646288Y-60182400D01*
X209851623Y-60182400D01*
X210054420Y-60150280D01*
X210054421Y-60150279D01*
X210054425Y-60150279D01*
X210249708Y-60086828D01*
X210432661Y-59993609D01*
X210598779Y-59872917D01*
X210743971Y-59727725D01*
X210864663Y-59561607D01*
X210957882Y-59378654D01*
X211021333Y-59183371D01*
X211038904Y-59072433D01*
X211053454Y-58980569D01*
X211053454Y-58775230D01*
X211021334Y-58572433D01*
X211006922Y-58528076D01*
X210957882Y-58377146D01*
X210864663Y-58194193D01*
X210743971Y-58028075D01*
X210598779Y-57882883D01*
X210432661Y-57762191D01*
X210432660Y-57762190D01*
X210432658Y-57762189D01*
X210249708Y-57668972D01*
X210054420Y-57605519D01*
X209851623Y-57573400D01*
X209851620Y-57573400D01*
X209646288Y-57573400D01*
X209646285Y-57573400D01*
X209443487Y-57605519D01*
X209248199Y-57668972D01*
X209065249Y-57762189D01*
X208899130Y-57882882D01*
X208753936Y-58028076D01*
X208633243Y-58194195D01*
X208540026Y-58377145D01*
X208476573Y-58572433D01*
X208444454Y-58775230D01*
X178149454Y-58775230D01*
X178149454Y-56377400D01*
X178168361Y-56319209D01*
X178217861Y-56283245D01*
X178248454Y-56278400D01*
X212749454Y-56278400D01*
X212807645Y-56297307D01*
X212843609Y-56346807D01*
X212848454Y-56377400D01*
X212848454Y-126378400D01*
X212829547Y-126436591D01*
X212780047Y-126472555D01*
X212749454Y-126477400D01*
X139248454Y-126477400D01*
X139190263Y-126458493D01*
X139154299Y-126408993D01*
X139149454Y-126378400D01*
X139149454Y-123275230D01*
X140944454Y-123275230D01*
X140944454Y-123480569D01*
X140976573Y-123683366D01*
X140976575Y-123683371D01*
X141040026Y-123878654D01*
X141133245Y-124061607D01*
X141253937Y-124227725D01*
X141399129Y-124372917D01*
X141565247Y-124493609D01*
X141748200Y-124586828D01*
X141943483Y-124650279D01*
X141943484Y-124650279D01*
X141943487Y-124650280D01*
X142146285Y-124682400D01*
X142146288Y-124682400D01*
X142351623Y-124682400D01*
X142554420Y-124650280D01*
X142554421Y-124650279D01*
X142554425Y-124650279D01*
X142749708Y-124586828D01*
X142932661Y-124493609D01*
X143098779Y-124372917D01*
X143243971Y-124227725D01*
X143364663Y-124061607D01*
X143457882Y-123878654D01*
X143521333Y-123683371D01*
X143553454Y-123480566D01*
X143553454Y-123275234D01*
X143553454Y-123275230D01*
X208444454Y-123275230D01*
X208444454Y-123480569D01*
X208476573Y-123683366D01*
X208476575Y-123683371D01*
X208540026Y-123878654D01*
X208633245Y-124061607D01*
X208753937Y-124227725D01*
X208899129Y-124372917D01*
X209065247Y-124493609D01*
X209248200Y-124586828D01*
X209443483Y-124650279D01*
X209443484Y-124650279D01*
X209443487Y-124650280D01*
X209646285Y-124682400D01*
X209646288Y-124682400D01*
X209851623Y-124682400D01*
X210054420Y-124650280D01*
X210054421Y-124650279D01*
X210054425Y-124650279D01*
X210249708Y-124586828D01*
X210432661Y-124493609D01*
X210598779Y-124372917D01*
X210743971Y-124227725D01*
X210864663Y-124061607D01*
X210957882Y-123878654D01*
X211021333Y-123683371D01*
X211053454Y-123480566D01*
X211053454Y-123275234D01*
X211053454Y-123275230D01*
X211021334Y-123072433D01*
X211021333Y-123072429D01*
X210957882Y-122877146D01*
X210864663Y-122694193D01*
X210743971Y-122528075D01*
X210598779Y-122382883D01*
X210432661Y-122262191D01*
X210432660Y-122262190D01*
X210432658Y-122262189D01*
X210249708Y-122168972D01*
X210054420Y-122105519D01*
X209851623Y-122073400D01*
X209851620Y-122073400D01*
X209646288Y-122073400D01*
X209646285Y-122073400D01*
X209443487Y-122105519D01*
X209248199Y-122168972D01*
X209065249Y-122262189D01*
X208899130Y-122382882D01*
X208753936Y-122528076D01*
X208633243Y-122694195D01*
X208540026Y-122877145D01*
X208476573Y-123072433D01*
X208444454Y-123275230D01*
X143553454Y-123275230D01*
X143521334Y-123072433D01*
X143521333Y-123072429D01*
X143457882Y-122877146D01*
X143364663Y-122694193D01*
X143243971Y-122528075D01*
X143098779Y-122382883D01*
X142932661Y-122262191D01*
X142932660Y-122262190D01*
X142932658Y-122262189D01*
X142749708Y-122168972D01*
X142554420Y-122105519D01*
X142351623Y-122073400D01*
X142351620Y-122073400D01*
X142146288Y-122073400D01*
X142146285Y-122073400D01*
X141943487Y-122105519D01*
X141748199Y-122168972D01*
X141565249Y-122262189D01*
X141399130Y-122382882D01*
X141253936Y-122528076D01*
X141133243Y-122694195D01*
X141040026Y-122877145D01*
X140976573Y-123072433D01*
X140944454Y-123275230D01*
X139149454Y-123275230D01*
X139149454Y-117101236D01*
X153894454Y-117101236D01*
X153894454Y-117101238D01*
X153894454Y-117101239D01*
X153894454Y-117269561D01*
X153925800Y-117427150D01*
X153927292Y-117434648D01*
X153927292Y-117434650D01*
X153991704Y-117590155D01*
X154080208Y-117722612D01*
X154085220Y-117730112D01*
X154204242Y-117849134D01*
X154344196Y-117942648D01*
X154344197Y-117942648D01*
X154344198Y-117942649D01*
X154365528Y-117951484D01*
X154499705Y-118007062D01*
X154664793Y-118039900D01*
X154664794Y-118039900D01*
X154833114Y-118039900D01*
X154833115Y-118039900D01*
X154998203Y-118007062D01*
X155153712Y-117942648D01*
X155293666Y-117849134D01*
X155412688Y-117730112D01*
X155506202Y-117590158D01*
X155570616Y-117434649D01*
X155603454Y-117269561D01*
X155603454Y-117101239D01*
X155603453Y-117101236D01*
X155894454Y-117101236D01*
X155894454Y-117101238D01*
X155894454Y-117101239D01*
X155894454Y-117269561D01*
X155925800Y-117427150D01*
X155927292Y-117434648D01*
X155927292Y-117434650D01*
X155991704Y-117590155D01*
X156080208Y-117722612D01*
X156085220Y-117730112D01*
X156204242Y-117849134D01*
X156344196Y-117942648D01*
X156344197Y-117942648D01*
X156344198Y-117942649D01*
X156365528Y-117951484D01*
X156499705Y-118007062D01*
X156664793Y-118039900D01*
X156664794Y-118039900D01*
X156833114Y-118039900D01*
X156833115Y-118039900D01*
X156998203Y-118007062D01*
X157153712Y-117942648D01*
X157293666Y-117849134D01*
X157412688Y-117730112D01*
X157506202Y-117590158D01*
X157570616Y-117434649D01*
X157603454Y-117269561D01*
X157603454Y-117101239D01*
X157603453Y-117101236D01*
X157601961Y-117093736D01*
X163394454Y-117093736D01*
X163394454Y-117262063D01*
X163395946Y-117269563D01*
X163424805Y-117414648D01*
X163427292Y-117427148D01*
X163427292Y-117427150D01*
X163491704Y-117582655D01*
X163576867Y-117710112D01*
X163585220Y-117722612D01*
X163704242Y-117841634D01*
X163844196Y-117935148D01*
X163844197Y-117935148D01*
X163844198Y-117935149D01*
X163862305Y-117942649D01*
X163999705Y-117999562D01*
X164164793Y-118032400D01*
X164164794Y-118032400D01*
X164333114Y-118032400D01*
X164333115Y-118032400D01*
X164498203Y-117999562D01*
X164653712Y-117935148D01*
X164793666Y-117841634D01*
X164912688Y-117722612D01*
X165006202Y-117582658D01*
X165070616Y-117427149D01*
X165103454Y-117262061D01*
X165103454Y-117093739D01*
X165103453Y-117093736D01*
X165394454Y-117093736D01*
X165394454Y-117262063D01*
X165395946Y-117269563D01*
X165424805Y-117414648D01*
X165427292Y-117427148D01*
X165427292Y-117427150D01*
X165491704Y-117582655D01*
X165576867Y-117710112D01*
X165585220Y-117722612D01*
X165704242Y-117841634D01*
X165844196Y-117935148D01*
X165844197Y-117935148D01*
X165844198Y-117935149D01*
X165862305Y-117942649D01*
X165999705Y-117999562D01*
X166164793Y-118032400D01*
X166164794Y-118032400D01*
X166333114Y-118032400D01*
X166333115Y-118032400D01*
X166498203Y-117999562D01*
X166653712Y-117935148D01*
X166793666Y-117841634D01*
X166912688Y-117722612D01*
X167006202Y-117582658D01*
X167070616Y-117427149D01*
X167103454Y-117262061D01*
X167103454Y-117093739D01*
X167070616Y-116928651D01*
X167016012Y-116796826D01*
X167006203Y-116773144D01*
X166997849Y-116760642D01*
X166912688Y-116633188D01*
X166793666Y-116514166D01*
X166783679Y-116507493D01*
X166653709Y-116420650D01*
X166498203Y-116356238D01*
X166333117Y-116323400D01*
X166333115Y-116323400D01*
X166164793Y-116323400D01*
X166164790Y-116323400D01*
X165999705Y-116356238D01*
X165999703Y-116356238D01*
X165844198Y-116420650D01*
X165704245Y-116514163D01*
X165585217Y-116633191D01*
X165491704Y-116773144D01*
X165427292Y-116928649D01*
X165427292Y-116928651D01*
X165394454Y-117093736D01*
X165103453Y-117093736D01*
X165070616Y-116928651D01*
X165016012Y-116796826D01*
X165006203Y-116773144D01*
X164997849Y-116760642D01*
X164912688Y-116633188D01*
X164793666Y-116514166D01*
X164783679Y-116507493D01*
X164653709Y-116420650D01*
X164498203Y-116356238D01*
X164333117Y-116323400D01*
X164333115Y-116323400D01*
X164164793Y-116323400D01*
X164164790Y-116323400D01*
X163999705Y-116356238D01*
X163999703Y-116356238D01*
X163844198Y-116420650D01*
X163704245Y-116514163D01*
X163585217Y-116633191D01*
X163491704Y-116773144D01*
X163427292Y-116928649D01*
X163427292Y-116928651D01*
X163394454Y-117093736D01*
X157601961Y-117093736D01*
X157590902Y-117038137D01*
X157570616Y-116936151D01*
X157538409Y-116858396D01*
X157506203Y-116780644D01*
X157501190Y-116773142D01*
X157412688Y-116640688D01*
X157293666Y-116521666D01*
X157282441Y-116514166D01*
X157153709Y-116428150D01*
X156998203Y-116363738D01*
X156833117Y-116330900D01*
X156833115Y-116330900D01*
X156664793Y-116330900D01*
X156664790Y-116330900D01*
X156499705Y-116363738D01*
X156499703Y-116363738D01*
X156344198Y-116428150D01*
X156204245Y-116521663D01*
X156085217Y-116640691D01*
X155991704Y-116780644D01*
X155927292Y-116936149D01*
X155927292Y-116936151D01*
X155894454Y-117101236D01*
X155603453Y-117101236D01*
X155570616Y-116936151D01*
X155538409Y-116858396D01*
X155506203Y-116780644D01*
X155501190Y-116773142D01*
X155412688Y-116640688D01*
X155293666Y-116521666D01*
X155282441Y-116514166D01*
X155153709Y-116428150D01*
X154998203Y-116363738D01*
X154833117Y-116330900D01*
X154833115Y-116330900D01*
X154664793Y-116330900D01*
X154664790Y-116330900D01*
X154499705Y-116363738D01*
X154499703Y-116363738D01*
X154344198Y-116428150D01*
X154204245Y-116521663D01*
X154085217Y-116640691D01*
X153991704Y-116780644D01*
X153927292Y-116936149D01*
X153927292Y-116936151D01*
X153894454Y-117101236D01*
X139149454Y-117101236D01*
X139149454Y-112343736D01*
X147905156Y-112343736D01*
X147905156Y-112512063D01*
X147937994Y-112677148D01*
X147937994Y-112677150D01*
X148002406Y-112832655D01*
X148064449Y-112925510D01*
X148095922Y-112972612D01*
X148214944Y-113091634D01*
X148354898Y-113185148D01*
X148510407Y-113249562D01*
X148675495Y-113282400D01*
X148675496Y-113282400D01*
X148843816Y-113282400D01*
X148843817Y-113282400D01*
X149008905Y-113249562D01*
X149164414Y-113185148D01*
X149304368Y-113091634D01*
X149423390Y-112972612D01*
X149516904Y-112832658D01*
X149581318Y-112677149D01*
X149614156Y-112512061D01*
X149614156Y-112343739D01*
X149581318Y-112178651D01*
X149571103Y-112153991D01*
X154080354Y-112153991D01*
X154080354Y-112342960D01*
X154109912Y-112529589D01*
X154168307Y-112709308D01*
X154250488Y-112870599D01*
X154254094Y-112877675D01*
X154365164Y-113030549D01*
X154498781Y-113164166D01*
X154651655Y-113275236D01*
X154820022Y-113361023D01*
X154999736Y-113419416D01*
X154999737Y-113419416D01*
X154999740Y-113419417D01*
X155186370Y-113448976D01*
X155186373Y-113448976D01*
X155375338Y-113448976D01*
X155561967Y-113419417D01*
X155561968Y-113419416D01*
X155561972Y-113419416D01*
X155741686Y-113361023D01*
X155910053Y-113275236D01*
X156062927Y-113164166D01*
X156196544Y-113030549D01*
X156307614Y-112877675D01*
X156393401Y-112709308D01*
X156451794Y-112529594D01*
X156460835Y-112472513D01*
X156481354Y-112342960D01*
X156481354Y-112153991D01*
X164265754Y-112153991D01*
X164265754Y-112342960D01*
X164295312Y-112529589D01*
X164353707Y-112709308D01*
X164435888Y-112870599D01*
X164439494Y-112877675D01*
X164550564Y-113030549D01*
X164684181Y-113164166D01*
X164837055Y-113275236D01*
X165005422Y-113361023D01*
X165185136Y-113419416D01*
X165185137Y-113419416D01*
X165185140Y-113419417D01*
X165371770Y-113448976D01*
X165371773Y-113448976D01*
X165560738Y-113448976D01*
X165747367Y-113419417D01*
X165747368Y-113419416D01*
X165747372Y-113419416D01*
X165927086Y-113361023D01*
X166095453Y-113275236D01*
X166248327Y-113164166D01*
X166381944Y-113030549D01*
X166493014Y-112877675D01*
X166578801Y-112709308D01*
X166637194Y-112529594D01*
X166646235Y-112472513D01*
X166666754Y-112342960D01*
X166666754Y-112153991D01*
X166637195Y-111967362D01*
X166618650Y-111910286D01*
X166578801Y-111787644D01*
X166493014Y-111619277D01*
X166381944Y-111466403D01*
X166248327Y-111332786D01*
X166095453Y-111221716D01*
X166095452Y-111221715D01*
X166095450Y-111221714D01*
X165927086Y-111135929D01*
X165747367Y-111077534D01*
X165560738Y-111047976D01*
X165560735Y-111047976D01*
X165371773Y-111047976D01*
X165371770Y-111047976D01*
X165185140Y-111077534D01*
X165005421Y-111135929D01*
X164837057Y-111221714D01*
X164684182Y-111332785D01*
X164550563Y-111466404D01*
X164439492Y-111619279D01*
X164353707Y-111787643D01*
X164295312Y-111967362D01*
X164265754Y-112153991D01*
X156481354Y-112153991D01*
X156451795Y-111967362D01*
X156433250Y-111910286D01*
X156393401Y-111787644D01*
X156307614Y-111619277D01*
X156196544Y-111466403D01*
X156062927Y-111332786D01*
X155910053Y-111221716D01*
X155910052Y-111221715D01*
X155910050Y-111221714D01*
X155741686Y-111135929D01*
X155561967Y-111077534D01*
X155375338Y-111047976D01*
X155375335Y-111047976D01*
X155186373Y-111047976D01*
X155186370Y-111047976D01*
X154999740Y-111077534D01*
X154820021Y-111135929D01*
X154651657Y-111221714D01*
X154498782Y-111332785D01*
X154365163Y-111466404D01*
X154254092Y-111619279D01*
X154168307Y-111787643D01*
X154109912Y-111967362D01*
X154080354Y-112153991D01*
X149571103Y-112153991D01*
X149516904Y-112023142D01*
X149423390Y-111883188D01*
X149304368Y-111764166D01*
X149254083Y-111730567D01*
X149164411Y-111670650D01*
X149008905Y-111606238D01*
X148843819Y-111573400D01*
X148843817Y-111573400D01*
X148675495Y-111573400D01*
X148675492Y-111573400D01*
X148510407Y-111606238D01*
X148510405Y-111606238D01*
X148354900Y-111670650D01*
X148214947Y-111764163D01*
X148095919Y-111883191D01*
X148002406Y-112023144D01*
X147937994Y-112178649D01*
X147937994Y-112178651D01*
X147905156Y-112343736D01*
X139149454Y-112343736D01*
X139149454Y-110343736D01*
X147905156Y-110343736D01*
X147905156Y-110512063D01*
X147937994Y-110677148D01*
X147937994Y-110677150D01*
X148002406Y-110832655D01*
X148002407Y-110832657D01*
X148002408Y-110832658D01*
X148095922Y-110972612D01*
X148214944Y-111091634D01*
X148354898Y-111185148D01*
X148510407Y-111249562D01*
X148675495Y-111282400D01*
X148675496Y-111282400D01*
X148843816Y-111282400D01*
X148843817Y-111282400D01*
X149008905Y-111249562D01*
X149164414Y-111185148D01*
X149304368Y-111091634D01*
X149423390Y-110972612D01*
X149516904Y-110832658D01*
X149581318Y-110677149D01*
X149614156Y-110512061D01*
X149614156Y-110343739D01*
X149581318Y-110178651D01*
X149516904Y-110023142D01*
X149423390Y-109883188D01*
X149304368Y-109764166D01*
X149164414Y-109670652D01*
X149164413Y-109670651D01*
X149164411Y-109670650D01*
X149008905Y-109606238D01*
X148843819Y-109573400D01*
X148843817Y-109573400D01*
X148675495Y-109573400D01*
X148675492Y-109573400D01*
X148510407Y-109606238D01*
X148510405Y-109606238D01*
X148354900Y-109670650D01*
X148214947Y-109764163D01*
X148095919Y-109883191D01*
X148002406Y-110023144D01*
X147937994Y-110178649D01*
X147937994Y-110178651D01*
X147905156Y-110343736D01*
X139149454Y-110343736D01*
X139149454Y-102793736D01*
X148044454Y-102793736D01*
X148044454Y-102962063D01*
X148048412Y-102981960D01*
X148077091Y-103126141D01*
X148077292Y-103127148D01*
X148077292Y-103127150D01*
X148141704Y-103282655D01*
X148141705Y-103282657D01*
X148141706Y-103282658D01*
X148235220Y-103422612D01*
X148354242Y-103541634D01*
X148494196Y-103635148D01*
X148649705Y-103699562D01*
X148814793Y-103732400D01*
X148814794Y-103732400D01*
X148983114Y-103732400D01*
X148983115Y-103732400D01*
X149148203Y-103699562D01*
X149303712Y-103635148D01*
X149443666Y-103541634D01*
X149562688Y-103422612D01*
X149656202Y-103282658D01*
X149720616Y-103127149D01*
X149753454Y-102962061D01*
X149753454Y-102793739D01*
X149720616Y-102628651D01*
X149656202Y-102473142D01*
X149562688Y-102333188D01*
X149443666Y-102214166D01*
X149358944Y-102157557D01*
X149303709Y-102120650D01*
X149148203Y-102056238D01*
X148983117Y-102023400D01*
X148983115Y-102023400D01*
X148814793Y-102023400D01*
X148814790Y-102023400D01*
X148649705Y-102056238D01*
X148649703Y-102056238D01*
X148494198Y-102120650D01*
X148354245Y-102214163D01*
X148235217Y-102333191D01*
X148141704Y-102473144D01*
X148077292Y-102628649D01*
X148077292Y-102628651D01*
X148044454Y-102793736D01*
X139149454Y-102793736D01*
X139149454Y-59275230D01*
X140944454Y-59275230D01*
X140944454Y-59480569D01*
X140976573Y-59683366D01*
X140990986Y-59727725D01*
X141040026Y-59878654D01*
X141133245Y-60061607D01*
X141253937Y-60227725D01*
X141399129Y-60372917D01*
X141565247Y-60493609D01*
X141748200Y-60586828D01*
X141943483Y-60650279D01*
X141943484Y-60650279D01*
X141943487Y-60650280D01*
X142146285Y-60682400D01*
X142146288Y-60682400D01*
X142351623Y-60682400D01*
X142554420Y-60650280D01*
X142554421Y-60650279D01*
X142554425Y-60650279D01*
X142749708Y-60586828D01*
X142932661Y-60493609D01*
X143098779Y-60372917D01*
X143243971Y-60227725D01*
X143364663Y-60061607D01*
X143457882Y-59878654D01*
X143521333Y-59683371D01*
X143521334Y-59683366D01*
X143553454Y-59480569D01*
X143553454Y-59275230D01*
X143521334Y-59072433D01*
X143491485Y-58980566D01*
X143457882Y-58877146D01*
X143364663Y-58694193D01*
X143243971Y-58528075D01*
X143098779Y-58382883D01*
X142932661Y-58262191D01*
X142932660Y-58262190D01*
X142932658Y-58262189D01*
X142749708Y-58168972D01*
X142554420Y-58105519D01*
X142351623Y-58073400D01*
X142351620Y-58073400D01*
X142146288Y-58073400D01*
X142146285Y-58073400D01*
X141943487Y-58105519D01*
X141748199Y-58168972D01*
X141565249Y-58262189D01*
X141399130Y-58382882D01*
X141253936Y-58528076D01*
X141133243Y-58694195D01*
X141040026Y-58877145D01*
X140976573Y-59072433D01*
X140944454Y-59275230D01*
X139149454Y-59275230D01*
X139149454Y-56377400D01*
X139168361Y-56319209D01*
X139217861Y-56283245D01*
X139248454Y-56278400D01*
X145249454Y-56278400D01*
X145307645Y-56297307D01*
G37*
G04 #@! TD.AperFunction*
G04 #@! TA.AperFunction,Conductor*
G36*
X175620292Y-78819401D02*
G01*
X175649047Y-78819401D01*
X175650690Y-78820595D01*
X175652719Y-78820675D01*
X175675281Y-78838461D01*
X175698547Y-78855365D01*
X175700769Y-78858554D01*
X175716903Y-78882700D01*
X175764840Y-78954442D01*
X175764843Y-78954445D01*
X175862412Y-79052014D01*
X175977136Y-79128671D01*
X175977147Y-79128677D01*
X176062131Y-79163878D01*
X176104626Y-79181480D01*
X176104629Y-79181480D01*
X176106130Y-79181936D01*
X176107031Y-79182476D01*
X176109119Y-79183341D01*
X176108990Y-79183650D01*
X176147396Y-79206669D01*
X187841458Y-90900730D01*
X187869235Y-90955247D01*
X187870454Y-90970734D01*
X187870454Y-92021991D01*
X187851547Y-92080182D01*
X187826456Y-92104306D01*
X187749412Y-92155785D01*
X187651839Y-92253358D01*
X187575182Y-92368082D01*
X187575176Y-92368093D01*
X187522374Y-92495570D01*
X187522374Y-92495572D01*
X187495454Y-92630904D01*
X187495454Y-92768895D01*
X187522374Y-92904227D01*
X187522374Y-92904229D01*
X187575176Y-93031706D01*
X187575182Y-93031717D01*
X187612860Y-93088105D01*
X187636443Y-93123399D01*
X187653052Y-93182286D01*
X187631875Y-93239689D01*
X187581002Y-93273683D01*
X187554128Y-93277400D01*
X177707217Y-93277400D01*
X177649026Y-93258493D01*
X177624902Y-93233402D01*
X177590747Y-93182286D01*
X177564068Y-93142358D01*
X177466496Y-93044786D01*
X177456939Y-93038400D01*
X177351771Y-92968128D01*
X177351760Y-92968122D01*
X177224283Y-92915320D01*
X177102931Y-92891181D01*
X177049547Y-92861284D01*
X177023932Y-92805718D01*
X177035869Y-92745709D01*
X177052238Y-92724085D01*
X177253443Y-92522881D01*
X177312753Y-92420154D01*
X177316307Y-92406891D01*
X177323241Y-92381015D01*
X177330639Y-92353402D01*
X177343454Y-92305576D01*
X177343454Y-81092896D01*
X177312753Y-80978319D01*
X177253444Y-80875592D01*
X175548450Y-79170598D01*
X175520673Y-79116081D01*
X175519454Y-79100594D01*
X175519454Y-78913556D01*
X175520081Y-78911625D01*
X175519530Y-78909670D01*
X175529479Y-78882700D01*
X175538361Y-78855365D01*
X175540004Y-78854171D01*
X175540707Y-78852266D01*
X175564600Y-78836301D01*
X175587861Y-78819401D01*
X175589893Y-78819401D01*
X175591581Y-78818273D01*
X175620292Y-78819401D01*
G37*
G04 #@! TD.AperFunction*
G04 #@! TD*
G04 #@! TA.AperFunction,NonConductor*
G36*
X146289036Y-69448548D02*
G01*
X146338300Y-69484836D01*
X146349291Y-69504614D01*
X146403178Y-69634709D01*
X146403182Y-69634717D01*
X146479839Y-69749441D01*
X146577412Y-69847014D01*
X146692136Y-69923671D01*
X146692147Y-69923677D01*
X146731613Y-69940024D01*
X146819626Y-69976480D01*
X146954961Y-70003400D01*
X146954962Y-70003400D01*
X147092946Y-70003400D01*
X147092947Y-70003400D01*
X147228282Y-69976480D01*
X147355765Y-69923675D01*
X147470496Y-69847014D01*
X147568068Y-69749442D01*
X147600170Y-69701398D01*
X147648219Y-69663519D01*
X147682485Y-69657400D01*
X150005006Y-69657400D01*
X150063197Y-69676307D01*
X150096470Y-69718515D01*
X150103176Y-69734706D01*
X150103182Y-69734717D01*
X150179839Y-69849441D01*
X150179840Y-69849442D01*
X150277412Y-69947014D01*
X150354456Y-69998493D01*
X150392335Y-70046543D01*
X150398454Y-70080808D01*
X150398454Y-71009447D01*
X150402081Y-71022983D01*
X150405454Y-71048606D01*
X150405454Y-71995882D01*
X150386547Y-72054073D01*
X150337047Y-72090037D01*
X150275861Y-72090037D01*
X150226361Y-72054073D01*
X150224139Y-72050884D01*
X150155389Y-71947994D01*
X150057816Y-71850421D01*
X149943092Y-71773764D01*
X149943081Y-71773758D01*
X149815603Y-71720956D01*
X149680270Y-71694036D01*
X149680268Y-71694036D01*
X149542282Y-71694036D01*
X149542279Y-71694036D01*
X149406947Y-71720956D01*
X149406945Y-71720956D01*
X149279468Y-71773758D01*
X149279457Y-71773764D01*
X149164733Y-71850421D01*
X149164724Y-71850429D01*
X149067162Y-71947992D01*
X149065797Y-71950036D01*
X149064912Y-71950733D01*
X149064073Y-71951756D01*
X149063848Y-71951571D01*
X149017748Y-71987916D01*
X148983480Y-71994036D01*
X148935045Y-71994036D01*
X148829591Y-71994036D01*
X148767247Y-72010740D01*
X148727725Y-72021330D01*
X148636409Y-72074052D01*
X146283470Y-74426991D01*
X146230748Y-74518307D01*
X146214965Y-74577212D01*
X146214964Y-74577214D01*
X146208104Y-74602814D01*
X146174779Y-74654128D01*
X146117657Y-74676053D01*
X146058557Y-74660216D01*
X146020053Y-74612666D01*
X146013503Y-74575011D01*
X146048954Y-72967900D01*
X146048952Y-72967900D01*
X146048953Y-72967899D01*
X143889063Y-72996571D01*
X143830626Y-72978438D01*
X143794009Y-72929420D01*
X143788749Y-72897785D01*
X143785263Y-71190007D01*
X143804052Y-71131781D01*
X143853478Y-71095716D01*
X143882382Y-71090826D01*
X146148954Y-71047900D01*
X146158829Y-69541848D01*
X146178118Y-69483785D01*
X146227852Y-69448147D01*
X146289036Y-69448548D01*
G37*
G04 #@! TD.AperFunction*
G04 #@! TA.AperFunction,NonConductor*
G36*
X171008534Y-63832307D02*
G01*
X171020347Y-63842396D01*
X173136822Y-65958871D01*
X173164599Y-66013388D01*
X173165818Y-66028875D01*
X173165818Y-66077529D01*
X173190177Y-66199991D01*
X173192738Y-66212863D01*
X173192738Y-66212865D01*
X173245540Y-66340342D01*
X173245546Y-66340353D01*
X173322203Y-66455077D01*
X173419776Y-66552650D01*
X173534500Y-66629307D01*
X173534511Y-66629313D01*
X173581601Y-66648818D01*
X173661990Y-66682116D01*
X173797325Y-66709036D01*
X173797326Y-66709036D01*
X173935310Y-66709036D01*
X173935311Y-66709036D01*
X174070646Y-66682116D01*
X174198129Y-66629311D01*
X174312860Y-66552650D01*
X174410432Y-66455078D01*
X174437139Y-66415107D01*
X174485189Y-66377229D01*
X174546327Y-66374827D01*
X174597201Y-66408820D01*
X174618378Y-66466224D01*
X174618454Y-66470110D01*
X174618454Y-79387513D01*
X174641682Y-79474201D01*
X174641682Y-79474202D01*
X174649152Y-79502085D01*
X174649157Y-79502097D01*
X174708461Y-79604814D01*
X174708463Y-79604816D01*
X174708465Y-79604819D01*
X176413459Y-81309813D01*
X176441235Y-81364328D01*
X176442454Y-81379815D01*
X176442454Y-90398474D01*
X176423547Y-90456665D01*
X176374047Y-90492629D01*
X176312861Y-90492629D01*
X176263361Y-90456665D01*
X176246356Y-90417789D01*
X176245666Y-90414320D01*
X176242534Y-90398574D01*
X176223952Y-90353712D01*
X176189731Y-90271095D01*
X176189725Y-90271084D01*
X176113068Y-90156360D01*
X176015495Y-90058787D01*
X175900771Y-89982130D01*
X175900760Y-89982124D01*
X175773282Y-89929322D01*
X175637949Y-89902402D01*
X175637947Y-89902402D01*
X175499961Y-89902402D01*
X175499958Y-89902402D01*
X175409082Y-89920479D01*
X175348321Y-89913287D01*
X175319764Y-89893385D01*
X173763448Y-88337069D01*
X173735671Y-88282552D01*
X173734452Y-88267065D01*
X173734452Y-77303810D01*
X173753359Y-77245619D01*
X173778450Y-77221495D01*
X173791062Y-77213068D01*
X173855494Y-77170016D01*
X173953066Y-77072444D01*
X174029727Y-76957713D01*
X174082532Y-76830230D01*
X174109452Y-76694895D01*
X174109452Y-76556909D01*
X174082532Y-76421574D01*
X174049885Y-76342757D01*
X174029729Y-76294095D01*
X174029723Y-76294084D01*
X173953066Y-76179360D01*
X173855493Y-76081787D01*
X173740769Y-76005130D01*
X173740758Y-76005124D01*
X173613280Y-75952322D01*
X173477947Y-75925402D01*
X173477945Y-75925402D01*
X173339959Y-75925402D01*
X173339956Y-75925402D01*
X173204624Y-75952322D01*
X173204622Y-75952322D01*
X173077145Y-76005124D01*
X173077134Y-76005130D01*
X172962410Y-76081787D01*
X172864837Y-76179360D01*
X172788180Y-76294084D01*
X172788174Y-76294095D01*
X172735372Y-76421572D01*
X172735372Y-76421574D01*
X172715552Y-76521214D01*
X172685655Y-76574598D01*
X172630090Y-76600214D01*
X172570080Y-76588277D01*
X172528548Y-76543347D01*
X172519454Y-76501900D01*
X172519454Y-68612808D01*
X172538361Y-68554617D01*
X172563452Y-68530493D01*
X172640496Y-68479014D01*
X172738068Y-68381442D01*
X172814729Y-68266711D01*
X172867534Y-68139228D01*
X172875768Y-68097831D01*
X172882499Y-68085811D01*
X172884655Y-68072201D01*
X172897077Y-68059778D01*
X172905662Y-68044449D01*
X172918176Y-68038679D01*
X172927920Y-68028936D01*
X172945271Y-68026187D01*
X172961227Y-68018832D01*
X172974743Y-68021520D01*
X172988352Y-68019365D01*
X173004005Y-68027340D01*
X173021237Y-68030768D01*
X173042869Y-68047142D01*
X173114458Y-68118731D01*
X173142235Y-68173248D01*
X173143454Y-68188735D01*
X173143454Y-73459991D01*
X173124547Y-73518182D01*
X173099456Y-73542306D01*
X173022412Y-73593785D01*
X172924839Y-73691358D01*
X172848182Y-73806082D01*
X172848176Y-73806093D01*
X172795374Y-73933570D01*
X172795374Y-73933572D01*
X172768454Y-74068904D01*
X172768454Y-74068907D01*
X172768454Y-74206893D01*
X172793430Y-74332457D01*
X172795374Y-74342227D01*
X172795374Y-74342229D01*
X172848176Y-74469706D01*
X172848182Y-74469717D01*
X172924839Y-74584441D01*
X173022412Y-74682014D01*
X173137136Y-74758671D01*
X173137147Y-74758677D01*
X173153166Y-74765312D01*
X173264626Y-74811480D01*
X173399961Y-74838400D01*
X173399962Y-74838400D01*
X173537946Y-74838400D01*
X173537947Y-74838400D01*
X173673282Y-74811480D01*
X173800765Y-74758675D01*
X173915496Y-74682014D01*
X174013068Y-74584442D01*
X174089729Y-74469711D01*
X174142534Y-74342228D01*
X174169454Y-74206893D01*
X174169454Y-74068907D01*
X174142534Y-73933572D01*
X174089729Y-73806089D01*
X174089728Y-73806087D01*
X174089725Y-73806082D01*
X174013068Y-73691358D01*
X173915495Y-73593785D01*
X173838452Y-73542306D01*
X173800573Y-73494255D01*
X173794454Y-73459991D01*
X173794454Y-67970048D01*
X173794454Y-67970047D01*
X173774989Y-67897401D01*
X173772272Y-67887261D01*
X173772271Y-67887260D01*
X173772271Y-67887258D01*
X173772270Y-67887257D01*
X173729422Y-67813042D01*
X173729420Y-67813040D01*
X173729419Y-67813038D01*
X172765816Y-66849435D01*
X172765813Y-66849433D01*
X172765811Y-66849431D01*
X172691596Y-66806583D01*
X172691598Y-66806583D01*
X172659475Y-66797976D01*
X172608807Y-66784400D01*
X171895080Y-66784400D01*
X171809374Y-66784400D01*
X171758705Y-66797976D01*
X171726583Y-66806583D01*
X171652369Y-66849431D01*
X169321485Y-69180315D01*
X169278638Y-69254528D01*
X169278636Y-69254532D01*
X169278636Y-69254534D01*
X169256679Y-69336481D01*
X169256454Y-69337320D01*
X169256454Y-71908394D01*
X169237547Y-71966585D01*
X169188047Y-72002549D01*
X169126861Y-72002549D01*
X169077361Y-71966585D01*
X169075139Y-71963397D01*
X169055068Y-71933358D01*
X168957496Y-71835786D01*
X168924571Y-71813786D01*
X168880452Y-71784306D01*
X168842573Y-71736255D01*
X168836454Y-71701991D01*
X168836454Y-66622048D01*
X168836454Y-66622047D01*
X168814272Y-66539262D01*
X168771419Y-66465038D01*
X168761458Y-66455077D01*
X168710816Y-66404434D01*
X168710816Y-66404435D01*
X166297816Y-63991435D01*
X166297813Y-63991433D01*
X166297812Y-63991432D01*
X166297172Y-63990941D01*
X166296844Y-63990464D01*
X166293227Y-63986847D01*
X166293897Y-63986176D01*
X166262517Y-63940516D01*
X166264120Y-63879351D01*
X166301368Y-63830810D01*
X166357441Y-63813400D01*
X170950343Y-63813400D01*
X171008534Y-63832307D01*
G37*
G04 #@! TD.AperFunction*
G04 #@! TA.AperFunction,NonConductor*
G36*
X154831031Y-77324957D02*
G01*
X154874296Y-77368222D01*
X154883867Y-77428654D01*
X154874534Y-77455020D01*
X154875120Y-77455263D01*
X154872638Y-77461254D01*
X154872636Y-77461260D01*
X154872636Y-77461261D01*
X154859037Y-77512014D01*
X154859037Y-77512015D01*
X154859036Y-77512014D01*
X154850454Y-77544044D01*
X154850454Y-77544047D01*
X154850454Y-88212047D01*
X154850454Y-88297753D01*
X154872636Y-88380539D01*
X154872637Y-88380541D01*
X154917387Y-88458049D01*
X154930109Y-88517898D01*
X154905223Y-88573793D01*
X154852235Y-88604386D01*
X154791385Y-88597991D01*
X154776649Y-88589865D01*
X154676772Y-88523128D01*
X154676760Y-88523122D01*
X154549282Y-88470320D01*
X154413949Y-88443400D01*
X154413947Y-88443400D01*
X154275961Y-88443400D01*
X154275958Y-88443400D01*
X154140626Y-88470320D01*
X154140624Y-88470320D01*
X154013147Y-88523122D01*
X154013136Y-88523128D01*
X153898412Y-88599785D01*
X153800839Y-88697358D01*
X153724182Y-88812082D01*
X153724176Y-88812093D01*
X153671374Y-88939570D01*
X153671374Y-88939572D01*
X153644454Y-89074904D01*
X153644454Y-89212895D01*
X153671374Y-89348227D01*
X153671374Y-89348229D01*
X153724176Y-89475706D01*
X153724182Y-89475717D01*
X153800839Y-89590441D01*
X153803458Y-89593060D01*
X153831235Y-89647577D01*
X153821664Y-89708009D01*
X153803458Y-89733068D01*
X153158143Y-90378383D01*
X153103626Y-90406160D01*
X153068825Y-90405477D01*
X153048987Y-90401530D01*
X152977949Y-90387400D01*
X152977947Y-90387400D01*
X152839961Y-90387400D01*
X152839958Y-90387400D01*
X152704626Y-90414320D01*
X152704624Y-90414320D01*
X152577147Y-90467122D01*
X152577136Y-90467128D01*
X152462412Y-90543785D01*
X152364843Y-90641354D01*
X152361763Y-90645109D01*
X152360531Y-90644098D01*
X152317712Y-90677850D01*
X152256573Y-90680247D01*
X152205702Y-90646250D01*
X152184530Y-90588844D01*
X152184454Y-90584966D01*
X152184454Y-83444012D01*
X152203361Y-83385821D01*
X152252861Y-83349857D01*
X152314047Y-83349857D01*
X152363547Y-83385821D01*
X152374918Y-83406127D01*
X152428176Y-83534706D01*
X152428182Y-83534717D01*
X152504839Y-83649441D01*
X152602412Y-83747014D01*
X152717136Y-83823671D01*
X152717147Y-83823677D01*
X152764237Y-83843182D01*
X152844626Y-83876480D01*
X152979961Y-83903400D01*
X152979962Y-83903400D01*
X153117946Y-83903400D01*
X153117947Y-83903400D01*
X153253282Y-83876480D01*
X153380765Y-83823675D01*
X153495496Y-83747014D01*
X153593068Y-83649442D01*
X153669729Y-83534711D01*
X153722534Y-83407228D01*
X153749454Y-83271893D01*
X153749454Y-83133907D01*
X153748975Y-83131500D01*
X153749106Y-83130388D01*
X153748977Y-83129071D01*
X153749265Y-83129042D01*
X153756161Y-83070741D01*
X153776065Y-83042180D01*
X154129434Y-82688813D01*
X154133873Y-82681125D01*
X154182161Y-82597487D01*
X154209454Y-82495627D01*
X154209454Y-77890800D01*
X154228361Y-77832609D01*
X154238450Y-77820797D01*
X154470576Y-77588671D01*
X154716084Y-77343162D01*
X154770599Y-77315386D01*
X154831031Y-77324957D01*
G37*
G04 #@! TD.AperFunction*
M02*
